<mxfile host="app.diagrams.net" modified="2024-06-06T00:41:20.532Z" agent="Mozilla/5.0 (X11; Linux x86_64; rv:126.0) Gecko/20100101 Firefox/126.0" etag="m3MdDPHiLNw1UtaWBLVf" version="24.4.13" type="github" pages="7">
  <diagram name="proyecto" id="rWFAseFCUA5T3jen3-Zc">
    <mxGraphModel dx="1184" dy="588" grid="1" gridSize="10" guides="1" tooltips="1" connect="1" arrows="1" fold="1" page="1" pageScale="1" pageWidth="850" pageHeight="1100" math="0" shadow="0">
      <root>
        <mxCell id="0" />
        <mxCell id="1" parent="0" />
        <mxCell id="CKFobENchho33KOplj3c-1" value="&lt;p style=&quot;margin:0px;margin-top:4px;text-align:center;&quot;&gt;&lt;b&gt;Vuelo&lt;/b&gt;&lt;br&gt;&lt;/p&gt;&lt;hr size=&quot;1&quot;&gt;&lt;p style=&quot;margin:0px;margin-left:4px;&quot;&gt;- nroVuelo: int&amp;nbsp;&lt;/p&gt;&lt;p style=&quot;margin:0px;margin-left:4px;&quot;&gt;- aerolínea: String&lt;/p&gt;&lt;p style=&quot;margin:0px;margin-left:4px;&quot;&gt;- origen: String&lt;/p&gt;&lt;p style=&quot;margin:0px;margin-left:4px;&quot;&gt;- destino: String&lt;/p&gt;&lt;p style=&quot;margin:0px;margin-left:4px;&quot;&gt;- fecha: String&amp;nbsp;&lt;/p&gt;&lt;p style=&quot;margin:0px;margin-left:4px;&quot;&gt;- horaSalida: String&amp;nbsp;&amp;nbsp;&lt;/p&gt;&lt;p style=&quot;margin:0px;margin-left:4px;&quot;&gt;- horaLlegada: String&lt;br&gt;&lt;/p&gt;&lt;p style=&quot;margin:0px;margin-left:4px;&quot;&gt;- precio: int&lt;/p&gt;&lt;hr size=&quot;1&quot;&gt;&lt;p style=&quot;margin:0px;margin-left:4px;&quot;&gt;+ getters()&lt;br&gt;+ setters()&lt;br&gt;&lt;/p&gt;&lt;p style=&quot;margin:0px;margin-left:4px;&quot;&gt;&lt;br&gt;&lt;/p&gt;&lt;p style=&quot;margin:0px;margin-left:4px;&quot;&gt;&lt;br&gt;&lt;/p&gt;&lt;p style=&quot;margin:0px;margin-left:4px;&quot;&gt;&lt;br&gt;&lt;/p&gt;&lt;p style=&quot;margin:0px;margin-left:4px;&quot;&gt;&lt;br&gt;&lt;/p&gt;" style="verticalAlign=top;align=left;overflow=fill;fontSize=12;fontFamily=Helvetica;html=1;whiteSpace=wrap;" parent="1" vertex="1">
          <mxGeometry x="400" y="40" width="150" height="210" as="geometry" />
        </mxCell>
        <mxCell id="TFLYVqfE0xiHd43_3hXw-4" value="&lt;p style=&quot;margin:0px;margin-top:4px;text-align:center;&quot;&gt;&lt;b&gt;Reservas&lt;/b&gt;&lt;br&gt;&lt;/p&gt;&lt;hr size=&quot;1&quot;&gt;&lt;p style=&quot;margin:0px;margin-left:4px;&quot;&gt;- nroSolicitud&lt;br&gt;&lt;/p&gt;&lt;p style=&quot;margin:0px;margin-left:4px;&quot;&gt;- estadoDeReserva,&lt;br&gt;&lt;/p&gt;&lt;hr size=&quot;1&quot;&gt;&lt;p style=&quot;margin:0px;margin-left:4px;&quot;&gt;+ getters()&lt;br&gt;+ setters()&lt;br&gt;&lt;/p&gt;&lt;p style=&quot;margin:0px;margin-left:4px;&quot;&gt;&lt;br&gt;&lt;/p&gt;&lt;p style=&quot;margin:0px;margin-left:4px;&quot;&gt;&lt;br&gt;&lt;/p&gt;&lt;p style=&quot;margin:0px;margin-left:4px;&quot;&gt;&lt;br&gt;&lt;/p&gt;&lt;p style=&quot;margin:0px;margin-left:4px;&quot;&gt;&lt;br&gt;&lt;/p&gt;" style="verticalAlign=top;align=left;overflow=fill;fontSize=12;fontFamily=Helvetica;html=1;whiteSpace=wrap;" parent="1" vertex="1">
          <mxGeometry x="90" y="760" width="160" height="120" as="geometry" />
        </mxCell>
        <mxCell id="TFLYVqfE0xiHd43_3hXw-5" value="&lt;p style=&quot;margin:0px;margin-top:4px;text-align:center;&quot;&gt;&lt;b&gt;VectorVuelos&lt;/b&gt;&lt;br&gt;&lt;/p&gt;&lt;hr size=&quot;1&quot;&gt;&lt;p style=&quot;margin:0px;margin-left:4px;&quot;&gt;- MAX: int&lt;/p&gt;&lt;p style=&quot;margin:0px;margin-left:4px;&quot;&gt;- v: Vuelo[MAX]&lt;br&gt;&lt;/p&gt;&lt;hr size=&quot;1&quot;&gt;&lt;p style=&quot;margin:0px;margin-left:4px;&quot;&gt;&lt;br&gt;&lt;/p&gt;&lt;p style=&quot;margin:0px;margin-left:4px;&quot;&gt;&lt;br&gt;&lt;/p&gt;&lt;p style=&quot;margin:0px;margin-left:4px;&quot;&gt;&lt;br&gt;&lt;/p&gt;&lt;p style=&quot;margin:0px;margin-left:4px;&quot;&gt;&lt;br&gt;&lt;/p&gt;&lt;p style=&quot;margin:0px;margin-left:4px;&quot;&gt;&lt;br&gt;&lt;/p&gt;" style="verticalAlign=top;align=left;overflow=fill;fontSize=12;fontFamily=Helvetica;html=1;whiteSpace=wrap;" parent="1" vertex="1">
          <mxGeometry x="570" y="40" width="110" height="80" as="geometry" />
        </mxCell>
        <mxCell id="TFLYVqfE0xiHd43_3hXw-8" style="edgeStyle=orthogonalEdgeStyle;rounded=0;orthogonalLoop=1;jettySize=auto;html=1;entryX=1.024;entryY=0.589;entryDx=0;entryDy=0;entryPerimeter=0;" parent="1" source="TFLYVqfE0xiHd43_3hXw-6" target="TFLYVqfE0xiHd43_3hXw-5" edge="1">
          <mxGeometry relative="1" as="geometry" />
        </mxCell>
        <mxCell id="TFLYVqfE0xiHd43_3hXw-6" value="&lt;p style=&quot;margin:0px;margin-top:4px;text-align:center;&quot;&gt;&lt;b&gt;PilaVuelos&lt;/b&gt;&lt;br&gt;&lt;/p&gt;&lt;hr size=&quot;1&quot;&gt;&lt;p style=&quot;margin:0px;margin-left:4px;&quot;&gt;- tope: int&lt;br&gt;&lt;/p&gt;&lt;hr size=&quot;1&quot;&gt;&lt;p style=&quot;margin:0px;margin-left:4px;&quot;&gt;+ Pila()&lt;br&gt;+ esVacia()&lt;br&gt;+ esLlena()&lt;br&gt;+ adi(elem)&lt;br&gt;+ eli()&lt;br&gt;+ nroElem()&lt;br&gt;+ llenar(n)&lt;br&gt;+ mostrar()&lt;br&gt;+ vaciar(p)&lt;br&gt;&lt;/p&gt;&lt;p style=&quot;margin:0px;margin-left:4px;&quot;&gt;&lt;br&gt;&lt;/p&gt;&lt;p style=&quot;margin:0px;margin-left:4px;&quot;&gt;&lt;br&gt;&lt;/p&gt;&lt;p style=&quot;margin:0px;margin-left:4px;&quot;&gt;&lt;br&gt;&lt;/p&gt;" style="verticalAlign=top;align=left;overflow=fill;fontSize=12;fontFamily=Helvetica;html=1;whiteSpace=wrap;" parent="1" vertex="1">
          <mxGeometry x="720" y="40" width="100" height="200" as="geometry" />
        </mxCell>
        <mxCell id="TFLYVqfE0xiHd43_3hXw-9" value="&lt;p style=&quot;margin:0px;margin-top:4px;text-align:center;&quot;&gt;&lt;b&gt;Ruta&lt;/b&gt;&lt;br&gt;&lt;/p&gt;&lt;hr size=&quot;1&quot;&gt;&lt;p style=&quot;margin:0px;margin-left:4px;&quot;&gt;- distanciaTotal&amp;nbsp;&lt;/p&gt;&lt;p style=&quot;margin:0px;margin-left:4px;&quot;&gt;- duración&lt;/p&gt;&lt;p style=&quot;margin:0px;margin-left:4px;&quot;&gt;- nroVuelo&lt;/p&gt;&lt;p style=&quot;margin:0px;margin-left:4px;&quot;&gt;- destino&lt;/p&gt;&lt;p style=&quot;margin:0px;margin-left:4px;&quot;&gt;- fecha&lt;br&gt;&lt;/p&gt;&lt;p style=&quot;margin:0px;margin-left:4px;&quot;&gt;- horaPartida&lt;/p&gt;&amp;nbsp;- horaLlegada&lt;p style=&quot;margin:0px;margin-left:4px;&quot;&gt;&lt;/p&gt;&lt;hr size=&quot;1&quot;&gt;+ getters()&lt;p style=&quot;margin:0px;margin-left:4px;&quot;&gt;+ setter()&lt;br&gt;&lt;/p&gt;&lt;p style=&quot;margin:0px;margin-left:4px;&quot;&gt;&lt;br&gt;&lt;/p&gt;&lt;p style=&quot;margin:0px;margin-left:4px;&quot;&gt;&lt;br&gt;&lt;/p&gt;&lt;p style=&quot;margin:0px;margin-left:4px;&quot;&gt;&lt;br&gt;&lt;/p&gt;&lt;p style=&quot;margin:0px;margin-left:4px;&quot;&gt;&lt;br&gt;&lt;/p&gt;" style="verticalAlign=top;align=left;overflow=fill;fontSize=12;fontFamily=Helvetica;html=1;whiteSpace=wrap;" parent="1" vertex="1">
          <mxGeometry x="260" y="40" width="120" height="180" as="geometry" />
        </mxCell>
        <mxCell id="TFLYVqfE0xiHd43_3hXw-18" value="&lt;p style=&quot;margin:0px;margin-top:4px;text-align:center;&quot;&gt;&lt;b&gt;Pasajero&lt;/b&gt;&lt;br&gt;&lt;/p&gt;&lt;hr size=&quot;1&quot;&gt;&lt;p style=&quot;margin:0px;margin-left:4px;&quot;&gt;- nombre&lt;/p&gt;&lt;p style=&quot;margin:0px;margin-left:4px;&quot;&gt;- apellido&lt;/p&gt;&lt;p style=&quot;margin:0px;margin-left:4px;&quot;&gt;- CI&lt;/p&gt;&lt;p style=&quot;margin:0px;margin-left:4px;&quot;&gt;- edad&lt;/p&gt;&lt;div&gt;&amp;nbsp;- nacionalidad&lt;br&gt;&lt;/div&gt;&lt;hr size=&quot;1&quot;&gt;&lt;p style=&quot;margin:0px;margin-left:4px;&quot;&gt;+ getters()&lt;br&gt;+ setters()&lt;/p&gt;&lt;p style=&quot;margin:0px;margin-left:4px;&quot;&gt;&lt;br&gt;&lt;/p&gt;&lt;p style=&quot;margin:0px;margin-left:4px;&quot;&gt;&lt;br&gt;&lt;/p&gt;&lt;p style=&quot;margin:0px;margin-left:4px;&quot;&gt;&lt;br&gt;&lt;/p&gt;&lt;p style=&quot;margin:0px;margin-left:4px;&quot;&gt;&lt;br&gt;&lt;/p&gt;" style="verticalAlign=top;align=left;overflow=fill;fontSize=12;fontFamily=Helvetica;html=1;whiteSpace=wrap;" parent="1" vertex="1">
          <mxGeometry x="170" y="260" width="130" height="165" as="geometry" />
        </mxCell>
        <mxCell id="TFLYVqfE0xiHd43_3hXw-20" value="&lt;p style=&quot;margin:0px;margin-top:4px;text-align:center;&quot;&gt;&lt;b&gt;VectorReservas&lt;/b&gt;&lt;br&gt;&lt;/p&gt;&lt;hr size=&quot;1&quot;&gt;&lt;p style=&quot;margin:0px;margin-left:4px;&quot;&gt;- MAX: int&lt;/p&gt;&lt;p style=&quot;margin:0px;margin-left:4px;&quot;&gt;- v: Reservas[MAX]&lt;br&gt;&lt;/p&gt;&lt;hr size=&quot;1&quot;&gt;&lt;p style=&quot;margin:0px;margin-left:4px;&quot;&gt;&lt;br&gt;&lt;/p&gt;&lt;p style=&quot;margin:0px;margin-left:4px;&quot;&gt;&lt;br&gt;&lt;/p&gt;&lt;p style=&quot;margin:0px;margin-left:4px;&quot;&gt;&lt;br&gt;&lt;/p&gt;&lt;p style=&quot;margin:0px;margin-left:4px;&quot;&gt;&lt;br&gt;&lt;/p&gt;&lt;p style=&quot;margin:0px;margin-left:4px;&quot;&gt;&lt;br&gt;&lt;/p&gt;" style="verticalAlign=top;align=left;overflow=fill;fontSize=12;fontFamily=Helvetica;html=1;whiteSpace=wrap;" parent="1" vertex="1">
          <mxGeometry x="320" y="780" width="130" height="80" as="geometry" />
        </mxCell>
        <mxCell id="TFLYVqfE0xiHd43_3hXw-24" style="edgeStyle=orthogonalEdgeStyle;rounded=0;orthogonalLoop=1;jettySize=auto;html=1;entryX=1.022;entryY=0.588;entryDx=0;entryDy=0;entryPerimeter=0;" parent="1" source="TFLYVqfE0xiHd43_3hXw-21" target="TFLYVqfE0xiHd43_3hXw-20" edge="1">
          <mxGeometry relative="1" as="geometry" />
        </mxCell>
        <mxCell id="TFLYVqfE0xiHd43_3hXw-21" value="&lt;p style=&quot;margin:0px;margin-top:4px;text-align:center;&quot;&gt;&lt;b&gt;PilaReservas&lt;/b&gt;&lt;br&gt;&lt;/p&gt;&lt;hr size=&quot;1&quot;&gt;&lt;p style=&quot;margin:0px;margin-left:4px;&quot;&gt;- tope: int&lt;br&gt;&lt;/p&gt;&lt;hr size=&quot;1&quot;&gt;&lt;p style=&quot;margin:0px;margin-left:4px;&quot;&gt;+ Pila()&lt;br&gt;+ esVacia()&lt;br&gt;+ esLlena()&lt;br&gt;+ adi(elem)&lt;br&gt;+ eli()&lt;br&gt;+ nroElem()&lt;br&gt;+ llenar(n)&lt;br&gt;+ mostrar()&lt;br&gt;+ vaciar(p)&lt;br&gt;&lt;/p&gt;&lt;p style=&quot;margin:0px;margin-left:4px;&quot;&gt;&lt;br&gt;&lt;/p&gt;&lt;p style=&quot;margin:0px;margin-left:4px;&quot;&gt;&lt;br&gt;&lt;/p&gt;&lt;p style=&quot;margin:0px;margin-left:4px;&quot;&gt;&lt;br&gt;&lt;/p&gt;" style="verticalAlign=top;align=left;overflow=fill;fontSize=12;fontFamily=Helvetica;html=1;whiteSpace=wrap;" parent="1" vertex="1">
          <mxGeometry x="510" y="770" width="100" height="200" as="geometry" />
        </mxCell>
        <mxCell id="TFLYVqfE0xiHd43_3hXw-27" value="&lt;p style=&quot;margin:0px;margin-top:4px;text-align:center;&quot;&gt;&lt;code&gt;HistorialVuelos&lt;/code&gt;&lt;/p&gt;&lt;hr size=&quot;1&quot;&gt;&lt;p style=&quot;margin:0px;margin-left:4px;&quot;&gt;- nroVuelo: int&lt;/p&gt;&lt;p style=&quot;margin:0px;margin-left:4px;&quot;&gt;- CI&lt;/p&gt;&lt;hr size=&quot;1&quot;&gt;&lt;p style=&quot;margin:0px;margin-left:4px;&quot;&gt;+ getters()&lt;br&gt;+ setters()&lt;br&gt;&lt;/p&gt;&lt;p style=&quot;margin:0px;margin-left:4px;&quot;&gt;&lt;br&gt;&lt;/p&gt;&lt;p style=&quot;margin:0px;margin-left:4px;&quot;&gt;&lt;br&gt;&lt;/p&gt;&lt;p style=&quot;margin:0px;margin-left:4px;&quot;&gt;&lt;br&gt;&lt;/p&gt;&lt;p style=&quot;margin:0px;margin-left:4px;&quot;&gt;&lt;br&gt;&lt;/p&gt;" style="verticalAlign=top;align=left;overflow=fill;fontSize=12;fontFamily=Helvetica;html=1;whiteSpace=wrap;" parent="1" vertex="1">
          <mxGeometry x="340" y="330" width="120" height="120" as="geometry" />
        </mxCell>
        <mxCell id="TFLYVqfE0xiHd43_3hXw-28" value="&lt;p style=&quot;margin:0px;margin-top:4px;text-align:center;&quot;&gt;&lt;b&gt;VectorHistorial&lt;/b&gt;&lt;br&gt;&lt;/p&gt;&lt;hr size=&quot;1&quot;&gt;&lt;p style=&quot;margin:0px;margin-left:4px;&quot;&gt;- MAX: int&lt;/p&gt;&lt;p style=&quot;margin:0px;margin-left:4px;&quot;&gt;- v: HistorialDeVuelos[MAX]&lt;br&gt;&lt;/p&gt;&lt;hr size=&quot;1&quot;&gt;&lt;p style=&quot;margin:0px;margin-left:4px;&quot;&gt;&lt;br&gt;&lt;/p&gt;&lt;p style=&quot;margin:0px;margin-left:4px;&quot;&gt;&lt;br&gt;&lt;/p&gt;&lt;p style=&quot;margin:0px;margin-left:4px;&quot;&gt;&lt;br&gt;&lt;/p&gt;&lt;p style=&quot;margin:0px;margin-left:4px;&quot;&gt;&lt;br&gt;&lt;/p&gt;&lt;p style=&quot;margin:0px;margin-left:4px;&quot;&gt;&lt;br&gt;&lt;/p&gt;" style="verticalAlign=top;align=left;overflow=fill;fontSize=12;fontFamily=Helvetica;html=1;whiteSpace=wrap;" parent="1" vertex="1">
          <mxGeometry x="500" y="360" width="180" height="80" as="geometry" />
        </mxCell>
        <mxCell id="TFLYVqfE0xiHd43_3hXw-31" style="edgeStyle=orthogonalEdgeStyle;rounded=0;orthogonalLoop=1;jettySize=auto;html=1;entryX=0.389;entryY=1;entryDx=0;entryDy=0;entryPerimeter=0;" parent="1" source="TFLYVqfE0xiHd43_3hXw-30" target="TFLYVqfE0xiHd43_3hXw-28" edge="1">
          <mxGeometry relative="1" as="geometry">
            <Array as="points">
              <mxPoint x="700" y="400" />
              <mxPoint x="700" y="470" />
              <mxPoint x="570" y="470" />
            </Array>
          </mxGeometry>
        </mxCell>
        <mxCell id="TFLYVqfE0xiHd43_3hXw-30" value="&lt;p style=&quot;margin:0px;margin-top:4px;text-align:center;&quot;&gt;&lt;b&gt;PilaHistorial&lt;/b&gt;&lt;br&gt;&lt;/p&gt;&lt;hr size=&quot;1&quot;&gt;&lt;p style=&quot;margin:0px;margin-left:4px;&quot;&gt;- tope: int&lt;br&gt;&lt;/p&gt;&lt;hr size=&quot;1&quot;&gt;&lt;p style=&quot;margin:0px;margin-left:4px;&quot;&gt;+ Pila()&lt;br&gt;+ esVacia()&lt;br&gt;+ esLlena()&lt;br&gt;+ adi(elem)&lt;br&gt;+ eli()&lt;br&gt;+ nroElem()&lt;br&gt;+ llenar(n)&lt;br&gt;+ mostrar()&lt;br&gt;+ vaciar(p)&lt;br&gt;&lt;/p&gt;&lt;p style=&quot;margin:0px;margin-left:4px;&quot;&gt;&lt;br&gt;&lt;/p&gt;&lt;p style=&quot;margin:0px;margin-left:4px;&quot;&gt;&lt;br&gt;&lt;/p&gt;&lt;p style=&quot;margin:0px;margin-left:4px;&quot;&gt;&lt;br&gt;&lt;/p&gt;" style="verticalAlign=top;align=left;overflow=fill;fontSize=12;fontFamily=Helvetica;html=1;whiteSpace=wrap;" parent="1" vertex="1">
          <mxGeometry x="720" y="320" width="100" height="200" as="geometry" />
        </mxCell>
        <mxCell id="TFLYVqfE0xiHd43_3hXw-35" value="&lt;p style=&quot;margin:0px;margin-top:4px;text-align:center;&quot;&gt;&lt;code&gt;SolicitudDeReserva&lt;/code&gt;&lt;/p&gt;&lt;hr size=&quot;1&quot;&gt;&lt;p style=&quot;margin:0px;margin-left:4px;&quot;&gt;- CI&lt;/p&gt;&lt;p style=&quot;margin:0px;margin-left:4px;&quot;&gt;- nroSolicitud&lt;br&gt;&lt;/p&gt;&lt;p style=&quot;margin:0px;margin-left:4px;&quot;&gt;- fechaDeseada&lt;/p&gt;&lt;p style=&quot;margin:0px;margin-left:4px;&quot;&gt;- nroVuelo&lt;/p&gt;&lt;p style=&quot;margin:0px;margin-left:4px;&quot;&gt;- precio&lt;br&gt;&lt;/p&gt;&lt;hr size=&quot;1&quot;&gt;&lt;p style=&quot;margin:0px;margin-left:4px;&quot;&gt;+ getters()&lt;br&gt;+ setters()&lt;/p&gt;&lt;p style=&quot;margin:0px;margin-left:4px;&quot;&gt;+ crearNuevaReserva()&lt;br&gt;&lt;/p&gt;&lt;p style=&quot;margin:0px;margin-left:4px;&quot;&gt;&lt;br&gt;&lt;/p&gt;&lt;p style=&quot;margin:0px;margin-left:4px;&quot;&gt;&lt;br&gt;&lt;/p&gt;&lt;p style=&quot;margin:0px;margin-left:4px;&quot;&gt;&lt;br&gt;&lt;/p&gt;&lt;p style=&quot;margin:0px;margin-left:4px;&quot;&gt;&lt;br&gt;&lt;/p&gt;" style="verticalAlign=top;align=left;overflow=fill;fontSize=12;fontFamily=Helvetica;html=1;whiteSpace=wrap;" parent="1" vertex="1">
          <mxGeometry x="140" y="530" width="150" height="150" as="geometry" />
        </mxCell>
        <mxCell id="TFLYVqfE0xiHd43_3hXw-37" value="&lt;p style=&quot;margin:0px;margin-top:4px;text-align:center;&quot;&gt;&lt;b&gt;VectorSolicitudesDeReserva&lt;/b&gt;&lt;br&gt;&lt;/p&gt;&lt;hr size=&quot;1&quot;&gt;&lt;p style=&quot;margin:0px;margin-left:4px;&quot;&gt;- MAX: int&lt;/p&gt;&lt;p style=&quot;margin:0px;margin-left:4px;&quot;&gt;- v: SolicitudDeReserva[MAX]&lt;br&gt;&lt;/p&gt;&lt;hr size=&quot;1&quot;&gt;&lt;p style=&quot;margin:0px;margin-left:4px;&quot;&gt;&lt;br&gt;&lt;/p&gt;&lt;p style=&quot;margin:0px;margin-left:4px;&quot;&gt;&lt;br&gt;&lt;/p&gt;&lt;p style=&quot;margin:0px;margin-left:4px;&quot;&gt;&lt;br&gt;&lt;/p&gt;&lt;p style=&quot;margin:0px;margin-left:4px;&quot;&gt;&lt;br&gt;&lt;/p&gt;&lt;p style=&quot;margin:0px;margin-left:4px;&quot;&gt;&lt;br&gt;&lt;/p&gt;" style="verticalAlign=top;align=left;overflow=fill;fontSize=12;fontFamily=Helvetica;html=1;whiteSpace=wrap;" parent="1" vertex="1">
          <mxGeometry x="350" y="530" width="210" height="80" as="geometry" />
        </mxCell>
        <mxCell id="TFLYVqfE0xiHd43_3hXw-40" style="edgeStyle=orthogonalEdgeStyle;rounded=0;orthogonalLoop=1;jettySize=auto;html=1;entryX=0.619;entryY=1;entryDx=0;entryDy=0;entryPerimeter=0;" parent="1" source="TFLYVqfE0xiHd43_3hXw-38" target="TFLYVqfE0xiHd43_3hXw-37" edge="1">
          <mxGeometry relative="1" as="geometry" />
        </mxCell>
        <mxCell id="TFLYVqfE0xiHd43_3hXw-38" value="&lt;p style=&quot;margin:0px;margin-top:4px;text-align:center;&quot;&gt;&lt;b&gt;PilaSolicitudesDeReservas&lt;/b&gt;&lt;br&gt;&lt;/p&gt;&lt;hr size=&quot;1&quot;&gt;&lt;p style=&quot;margin:0px;margin-left:4px;&quot;&gt;- tope: int&lt;br&gt;&lt;/p&gt;&lt;hr size=&quot;1&quot;&gt;&lt;p style=&quot;margin:0px;margin-left:4px;&quot;&gt;+ Pila()&lt;br&gt;+ esVacia()&lt;br&gt;+ esLlena()&lt;br&gt;+ adi(elem)&lt;br&gt;+ eli()&lt;br&gt;+ nroElem()&lt;br&gt;+ llenar(n)&lt;br&gt;+ mostrar()&lt;br&gt;+ vaciar(p)&lt;br&gt;&lt;/p&gt;&lt;p style=&quot;margin:0px;margin-left:4px;&quot;&gt;&lt;br&gt;&lt;/p&gt;&lt;p style=&quot;margin:0px;margin-left:4px;&quot;&gt;&lt;br&gt;&lt;/p&gt;&lt;p style=&quot;margin:0px;margin-left:4px;&quot;&gt;&lt;br&gt;&lt;/p&gt;" style="verticalAlign=top;align=left;overflow=fill;fontSize=12;fontFamily=Helvetica;html=1;whiteSpace=wrap;" parent="1" vertex="1">
          <mxGeometry x="630" y="550" width="190" height="200" as="geometry" />
        </mxCell>
        <mxCell id="Pve-rLIIJil52h-UFTcM-2" value="" style="endArrow=open;html=1;endSize=12;startArrow=diamondThin;startSize=14;startFill=1;edgeStyle=orthogonalEdgeStyle;align=left;verticalAlign=bottom;rounded=0;fontSize=12;curved=1;" parent="1" edge="1">
          <mxGeometry x="-1" y="3" relative="1" as="geometry">
            <mxPoint x="320" y="810.17" as="sourcePoint" />
            <mxPoint x="250" y="810" as="targetPoint" />
          </mxGeometry>
        </mxCell>
        <mxCell id="Pve-rLIIJil52h-UFTcM-4" value="" style="endArrow=open;html=1;endSize=12;startArrow=diamondThin;startSize=14;startFill=1;edgeStyle=orthogonalEdgeStyle;align=left;verticalAlign=bottom;rounded=0;fontSize=12;curved=1;" parent="1" edge="1">
          <mxGeometry x="-1" y="3" relative="1" as="geometry">
            <mxPoint x="350" y="569.52" as="sourcePoint" />
            <mxPoint x="290" y="569.52" as="targetPoint" />
          </mxGeometry>
        </mxCell>
        <mxCell id="Pve-rLIIJil52h-UFTcM-5" value="" style="endArrow=open;html=1;endSize=12;startArrow=diamondThin;startSize=14;startFill=1;edgeStyle=orthogonalEdgeStyle;align=left;verticalAlign=bottom;rounded=0;fontSize=12;curved=1;exitX=0;exitY=0.494;exitDx=0;exitDy=0;exitPerimeter=0;entryX=1.007;entryY=0.593;entryDx=0;entryDy=0;entryPerimeter=0;" parent="1" source="TFLYVqfE0xiHd43_3hXw-28" target="TFLYVqfE0xiHd43_3hXw-27" edge="1">
          <mxGeometry x="-1" y="3" relative="1" as="geometry">
            <mxPoint x="485" y="339.52" as="sourcePoint" />
            <mxPoint x="440" y="340" as="targetPoint" />
          </mxGeometry>
        </mxCell>
        <mxCell id="Pve-rLIIJil52h-UFTcM-6" value="" style="endArrow=open;html=1;endSize=12;startArrow=diamondThin;startSize=14;startFill=1;edgeStyle=orthogonalEdgeStyle;align=left;verticalAlign=bottom;rounded=0;fontSize=12;curved=1;exitX=0.5;exitY=1;exitDx=0;exitDy=0;entryX=1;entryY=0.75;entryDx=0;entryDy=0;" parent="1" source="TFLYVqfE0xiHd43_3hXw-5" target="CKFobENchho33KOplj3c-1" edge="1">
          <mxGeometry x="-1" y="3" relative="1" as="geometry">
            <mxPoint x="250" y="199.05" as="sourcePoint" />
            <mxPoint x="305" y="210" as="targetPoint" />
          </mxGeometry>
        </mxCell>
        <mxCell id="Pve-rLIIJil52h-UFTcM-7" value="&lt;p style=&quot;margin:0px;margin-top:4px;text-align:center;&quot;&gt;&lt;b&gt;VectorRutas&lt;/b&gt;&lt;br&gt;&lt;/p&gt;&lt;hr size=&quot;1&quot;&gt;&lt;p style=&quot;margin:0px;margin-left:4px;&quot;&gt;- MAX: int&lt;/p&gt;&lt;p style=&quot;margin:0px;margin-left:4px;&quot;&gt;- v: Vuelo[MAX]&lt;br&gt;&lt;/p&gt;&lt;hr size=&quot;1&quot;&gt;&lt;p style=&quot;margin:0px;margin-left:4px;&quot;&gt;&lt;br&gt;&lt;/p&gt;&lt;p style=&quot;margin:0px;margin-left:4px;&quot;&gt;&lt;br&gt;&lt;/p&gt;&lt;p style=&quot;margin:0px;margin-left:4px;&quot;&gt;&lt;br&gt;&lt;/p&gt;&lt;p style=&quot;margin:0px;margin-left:4px;&quot;&gt;&lt;br&gt;&lt;/p&gt;&lt;p style=&quot;margin:0px;margin-left:4px;&quot;&gt;&lt;br&gt;&lt;/p&gt;" style="verticalAlign=top;align=left;overflow=fill;fontSize=12;fontFamily=Helvetica;html=1;whiteSpace=wrap;" parent="1" vertex="1">
          <mxGeometry x="120" y="50" width="110" height="80" as="geometry" />
        </mxCell>
        <mxCell id="Pve-rLIIJil52h-UFTcM-8" value="" style="endArrow=open;html=1;endSize=12;startArrow=diamondThin;startSize=14;startFill=1;edgeStyle=orthogonalEdgeStyle;align=left;verticalAlign=bottom;rounded=0;fontSize=12;curved=1;exitX=1;exitY=0.5;exitDx=0;exitDy=0;entryX=0.02;entryY=0.287;entryDx=0;entryDy=0;entryPerimeter=0;" parent="1" source="Pve-rLIIJil52h-UFTcM-7" target="TFLYVqfE0xiHd43_3hXw-9" edge="1">
          <mxGeometry x="-1" y="3" relative="1" as="geometry">
            <mxPoint x="125" y="90" as="sourcePoint" />
            <mxPoint x="185" y="89.52" as="targetPoint" />
          </mxGeometry>
        </mxCell>
        <mxCell id="MSZqmmjQ3fXWC2ADrUsP-3" style="edgeStyle=orthogonalEdgeStyle;rounded=0;orthogonalLoop=1;jettySize=auto;html=1;entryX=0.5;entryY=1;entryDx=0;entryDy=0;" parent="1" source="Pve-rLIIJil52h-UFTcM-9" target="Pve-rLIIJil52h-UFTcM-7" edge="1">
          <mxGeometry relative="1" as="geometry" />
        </mxCell>
        <mxCell id="Pve-rLIIJil52h-UFTcM-9" value="&lt;p style=&quot;margin:0px;margin-top:4px;text-align:center;&quot;&gt;&lt;b&gt;PilaRutas&lt;/b&gt;&lt;br&gt;&lt;/p&gt;&lt;hr size=&quot;1&quot;&gt;&lt;p style=&quot;margin:0px;margin-left:4px;&quot;&gt;- tope: int&lt;br&gt;&lt;/p&gt;&lt;hr size=&quot;1&quot;&gt;&lt;p style=&quot;margin:0px;margin-left:4px;&quot;&gt;+ Pila()&lt;br&gt;+ esVacia()&lt;br&gt;+ esLlena()&lt;br&gt;+ adi(elem)&lt;br&gt;+ eli()&lt;br&gt;+ nroElem()&lt;br&gt;+ llenar(n)&lt;br&gt;+ mostrar()&lt;br&gt;+ vaciar(p)&lt;br&gt;&lt;/p&gt;&lt;p style=&quot;margin:0px;margin-left:4px;&quot;&gt;&lt;br&gt;&lt;/p&gt;&lt;p style=&quot;margin:0px;margin-left:4px;&quot;&gt;&lt;br&gt;&lt;/p&gt;&lt;p style=&quot;margin:0px;margin-left:4px;&quot;&gt;&lt;br&gt;&lt;/p&gt;" style="verticalAlign=top;align=left;overflow=fill;fontSize=12;fontFamily=Helvetica;html=1;whiteSpace=wrap;" parent="1" vertex="1">
          <mxGeometry x="10" y="50" width="100" height="200" as="geometry" />
        </mxCell>
        <mxCell id="Pve-rLIIJil52h-UFTcM-11" value="" style="endArrow=none;html=1;edgeStyle=orthogonalEdgeStyle;rounded=0;fontSize=12;startSize=8;endSize=8;curved=1;exitX=1.009;exitY=0.323;exitDx=0;exitDy=0;exitPerimeter=0;" parent="1" source="TFLYVqfE0xiHd43_3hXw-9" target="CKFobENchho33KOplj3c-1" edge="1">
          <mxGeometry relative="1" as="geometry">
            <mxPoint x="320" y="109.52" as="sourcePoint" />
            <mxPoint x="380" y="109.52" as="targetPoint" />
          </mxGeometry>
        </mxCell>
        <mxCell id="Pve-rLIIJil52h-UFTcM-14" value="&lt;p style=&quot;margin:0px;margin-top:4px;text-align:center;&quot;&gt;&lt;b&gt;VectorPasajero&lt;/b&gt;&lt;br&gt;&lt;/p&gt;&lt;hr size=&quot;1&quot;&gt;&lt;p style=&quot;margin:0px;margin-left:4px;&quot;&gt;- MAX: int&lt;/p&gt;&lt;p style=&quot;margin:0px;margin-left:4px;&quot;&gt;- v: Vuelo[MAX]&lt;br&gt;&lt;/p&gt;&lt;hr size=&quot;1&quot;&gt;&lt;p style=&quot;margin:0px;margin-left:4px;&quot;&gt;&lt;br&gt;&lt;/p&gt;&lt;p style=&quot;margin:0px;margin-left:4px;&quot;&gt;&lt;br&gt;&lt;/p&gt;&lt;p style=&quot;margin:0px;margin-left:4px;&quot;&gt;&lt;br&gt;&lt;/p&gt;&lt;p style=&quot;margin:0px;margin-left:4px;&quot;&gt;&lt;br&gt;&lt;/p&gt;&lt;p style=&quot;margin:0px;margin-left:4px;&quot;&gt;&lt;br&gt;&lt;/p&gt;" style="verticalAlign=top;align=left;overflow=fill;fontSize=12;fontFamily=Helvetica;html=1;whiteSpace=wrap;" parent="1" vertex="1">
          <mxGeometry x="10" y="260" width="110" height="80" as="geometry" />
        </mxCell>
        <mxCell id="Pve-rLIIJil52h-UFTcM-15" value="" style="endArrow=open;html=1;endSize=12;startArrow=diamondThin;startSize=14;startFill=1;edgeStyle=orthogonalEdgeStyle;align=left;verticalAlign=bottom;rounded=0;fontSize=12;curved=1;entryX=0;entryY=0.25;entryDx=0;entryDy=0;exitX=1;exitY=0.5;exitDx=0;exitDy=0;" parent="1" source="Pve-rLIIJil52h-UFTcM-14" target="TFLYVqfE0xiHd43_3hXw-18" edge="1">
          <mxGeometry x="-1" y="3" relative="1" as="geometry">
            <mxPoint x="70" y="355" as="sourcePoint" />
            <mxPoint x="80" y="354.52" as="targetPoint" />
          </mxGeometry>
        </mxCell>
        <mxCell id="Pve-rLIIJil52h-UFTcM-17" value="" style="edgeStyle=none;curved=1;rounded=0;orthogonalLoop=1;jettySize=auto;html=1;fontSize=12;startSize=8;endSize=8;" parent="1" source="Pve-rLIIJil52h-UFTcM-16" target="Pve-rLIIJil52h-UFTcM-14" edge="1">
          <mxGeometry relative="1" as="geometry" />
        </mxCell>
        <mxCell id="Pve-rLIIJil52h-UFTcM-16" value="&lt;p style=&quot;margin:0px;margin-top:4px;text-align:center;&quot;&gt;&lt;b&gt;PilaPasajeros&lt;/b&gt;&lt;br&gt;&lt;/p&gt;&lt;hr size=&quot;1&quot;&gt;&lt;p style=&quot;margin:0px;margin-left:4px;&quot;&gt;- tope: int&lt;br&gt;&lt;/p&gt;&lt;hr size=&quot;1&quot;&gt;&lt;p style=&quot;margin:0px;margin-left:4px;&quot;&gt;+ Pila()&lt;br&gt;+ esVacia()&lt;br&gt;+ esLlena()&lt;br&gt;+ adi(elem)&lt;br&gt;+ eli()&lt;br&gt;+ nroElem()&lt;br&gt;+ llenar(n)&lt;br&gt;+ mostrar()&lt;br&gt;+ vaciar(p)&lt;br&gt;&lt;/p&gt;&lt;p style=&quot;margin:0px;margin-left:4px;&quot;&gt;&lt;br&gt;&lt;/p&gt;&lt;p style=&quot;margin:0px;margin-left:4px;&quot;&gt;&lt;br&gt;&lt;/p&gt;&lt;p style=&quot;margin:0px;margin-left:4px;&quot;&gt;&lt;br&gt;&lt;/p&gt;" style="verticalAlign=top;align=left;overflow=fill;fontSize=12;fontFamily=Helvetica;html=1;whiteSpace=wrap;" parent="1" vertex="1">
          <mxGeometry x="10" y="437.5" width="105" height="200" as="geometry" />
        </mxCell>
        <mxCell id="Pve-rLIIJil52h-UFTcM-19" value="" style="endArrow=none;html=1;edgeStyle=orthogonalEdgeStyle;rounded=0;fontSize=12;startSize=8;endSize=8;curved=1;exitX=1;exitY=0.25;exitDx=0;exitDy=0;entryX=-0.013;entryY=0.4;entryDx=0;entryDy=0;entryPerimeter=0;" parent="1" source="TFLYVqfE0xiHd43_3hXw-18" target="TFLYVqfE0xiHd43_3hXw-27" edge="1">
          <mxGeometry relative="1" as="geometry">
            <mxPoint x="270" y="354.52" as="sourcePoint" />
            <mxPoint x="320" y="354.52" as="targetPoint" />
          </mxGeometry>
        </mxCell>
        <mxCell id="Pve-rLIIJil52h-UFTcM-23" value="" style="endArrow=none;html=1;edgeStyle=orthogonalEdgeStyle;rounded=0;fontSize=12;startSize=8;endSize=8;curved=1;entryX=0;entryY=0.412;entryDx=0;entryDy=0;entryPerimeter=0;exitX=0.114;exitY=1.017;exitDx=0;exitDy=0;exitPerimeter=0;" parent="1" source="TFLYVqfE0xiHd43_3hXw-18" target="TFLYVqfE0xiHd43_3hXw-35" edge="1">
          <mxGeometry relative="1" as="geometry">
            <mxPoint x="80" y="600" as="sourcePoint" />
            <mxPoint x="130" y="600" as="targetPoint" />
          </mxGeometry>
        </mxCell>
        <mxCell id="Pve-rLIIJil52h-UFTcM-25" value="" style="endArrow=none;html=1;edgeStyle=orthogonalEdgeStyle;rounded=0;fontSize=12;startSize=8;endSize=8;curved=1;entryX=0.55;entryY=0;entryDx=0;entryDy=0;entryPerimeter=0;exitX=0.25;exitY=1;exitDx=0;exitDy=0;" parent="1" source="TFLYVqfE0xiHd43_3hXw-35" target="TFLYVqfE0xiHd43_3hXw-4" edge="1">
          <mxGeometry relative="1" as="geometry">
            <mxPoint x="80" y="690" as="sourcePoint" />
            <mxPoint x="118" y="779" as="targetPoint" />
          </mxGeometry>
        </mxCell>
        <mxCell id="Pve-rLIIJil52h-UFTcM-26" value="" style="endArrow=none;html=1;edgeStyle=orthogonalEdgeStyle;rounded=0;fontSize=12;startSize=8;endSize=8;curved=1;exitX=0.055;exitY=1.007;exitDx=0;exitDy=0;exitPerimeter=0;entryX=0.798;entryY=0.007;entryDx=0;entryDy=0;entryPerimeter=0;" parent="1" source="CKFobENchho33KOplj3c-1" target="TFLYVqfE0xiHd43_3hXw-35" edge="1">
          <mxGeometry relative="1" as="geometry">
            <mxPoint x="81.25" y="160.03999999999985" as="sourcePoint" />
            <mxPoint x="130" y="600.0769230769229" as="targetPoint" />
            <Array as="points">
              <mxPoint x="408" y="262" />
              <mxPoint x="330" y="262" />
              <mxPoint x="330" y="531" />
            </Array>
          </mxGeometry>
        </mxCell>
        <mxCell id="MSZqmmjQ3fXWC2ADrUsP-4" value="" style="endArrow=none;html=1;edgeStyle=orthogonalEdgeStyle;rounded=0;exitX=0.5;exitY=0;exitDx=0;exitDy=0;entryX=0.601;entryY=1.02;entryDx=0;entryDy=0;entryPerimeter=0;" parent="1" source="TFLYVqfE0xiHd43_3hXw-27" target="CKFobENchho33KOplj3c-1" edge="1">
          <mxGeometry relative="1" as="geometry">
            <mxPoint x="410" y="298.33000000000004" as="sourcePoint" />
            <mxPoint x="570" y="298.33000000000004" as="targetPoint" />
          </mxGeometry>
        </mxCell>
      </root>
    </mxGraphModel>
  </diagram>
  <diagram id="WyN2Djbus9uFnubl3FRD" name="ColaAlumnos2">
    <mxGraphModel dx="1110" dy="428" grid="1" gridSize="10" guides="1" tooltips="1" connect="1" arrows="1" fold="1" page="1" pageScale="1" pageWidth="850" pageHeight="1100" math="0" shadow="0">
      <root>
        <mxCell id="0" />
        <mxCell id="1" parent="0" />
        <mxCell id="M2RENGREFuP1YRw0PFCy-1" value="&lt;p style=&quot;margin:0px;margin-top:4px;text-align:center;&quot;&gt;&lt;b&gt;Alumno&lt;/b&gt;&lt;br&gt;&lt;/p&gt;&lt;hr size=&quot;1&quot;&gt;&lt;p style=&quot;margin:0px;margin-left:4px;&quot;&gt;- nombre&lt;/p&gt;&lt;p style=&quot;margin:0px;margin-left:4px;&quot;&gt;- materia&lt;/p&gt;&lt;p style=&quot;margin:0px;margin-left:4px;&quot;&gt;- nota&lt;br&gt;&lt;/p&gt;&lt;hr size=&quot;1&quot;&gt;&lt;p style=&quot;margin:0px;margin-left:4px;&quot;&gt;+ getters()&lt;br&gt;+ setters()&lt;br&gt;&lt;/p&gt;&lt;p style=&quot;margin:0px;margin-left:4px;&quot;&gt;&lt;br&gt;&lt;/p&gt;&lt;p style=&quot;margin:0px;margin-left:4px;&quot;&gt;&lt;br&gt;&lt;/p&gt;&lt;p style=&quot;margin:0px;margin-left:4px;&quot;&gt;&lt;br&gt;&lt;/p&gt;" style="verticalAlign=top;align=left;overflow=fill;fontSize=12;fontFamily=Helvetica;html=1;whiteSpace=wrap;" parent="1" vertex="1">
          <mxGeometry x="220" y="240" width="90" height="130" as="geometry" />
        </mxCell>
        <mxCell id="M2RENGREFuP1YRw0PFCy-2" value="&lt;p style=&quot;margin:0px;margin-top:4px;text-align:center;&quot;&gt;&lt;b&gt;VectorAlumnos&lt;/b&gt;&lt;br&gt;&lt;/p&gt;&lt;hr size=&quot;1&quot;&gt;&lt;p style=&quot;margin:0px;margin-left:4px;&quot;&gt;# max&lt;br&gt;&lt;/p&gt;&lt;p style=&quot;margin:0px;margin-left:4px;&quot;&gt;# v[max]&lt;br&gt;&lt;/p&gt;&lt;hr size=&quot;1&quot;&gt;&lt;p style=&quot;margin:0px;margin-left:4px;&quot;&gt;&lt;br&gt;&lt;/p&gt;&lt;p style=&quot;margin:0px;margin-left:4px;&quot;&gt;&lt;br&gt;&lt;/p&gt;&lt;p style=&quot;margin:0px;margin-left:4px;&quot;&gt;&lt;br&gt;&lt;/p&gt;" style="verticalAlign=top;align=left;overflow=fill;fontSize=12;fontFamily=Helvetica;html=1;whiteSpace=wrap;" parent="1" vertex="1">
          <mxGeometry x="375" y="240" width="125" height="80" as="geometry" />
        </mxCell>
        <mxCell id="nmZ-9Z5Y9PhUTztYKven-4" style="edgeStyle=orthogonalEdgeStyle;rounded=0;orthogonalLoop=1;jettySize=auto;html=1;entryX=1;entryY=0.5;entryDx=0;entryDy=0;" parent="1" source="M2RENGREFuP1YRw0PFCy-3" target="M2RENGREFuP1YRw0PFCy-2" edge="1">
          <mxGeometry relative="1" as="geometry" />
        </mxCell>
        <mxCell id="M2RENGREFuP1YRw0PFCy-3" value="&lt;p style=&quot;margin:0px;margin-top:4px;text-align:center;&quot;&gt;&lt;b&gt;ColaAlumnos&lt;/b&gt;&lt;br&gt;&lt;/p&gt;&lt;hr size=&quot;1&quot;&gt;&lt;p style=&quot;margin:0px;margin-left:4px;&quot;&gt;# fr&lt;br&gt;&lt;/p&gt;&lt;p style=&quot;margin:0px;margin-left:4px;&quot;&gt;# fi&lt;br&gt;&lt;/p&gt;&lt;hr size=&quot;1&quot;&gt;&lt;p style=&quot;margin:0px;margin-left:4px;&quot;&gt;&lt;br&gt;&lt;/p&gt;&lt;p style=&quot;margin:0px;margin-left:4px;&quot;&gt;&lt;br&gt;&lt;/p&gt;&lt;p style=&quot;margin:0px;margin-left:4px;&quot;&gt;&lt;br&gt;&lt;/p&gt;" style="verticalAlign=top;align=left;overflow=fill;fontSize=12;fontFamily=Helvetica;html=1;whiteSpace=wrap;" parent="1" vertex="1">
          <mxGeometry x="550" y="240" width="100" height="80" as="geometry" />
        </mxCell>
        <mxCell id="nmZ-9Z5Y9PhUTztYKven-5" style="edgeStyle=orthogonalEdgeStyle;rounded=0;orthogonalLoop=1;jettySize=auto;html=1;entryX=0.5;entryY=1;entryDx=0;entryDy=0;" parent="1" source="nmZ-9Z5Y9PhUTztYKven-1" target="M2RENGREFuP1YRw0PFCy-3" edge="1">
          <mxGeometry relative="1" as="geometry" />
        </mxCell>
        <mxCell id="nmZ-9Z5Y9PhUTztYKven-1" value="&lt;p style=&quot;margin:0px;margin-top:4px;text-align:center;&quot;&gt;&lt;b&gt;ColaSimpleAlumnos&lt;/b&gt;&lt;br&gt;&lt;/p&gt;&lt;hr size=&quot;1&quot;&gt;&lt;hr size=&quot;1&quot;&gt;&lt;p style=&quot;margin:0px;margin-left:4px;&quot;&gt;+ esVacia()&lt;/p&gt;&lt;p style=&quot;margin:0px;margin-left:4px;&quot;&gt;+ esLlena()&lt;/p&gt;&lt;p style=&quot;margin:0px;margin-left:4px;&quot;&gt;+ adi()&lt;/p&gt;&lt;p style=&quot;margin:0px;margin-left:4px;&quot;&gt;+ llenar(n)&lt;/p&gt;&lt;p style=&quot;margin:0px;margin-left:4px;&quot;&gt;+ mostrar()&lt;/p&gt;&lt;p style=&quot;margin:0px;margin-left:4px;&quot;&gt;+ nroElem()&lt;/p&gt;&lt;p style=&quot;margin:0px;margin-left:4px;&quot;&gt;+ vaciar(c)&lt;br&gt;&lt;/p&gt;" style="verticalAlign=top;align=left;overflow=fill;fontSize=12;fontFamily=Helvetica;html=1;whiteSpace=wrap;" parent="1" vertex="1">
          <mxGeometry x="530" y="360" width="140" height="150" as="geometry" />
        </mxCell>
        <mxCell id="nmZ-9Z5Y9PhUTztYKven-2" value="" style="endArrow=open;html=1;endSize=12;startArrow=diamondThin;startSize=14;startFill=1;edgeStyle=orthogonalEdgeStyle;align=left;verticalAlign=bottom;rounded=0;exitX=0;exitY=0.5;exitDx=0;exitDy=0;" parent="1" source="M2RENGREFuP1YRw0PFCy-2" edge="1">
          <mxGeometry x="-1" y="3" relative="1" as="geometry">
            <mxPoint x="370" y="279.72" as="sourcePoint" />
            <mxPoint x="310" y="279.72" as="targetPoint" />
          </mxGeometry>
        </mxCell>
      </root>
    </mxGraphModel>
  </diagram>
  <diagram id="rM1Qb2vFUjQn7Hu5_-9E" name="pilaDistritoPilaZona4">
    <mxGraphModel dx="634" dy="245" grid="1" gridSize="10" guides="1" tooltips="1" connect="1" arrows="1" fold="1" page="1" pageScale="1" pageWidth="850" pageHeight="1100" math="0" shadow="0">
      <root>
        <mxCell id="0" />
        <mxCell id="1" parent="0" />
        <mxCell id="9o7Q4U4dfhOraSWQT0ZL-1" value="&lt;p style=&quot;margin:0px;margin-top:4px;text-align:center;&quot;&gt;&lt;b&gt;Distrito&lt;/b&gt;&lt;br&gt;&lt;/p&gt;&lt;hr size=&quot;1&quot;&gt;&lt;div&gt;&amp;nbsp;- nroDistrito&lt;/div&gt;&lt;div&gt;&amp;nbsp;- ubicacion&lt;br&gt;&lt;/div&gt;&lt;hr size=&quot;1&quot;&gt;&lt;p style=&quot;margin:0px;margin-left:4px;&quot;&gt;+ getters()&lt;/p&gt;&lt;p style=&quot;margin:0px;margin-left:4px;&quot;&gt;+ setters()&lt;br&gt;&lt;/p&gt;" style="verticalAlign=top;align=left;overflow=fill;fontSize=12;fontFamily=Helvetica;html=1;whiteSpace=wrap;" vertex="1" parent="1">
          <mxGeometry x="90" y="380" width="90" height="110" as="geometry" />
        </mxCell>
        <mxCell id="9o7Q4U4dfhOraSWQT0ZL-2" value="&lt;p style=&quot;margin:0px;margin-top:4px;text-align:center;&quot;&gt;&lt;b&gt;VectorDistrito&lt;/b&gt;s&lt;br&gt;&lt;/p&gt;&lt;hr size=&quot;1&quot;&gt;&lt;div&gt;&amp;nbsp;# MAX&lt;br&gt;&lt;/div&gt;&lt;div&gt;&amp;nbsp;# v[MAX]&lt;br&gt;&lt;/div&gt;&lt;hr size=&quot;1&quot;&gt;" style="verticalAlign=top;align=left;overflow=fill;fontSize=12;fontFamily=Helvetica;html=1;whiteSpace=wrap;" vertex="1" parent="1">
          <mxGeometry x="230" y="380" width="120" height="80" as="geometry" />
        </mxCell>
        <mxCell id="9o7Q4U4dfhOraSWQT0ZL-3" value="" style="endArrow=open;html=1;endSize=12;startArrow=diamondThin;startSize=14;startFill=1;edgeStyle=orthogonalEdgeStyle;align=left;verticalAlign=bottom;rounded=0;" edge="1" parent="1">
          <mxGeometry x="-1" y="3" relative="1" as="geometry">
            <mxPoint x="230" y="434.71" as="sourcePoint" />
            <mxPoint x="180" y="434.71" as="targetPoint" />
          </mxGeometry>
        </mxCell>
        <mxCell id="BwPf4WzSona4VvDzey_o-2" style="edgeStyle=orthogonalEdgeStyle;rounded=0;orthogonalLoop=1;jettySize=auto;html=1;entryX=1;entryY=0.5;entryDx=0;entryDy=0;" edge="1" parent="1" source="BwPf4WzSona4VvDzey_o-1" target="9o7Q4U4dfhOraSWQT0ZL-2">
          <mxGeometry relative="1" as="geometry" />
        </mxCell>
        <mxCell id="BwPf4WzSona4VvDzey_o-1" value="&lt;p style=&quot;margin:0px;margin-top:4px;text-align:center;&quot;&gt;&lt;b&gt;PilaDistritos&lt;/b&gt;&lt;br&gt;&lt;/p&gt;&lt;hr size=&quot;1&quot;&gt;&lt;p style=&quot;margin:0px;margin-left:4px;&quot;&gt;- tope: int&lt;br&gt;&lt;/p&gt;&lt;hr size=&quot;1&quot;&gt;&lt;p style=&quot;margin:0px;margin-left:4px;&quot;&gt;+ Pila()&lt;br&gt;+ esVacia()&lt;br&gt;+ esLlena()&lt;br&gt;+ adi(elem)&lt;br&gt;+ eli()&lt;br&gt;+ nroElem()&lt;br&gt;+ llenar(n)&lt;br&gt;+ mostrar()&lt;br&gt;+ vaciar(p)&lt;br&gt;&lt;/p&gt;&lt;p style=&quot;margin:0px;margin-left:4px;&quot;&gt;&lt;br&gt;&lt;/p&gt;&lt;p style=&quot;margin:0px;margin-left:4px;&quot;&gt;&lt;br&gt;&lt;/p&gt;&lt;p style=&quot;margin:0px;margin-left:4px;&quot;&gt;&lt;br&gt;&lt;/p&gt;" style="verticalAlign=top;align=left;overflow=fill;fontSize=12;fontFamily=Helvetica;html=1;whiteSpace=wrap;" vertex="1" parent="1">
          <mxGeometry x="400" y="380" width="120" height="200" as="geometry" />
        </mxCell>
        <mxCell id="BwPf4WzSona4VvDzey_o-3" value="&lt;p style=&quot;margin:0px;margin-top:4px;text-align:center;&quot;&gt;&lt;b&gt;Zona&lt;/b&gt;&lt;br&gt;&lt;/p&gt;&lt;hr size=&quot;1&quot;&gt;&lt;div&gt;&amp;nbsp;- nroDistrito&lt;/div&gt;&lt;div&gt;&amp;nbsp;- nombre&lt;/div&gt;&lt;div&gt;&amp;nbsp;- superficie&lt;br&gt;&lt;/div&gt;&lt;hr size=&quot;1&quot;&gt;&lt;p style=&quot;margin:0px;margin-left:4px;&quot;&gt;+ getters()&lt;/p&gt;&lt;p style=&quot;margin:0px;margin-left:4px;&quot;&gt;+ setters()&lt;br&gt;&lt;/p&gt;" style="verticalAlign=top;align=left;overflow=fill;fontSize=12;fontFamily=Helvetica;html=1;whiteSpace=wrap;" vertex="1" parent="1">
          <mxGeometry x="90" y="600" width="90" height="130" as="geometry" />
        </mxCell>
        <mxCell id="BwPf4WzSona4VvDzey_o-4" value="&lt;p style=&quot;margin:0px;margin-top:4px;text-align:center;&quot;&gt;&lt;b&gt;VectorZonas&lt;/b&gt;&lt;br&gt;&lt;/p&gt;&lt;hr size=&quot;1&quot;&gt;&lt;div&gt;&amp;nbsp;# MAX&lt;br&gt;&lt;/div&gt;&lt;div&gt;&amp;nbsp;# v[MAX]&lt;br&gt;&lt;/div&gt;&lt;hr size=&quot;1&quot;&gt;" style="verticalAlign=top;align=left;overflow=fill;fontSize=12;fontFamily=Helvetica;html=1;whiteSpace=wrap;" vertex="1" parent="1">
          <mxGeometry x="230" y="600" width="120" height="80" as="geometry" />
        </mxCell>
        <mxCell id="BwPf4WzSona4VvDzey_o-5" value="" style="endArrow=open;html=1;endSize=12;startArrow=diamondThin;startSize=14;startFill=1;edgeStyle=orthogonalEdgeStyle;align=left;verticalAlign=bottom;rounded=0;" edge="1" parent="1">
          <mxGeometry x="-1" y="3" relative="1" as="geometry">
            <mxPoint x="230" y="639.5799999999999" as="sourcePoint" />
            <mxPoint x="180" y="639.5799999999999" as="targetPoint" />
          </mxGeometry>
        </mxCell>
        <mxCell id="BwPf4WzSona4VvDzey_o-7" style="edgeStyle=orthogonalEdgeStyle;rounded=0;orthogonalLoop=1;jettySize=auto;html=1;entryX=1;entryY=0.5;entryDx=0;entryDy=0;" edge="1" parent="1" source="BwPf4WzSona4VvDzey_o-6" target="BwPf4WzSona4VvDzey_o-4">
          <mxGeometry relative="1" as="geometry" />
        </mxCell>
        <mxCell id="BwPf4WzSona4VvDzey_o-6" value="&lt;p style=&quot;margin:0px;margin-top:4px;text-align:center;&quot;&gt;&lt;b&gt;PilaZonas&lt;/b&gt;&lt;br&gt;&lt;/p&gt;&lt;hr size=&quot;1&quot;&gt;&lt;p style=&quot;margin:0px;margin-left:4px;&quot;&gt;- tope: int&lt;br&gt;&lt;/p&gt;&lt;hr size=&quot;1&quot;&gt;&lt;p style=&quot;margin:0px;margin-left:4px;&quot;&gt;+ Pila()&lt;br&gt;+ esVacia()&lt;br&gt;+ esLlena()&lt;br&gt;+ adi(elem)&lt;br&gt;+ eli()&lt;br&gt;+ nroElem()&lt;br&gt;+ llenar(n)&lt;br&gt;+ mostrar()&lt;br&gt;+ vaciar(p)&lt;br&gt;&lt;/p&gt;&lt;p style=&quot;margin:0px;margin-left:4px;&quot;&gt;&lt;br&gt;&lt;/p&gt;&lt;p style=&quot;margin:0px;margin-left:4px;&quot;&gt;&lt;br&gt;&lt;/p&gt;&lt;p style=&quot;margin:0px;margin-left:4px;&quot;&gt;&lt;br&gt;&lt;/p&gt;" style="verticalAlign=top;align=left;overflow=fill;fontSize=12;fontFamily=Helvetica;html=1;whiteSpace=wrap;" vertex="1" parent="1">
          <mxGeometry x="400" y="600" width="120" height="200" as="geometry" />
        </mxCell>
        <mxCell id="TZZtKSFgAFE_QsxTa6YG-1" value="" style="endArrow=none;html=1;edgeStyle=orthogonalEdgeStyle;rounded=0;exitX=0.406;exitY=1.03;exitDx=0;exitDy=0;exitPerimeter=0;entryX=0.438;entryY=-0.016;entryDx=0;entryDy=0;entryPerimeter=0;" edge="1" parent="1" target="BwPf4WzSona4VvDzey_o-3">
          <mxGeometry relative="1" as="geometry">
            <mxPoint x="131.50999999999996" y="490.01000000000005" as="sourcePoint" />
            <mxPoint x="130.43000000000004" y="593.46" as="targetPoint" />
            <Array as="points">
              <mxPoint x="130" y="490" />
              <mxPoint x="130" y="542" />
            </Array>
          </mxGeometry>
        </mxCell>
      </root>
    </mxGraphModel>
  </diagram>
  <diagram id="NtnEYVmwq7tgct6WHvEO" name="ZonasTemperatura5">
    <mxGraphModel dx="925" dy="357" grid="1" gridSize="10" guides="1" tooltips="1" connect="1" arrows="1" fold="1" page="1" pageScale="1" pageWidth="850" pageHeight="1100" math="0" shadow="0">
      <root>
        <mxCell id="0" />
        <mxCell id="1" parent="0" />
        <mxCell id="mIyZNQLrhgSXLroWcHoY-1" value="&lt;p style=&quot;margin:0px;margin-top:4px;text-align:center;&quot;&gt;&lt;b&gt;Zona&lt;/b&gt;&lt;br&gt;&lt;/p&gt;&lt;hr size=&quot;1&quot;&gt;&lt;div&gt;&amp;nbsp;- nombreZona&lt;/div&gt;&lt;hr size=&quot;1&quot;&gt;&lt;p style=&quot;margin:0px;margin-left:4px;&quot;&gt;+ getters()&lt;/p&gt;&lt;p style=&quot;margin:0px;margin-left:4px;&quot;&gt;+ setters()&lt;br&gt;&lt;/p&gt;" style="verticalAlign=top;align=left;overflow=fill;fontSize=12;fontFamily=Helvetica;html=1;whiteSpace=wrap;" vertex="1" parent="1">
          <mxGeometry x="80" y="400" width="100" height="100" as="geometry" />
        </mxCell>
        <mxCell id="rL0tJ1NZsncgGrkP9tDG-1" value="&lt;p style=&quot;margin:0px;margin-top:4px;text-align:center;&quot;&gt;&lt;b&gt;VectorZonas&lt;/b&gt;&lt;br&gt;&lt;/p&gt;&lt;hr size=&quot;1&quot;&gt;&lt;div&gt;&amp;nbsp;# MAX&lt;br&gt;&lt;/div&gt;&lt;div&gt;&amp;nbsp;#v[MAX]&lt;br&gt;&lt;/div&gt;&lt;hr size=&quot;1&quot;&gt;" style="verticalAlign=top;align=left;overflow=fill;fontSize=12;fontFamily=Helvetica;html=1;whiteSpace=wrap;" vertex="1" parent="1">
          <mxGeometry x="240" y="400" width="100" height="80" as="geometry" />
        </mxCell>
        <mxCell id="rL0tJ1NZsncgGrkP9tDG-2" value="" style="endArrow=open;html=1;endSize=12;startArrow=diamondThin;startSize=14;startFill=1;edgeStyle=orthogonalEdgeStyle;align=left;verticalAlign=bottom;rounded=0;" edge="1" parent="1">
          <mxGeometry x="-1" y="3" relative="1" as="geometry">
            <mxPoint x="240" y="450" as="sourcePoint" />
            <mxPoint x="180" y="450" as="targetPoint" />
          </mxGeometry>
        </mxCell>
        <mxCell id="rL0tJ1NZsncgGrkP9tDG-5" style="edgeStyle=orthogonalEdgeStyle;rounded=0;orthogonalLoop=1;jettySize=auto;html=1;" edge="1" parent="1" source="rL0tJ1NZsncgGrkP9tDG-3" target="rL0tJ1NZsncgGrkP9tDG-1">
          <mxGeometry relative="1" as="geometry" />
        </mxCell>
        <mxCell id="rL0tJ1NZsncgGrkP9tDG-3" value="&lt;p style=&quot;margin:0px;margin-top:4px;text-align:center;&quot;&gt;&lt;b&gt;ColaZonas&lt;/b&gt;&lt;br&gt;&lt;/p&gt;&lt;hr size=&quot;1&quot;&gt;&lt;div&gt;&amp;nbsp;# MAX&lt;br&gt;&lt;/div&gt;&lt;div&gt;&amp;nbsp;# v[MAX]&lt;br&gt;&lt;/div&gt;&lt;hr size=&quot;1&quot;&gt;" style="verticalAlign=top;align=left;overflow=fill;fontSize=12;fontFamily=Helvetica;html=1;whiteSpace=wrap;" vertex="1" parent="1">
          <mxGeometry x="390" y="400" width="100" height="80" as="geometry" />
        </mxCell>
        <mxCell id="CQ04ym9BGoxks_yHOn2J-1" value="&lt;p style=&quot;margin:0px;margin-top:4px;text-align:center;&quot;&gt;&lt;b&gt;ColaSimpleZonas&lt;/b&gt;&lt;br&gt;&lt;/p&gt;&lt;hr size=&quot;1&quot;&gt;&lt;hr size=&quot;1&quot;&gt;&lt;p style=&quot;margin:0px;margin-left:4px;&quot;&gt;+ esVacia()&lt;/p&gt;&lt;p style=&quot;margin:0px;margin-left:4px;&quot;&gt;+ esLlena()&lt;/p&gt;&lt;p style=&quot;margin:0px;margin-left:4px;&quot;&gt;+ adi()&lt;/p&gt;&lt;p style=&quot;margin:0px;margin-left:4px;&quot;&gt;+ llenar(n)&lt;/p&gt;&lt;p style=&quot;margin:0px;margin-left:4px;&quot;&gt;+ mostrar()&lt;/p&gt;&lt;p style=&quot;margin:0px;margin-left:4px;&quot;&gt;+ nroElem()&lt;/p&gt;&lt;p style=&quot;margin:0px;margin-left:4px;&quot;&gt;+ vaciar(c)&lt;br&gt;&lt;/p&gt;" style="verticalAlign=top;align=left;overflow=fill;fontSize=12;fontFamily=Helvetica;html=1;whiteSpace=wrap;" vertex="1" parent="1">
          <mxGeometry x="530" y="400" width="140" height="150" as="geometry" />
        </mxCell>
        <mxCell id="CQ04ym9BGoxks_yHOn2J-2" style="edgeStyle=orthogonalEdgeStyle;rounded=0;orthogonalLoop=1;jettySize=auto;html=1;entryX=1.04;entryY=0.552;entryDx=0;entryDy=0;entryPerimeter=0;" edge="1" parent="1" source="CQ04ym9BGoxks_yHOn2J-1" target="rL0tJ1NZsncgGrkP9tDG-3">
          <mxGeometry relative="1" as="geometry" />
        </mxCell>
        <mxCell id="edT4bCa04QNKQGX6JJgN-1" value="&lt;p style=&quot;margin:0px;margin-top:4px;text-align:center;&quot;&gt;&lt;b&gt;Temperatura&lt;/b&gt;&lt;br&gt;&lt;/p&gt;&lt;hr size=&quot;1&quot;&gt;&lt;div&gt;&amp;nbsp;- nombreZona&lt;/div&gt;&lt;div&gt;&amp;nbsp;- dia&lt;/div&gt;&lt;div&gt;&amp;nbsp;- temperatura&lt;/div&gt;&lt;div&gt;&amp;nbsp;- precipitacion&lt;br&gt;&lt;/div&gt;&lt;hr size=&quot;1&quot;&gt;&lt;p style=&quot;margin:0px;margin-left:4px;&quot;&gt;+ getters()&lt;/p&gt;&lt;p style=&quot;margin:0px;margin-left:4px;&quot;&gt;+ setters()&lt;br&gt;&lt;/p&gt;" style="verticalAlign=top;align=left;overflow=fill;fontSize=12;fontFamily=Helvetica;html=1;whiteSpace=wrap;" vertex="1" parent="1">
          <mxGeometry x="70" y="580" width="120" height="140" as="geometry" />
        </mxCell>
        <mxCell id="edT4bCa04QNKQGX6JJgN-2" value="&lt;p style=&quot;margin:0px;margin-top:4px;text-align:center;&quot;&gt;&lt;b&gt;VectorTemperatura&lt;/b&gt;&lt;br&gt;&lt;/p&gt;&lt;hr size=&quot;1&quot;&gt;&lt;div&gt;&amp;nbsp;# MAX&lt;br&gt;&lt;/div&gt;&lt;div&gt;&amp;nbsp;#v[MAX]&lt;br&gt;&lt;/div&gt;&lt;hr size=&quot;1&quot;&gt;" style="verticalAlign=top;align=left;overflow=fill;fontSize=12;fontFamily=Helvetica;html=1;whiteSpace=wrap;" vertex="1" parent="1">
          <mxGeometry x="250" y="580" width="150" height="80" as="geometry" />
        </mxCell>
        <mxCell id="qMZhwONpOCdvUqv-86jR-2" style="edgeStyle=orthogonalEdgeStyle;rounded=0;orthogonalLoop=1;jettySize=auto;html=1;entryX=1;entryY=0.5;entryDx=0;entryDy=0;" edge="1" parent="1" source="qMZhwONpOCdvUqv-86jR-1" target="edT4bCa04QNKQGX6JJgN-2">
          <mxGeometry relative="1" as="geometry" />
        </mxCell>
        <mxCell id="qMZhwONpOCdvUqv-86jR-1" value="&lt;p style=&quot;margin:0px;margin-top:4px;text-align:center;&quot;&gt;&lt;b&gt;PilaTemperatura&lt;/b&gt;&lt;br&gt;&lt;/p&gt;&lt;hr size=&quot;1&quot;&gt;&lt;p style=&quot;margin:0px;margin-left:4px;&quot;&gt;- tope: int&lt;br&gt;&lt;/p&gt;&lt;hr size=&quot;1&quot;&gt;&lt;p style=&quot;margin:0px;margin-left:4px;&quot;&gt;+ Pila()&lt;br&gt;+ esVacia()&lt;br&gt;+ esLlena()&lt;br&gt;+ adi(elem)&lt;br&gt;+ eli()&lt;br&gt;+ nroElem()&lt;br&gt;+ llenar(n)&lt;br&gt;+ mostrar()&lt;br&gt;+ vaciar(p)&lt;br&gt;&lt;/p&gt;&lt;p style=&quot;margin:0px;margin-left:4px;&quot;&gt;&lt;br&gt;&lt;/p&gt;&lt;p style=&quot;margin:0px;margin-left:4px;&quot;&gt;&lt;br&gt;&lt;/p&gt;&lt;p style=&quot;margin:0px;margin-left:4px;&quot;&gt;&lt;br&gt;&lt;/p&gt;" style="verticalAlign=top;align=left;overflow=fill;fontSize=12;fontFamily=Helvetica;html=1;whiteSpace=wrap;" vertex="1" parent="1">
          <mxGeometry x="440" y="580" width="130" height="200" as="geometry" />
        </mxCell>
        <mxCell id="qMZhwONpOCdvUqv-86jR-3" value="" style="endArrow=open;html=1;endSize=12;startArrow=diamondThin;startSize=14;startFill=1;edgeStyle=orthogonalEdgeStyle;align=left;verticalAlign=bottom;rounded=0;" edge="1" parent="1">
          <mxGeometry x="-1" y="3" relative="1" as="geometry">
            <mxPoint x="250" y="619.71" as="sourcePoint" />
            <mxPoint x="190" y="619.71" as="targetPoint" />
          </mxGeometry>
        </mxCell>
        <mxCell id="pXzgnP7xAdWqe23BSz8e-2" value="&lt;p style=&quot;margin:0px;margin-top:4px;text-align:center;&quot;&gt;&lt;b&gt;Mp_Pila&lt;/b&gt;Temperatura&lt;br&gt;&lt;/p&gt;&lt;hr size=&quot;1&quot;&gt;&lt;div&gt;&amp;nbsp;- n&lt;/div&gt;&lt;div&gt;&amp;nbsp;- c[100]&lt;br&gt;&lt;/div&gt;&lt;hr size=&quot;1&quot;&gt;+ nroElem(i)&lt;br&gt;+ esVacia(i)&lt;br&gt;+ esLlena(i)&lt;br&gt;+ adicionar(i,e)&lt;br&gt;+ eliminar(i)&lt;br&gt;+ llenar(n)&lt;br&gt;+ llenar(i,n)&lt;br&gt;+ mostrar()&lt;br&gt;+ mostrar(i)&lt;br&gt;+ vaciar(i,z)&lt;br&gt;+ vaciar(i,j)&lt;br&gt;+ getN(" style="verticalAlign=top;align=left;overflow=fill;fontSize=12;fontFamily=Helvetica;html=1;whiteSpace=wrap;" vertex="1" parent="1">
          <mxGeometry x="630" y="580" width="150" height="250" as="geometry" />
        </mxCell>
        <mxCell id="pXzgnP7xAdWqe23BSz8e-3" value="" style="endArrow=open;html=1;endSize=12;startArrow=diamondThin;startSize=14;startFill=1;edgeStyle=orthogonalEdgeStyle;align=left;verticalAlign=bottom;rounded=0;" edge="1" parent="1">
          <mxGeometry x="-1" y="3" relative="1" as="geometry">
            <mxPoint x="630" y="670" as="sourcePoint" />
            <mxPoint x="570" y="670" as="targetPoint" />
            <Array as="points">
              <mxPoint x="600" y="670" />
              <mxPoint x="600" y="670" />
            </Array>
          </mxGeometry>
        </mxCell>
        <mxCell id="pXzgnP7xAdWqe23BSz8e-6" value="" style="endArrow=none;html=1;edgeStyle=orthogonalEdgeStyle;rounded=0;exitX=0.39;exitY=1.03;exitDx=0;exitDy=0;exitPerimeter=0;entryX=0.442;entryY=0.021;entryDx=0;entryDy=0;entryPerimeter=0;" edge="1" parent="1">
          <mxGeometry relative="1" as="geometry">
            <mxPoint x="119.00000000000011" y="500.06" as="sourcePoint" />
            <mxPoint x="123.04000000000008" y="580" as="targetPoint" />
            <Array as="points">
              <mxPoint x="120" y="500.06" />
              <mxPoint x="120" y="580.06" />
            </Array>
          </mxGeometry>
        </mxCell>
      </root>
    </mxGraphModel>
  </diagram>
  <diagram id="0I6aUhUrvcm7HX16H8Ij" name="Page-5">
    <mxGraphModel dx="1184" dy="1688" grid="1" gridSize="10" guides="1" tooltips="1" connect="1" arrows="1" fold="1" page="1" pageScale="1" pageWidth="850" pageHeight="1100" math="0" shadow="0">
      <root>
        <mxCell id="0" />
        <mxCell id="1" parent="0" />
        <mxCell id="ESq09RiyBV9eqQZFw_kv-1" value="NodoNota" style="swimlane;fontStyle=1;align=center;verticalAlign=top;childLayout=stackLayout;horizontal=1;startSize=26;horizontalStack=0;resizeParent=1;resizeParentMax=0;resizeLast=0;collapsible=1;marginBottom=0;whiteSpace=wrap;html=1;" parent="1" vertex="1">
          <mxGeometry x="620" y="470" width="160" height="120" as="geometry" />
        </mxCell>
        <mxCell id="ESq09RiyBV9eqQZFw_kv-2" value="- descrip &lt;br&gt;- nota &lt;br&gt;" style="text;strokeColor=none;fillColor=none;align=left;verticalAlign=top;spacingLeft=4;spacingRight=4;overflow=hidden;rotatable=0;points=[[0,0.5],[1,0.5]];portConstraint=eastwest;whiteSpace=wrap;html=1;" parent="ESq09RiyBV9eqQZFw_kv-1" vertex="1">
          <mxGeometry y="26" width="160" height="44" as="geometry" />
        </mxCell>
        <mxCell id="ESq09RiyBV9eqQZFw_kv-3" value="" style="line;strokeWidth=1;fillColor=none;align=left;verticalAlign=middle;spacingTop=-1;spacingLeft=3;spacingRight=3;rotatable=0;labelPosition=right;points=[];portConstraint=eastwest;strokeColor=inherit;" parent="ESq09RiyBV9eqQZFw_kv-1" vertex="1">
          <mxGeometry y="70" width="160" height="10" as="geometry" />
        </mxCell>
        <mxCell id="ESq09RiyBV9eqQZFw_kv-4" value="+ getters and seters" style="text;strokeColor=none;fillColor=none;align=left;verticalAlign=top;spacingLeft=4;spacingRight=4;overflow=hidden;rotatable=0;points=[[0,0.5],[1,0.5]];portConstraint=eastwest;whiteSpace=wrap;html=1;" parent="ESq09RiyBV9eqQZFw_kv-1" vertex="1">
          <mxGeometry y="80" width="160" height="40" as="geometry" />
        </mxCell>
        <mxCell id="ESq09RiyBV9eqQZFw_kv-5" value="ListaSimpleNotas" style="swimlane;fontStyle=1;align=center;verticalAlign=top;childLayout=stackLayout;horizontal=1;startSize=26;horizontalStack=0;resizeParent=1;resizeParentMax=0;resizeLast=0;collapsible=1;marginBottom=0;whiteSpace=wrap;html=1;" parent="1" vertex="1">
          <mxGeometry x="410" y="470" width="160" height="110" as="geometry" />
        </mxCell>
        <mxCell id="ESq09RiyBV9eqQZFw_kv-6" value="- P" style="text;strokeColor=none;fillColor=none;align=left;verticalAlign=top;spacingLeft=4;spacingRight=4;overflow=hidden;rotatable=0;points=[[0,0.5],[1,0.5]];portConstraint=eastwest;whiteSpace=wrap;html=1;" parent="ESq09RiyBV9eqQZFw_kv-5" vertex="1">
          <mxGeometry y="26" width="160" height="26" as="geometry" />
        </mxCell>
        <mxCell id="ESq09RiyBV9eqQZFw_kv-7" value="" style="line;strokeWidth=1;fillColor=none;align=left;verticalAlign=middle;spacingTop=-1;spacingLeft=3;spacingRight=3;rotatable=0;labelPosition=right;points=[];portConstraint=eastwest;strokeColor=inherit;" parent="ESq09RiyBV9eqQZFw_kv-5" vertex="1">
          <mxGeometry y="52" width="160" height="8" as="geometry" />
        </mxCell>
        <mxCell id="ESq09RiyBV9eqQZFw_kv-8" value="+ getterss..&lt;br&gt;+ ListaSimpleNotas()" style="text;strokeColor=none;fillColor=none;align=left;verticalAlign=top;spacingLeft=4;spacingRight=4;overflow=hidden;rotatable=0;points=[[0,0.5],[1,0.5]];portConstraint=eastwest;whiteSpace=wrap;html=1;" parent="ESq09RiyBV9eqQZFw_kv-5" vertex="1">
          <mxGeometry y="60" width="160" height="50" as="geometry" />
        </mxCell>
        <mxCell id="ESq09RiyBV9eqQZFw_kv-14" value="" style="endArrow=none;html=1;edgeStyle=orthogonalEdgeStyle;rounded=0;exitX=1;exitY=0.5;exitDx=0;exitDy=0;entryX=-0.025;entryY=0.05;entryDx=0;entryDy=0;entryPerimeter=0;" parent="1" source="ESq09RiyBV9eqQZFw_kv-8" target="ESq09RiyBV9eqQZFw_kv-4" edge="1">
          <mxGeometry relative="1" as="geometry">
            <mxPoint x="320" y="630" as="sourcePoint" />
            <mxPoint x="480" y="630" as="targetPoint" />
          </mxGeometry>
        </mxCell>
        <mxCell id="ESq09RiyBV9eqQZFw_kv-15" value="parent" style="edgeLabel;resizable=0;html=1;align=left;verticalAlign=bottom;" parent="ESq09RiyBV9eqQZFw_kv-14" connectable="0" vertex="1">
          <mxGeometry x="-1" relative="1" as="geometry" />
        </mxCell>
        <mxCell id="ESq09RiyBV9eqQZFw_kv-16" value="child" style="edgeLabel;resizable=0;html=1;align=right;verticalAlign=bottom;" parent="ESq09RiyBV9eqQZFw_kv-14" connectable="0" vertex="1">
          <mxGeometry x="1" relative="1" as="geometry" />
        </mxCell>
        <mxCell id="ESq09RiyBV9eqQZFw_kv-17" value="LS_NormalNotas" style="swimlane;fontStyle=1;align=center;verticalAlign=top;childLayout=stackLayout;horizontal=1;startSize=26;horizontalStack=0;resizeParent=1;resizeParentMax=0;resizeLast=0;collapsible=1;marginBottom=0;whiteSpace=wrap;html=1;" parent="1" vertex="1">
          <mxGeometry x="190" y="470" width="160" height="86" as="geometry" />
        </mxCell>
        <mxCell id="ESq09RiyBV9eqQZFw_kv-18" value="- P" style="text;strokeColor=none;fillColor=none;align=left;verticalAlign=top;spacingLeft=4;spacingRight=4;overflow=hidden;rotatable=0;points=[[0,0.5],[1,0.5]];portConstraint=eastwest;whiteSpace=wrap;html=1;" parent="ESq09RiyBV9eqQZFw_kv-17" vertex="1">
          <mxGeometry y="26" width="160" height="26" as="geometry" />
        </mxCell>
        <mxCell id="ESq09RiyBV9eqQZFw_kv-19" value="" style="line;strokeWidth=1;fillColor=none;align=left;verticalAlign=middle;spacingTop=-1;spacingLeft=3;spacingRight=3;rotatable=0;labelPosition=right;points=[];portConstraint=eastwest;strokeColor=inherit;" parent="ESq09RiyBV9eqQZFw_kv-17" vertex="1">
          <mxGeometry y="52" width="160" height="8" as="geometry" />
        </mxCell>
        <mxCell id="ESq09RiyBV9eqQZFw_kv-20" value="+ method(type): type" style="text;strokeColor=none;fillColor=none;align=left;verticalAlign=top;spacingLeft=4;spacingRight=4;overflow=hidden;rotatable=0;points=[[0,0.5],[1,0.5]];portConstraint=eastwest;whiteSpace=wrap;html=1;" parent="ESq09RiyBV9eqQZFw_kv-17" vertex="1">
          <mxGeometry y="60" width="160" height="26" as="geometry" />
        </mxCell>
        <mxCell id="ESq09RiyBV9eqQZFw_kv-21" value="" style="endArrow=none;html=1;edgeStyle=orthogonalEdgeStyle;rounded=0;exitX=1.013;exitY=0.154;exitDx=0;exitDy=0;exitPerimeter=0;entryX=-0.012;entryY=0.06;entryDx=0;entryDy=0;entryPerimeter=0;" parent="1" source="ESq09RiyBV9eqQZFw_kv-20" target="ESq09RiyBV9eqQZFw_kv-8" edge="1">
          <mxGeometry relative="1" as="geometry">
            <mxPoint x="280" y="650" as="sourcePoint" />
            <mxPoint x="440" y="650" as="targetPoint" />
          </mxGeometry>
        </mxCell>
        <mxCell id="ESq09RiyBV9eqQZFw_kv-22" value="parent" style="edgeLabel;resizable=0;html=1;align=left;verticalAlign=bottom;" parent="ESq09RiyBV9eqQZFw_kv-21" connectable="0" vertex="1">
          <mxGeometry x="-1" relative="1" as="geometry" />
        </mxCell>
        <mxCell id="ESq09RiyBV9eqQZFw_kv-23" value="child" style="edgeLabel;resizable=0;html=1;align=right;verticalAlign=bottom;" parent="ESq09RiyBV9eqQZFw_kv-21" connectable="0" vertex="1">
          <mxGeometry x="1" relative="1" as="geometry" />
        </mxCell>
        <mxCell id="ESq09RiyBV9eqQZFw_kv-38" value="NodoAlumno" style="swimlane;fontStyle=1;align=center;verticalAlign=top;childLayout=stackLayout;horizontal=1;startSize=26;horizontalStack=0;resizeParent=1;resizeParentMax=0;resizeLast=0;collapsible=1;marginBottom=0;whiteSpace=wrap;html=1;" parent="1" vertex="1">
          <mxGeometry x="460" y="250" width="160" height="120" as="geometry" />
        </mxCell>
        <mxCell id="ESq09RiyBV9eqQZFw_kv-39" value="- NodoEstudiante&lt;br&gt;- LS_NormalNotas" style="text;strokeColor=none;fillColor=none;align=left;verticalAlign=top;spacingLeft=4;spacingRight=4;overflow=hidden;rotatable=0;points=[[0,0.5],[1,0.5]];portConstraint=eastwest;whiteSpace=wrap;html=1;" parent="ESq09RiyBV9eqQZFw_kv-38" vertex="1">
          <mxGeometry y="26" width="160" height="44" as="geometry" />
        </mxCell>
        <mxCell id="ESq09RiyBV9eqQZFw_kv-40" value="" style="line;strokeWidth=1;fillColor=none;align=left;verticalAlign=middle;spacingTop=-1;spacingLeft=3;spacingRight=3;rotatable=0;labelPosition=right;points=[];portConstraint=eastwest;strokeColor=inherit;" parent="ESq09RiyBV9eqQZFw_kv-38" vertex="1">
          <mxGeometry y="70" width="160" height="10" as="geometry" />
        </mxCell>
        <mxCell id="ESq09RiyBV9eqQZFw_kv-41" value="+ getters and seters" style="text;strokeColor=none;fillColor=none;align=left;verticalAlign=top;spacingLeft=4;spacingRight=4;overflow=hidden;rotatable=0;points=[[0,0.5],[1,0.5]];portConstraint=eastwest;whiteSpace=wrap;html=1;" parent="ESq09RiyBV9eqQZFw_kv-38" vertex="1">
          <mxGeometry y="80" width="160" height="40" as="geometry" />
        </mxCell>
        <mxCell id="ESq09RiyBV9eqQZFw_kv-42" value="ListaSimpleAlumno" style="swimlane;fontStyle=1;align=center;verticalAlign=top;childLayout=stackLayout;horizontal=1;startSize=26;horizontalStack=0;resizeParent=1;resizeParentMax=0;resizeLast=0;collapsible=1;marginBottom=0;whiteSpace=wrap;html=1;" parent="1" vertex="1">
          <mxGeometry x="250" y="250" width="160" height="110" as="geometry" />
        </mxCell>
        <mxCell id="ESq09RiyBV9eqQZFw_kv-43" value="- P" style="text;strokeColor=none;fillColor=none;align=left;verticalAlign=top;spacingLeft=4;spacingRight=4;overflow=hidden;rotatable=0;points=[[0,0.5],[1,0.5]];portConstraint=eastwest;whiteSpace=wrap;html=1;" parent="ESq09RiyBV9eqQZFw_kv-42" vertex="1">
          <mxGeometry y="26" width="160" height="26" as="geometry" />
        </mxCell>
        <mxCell id="ESq09RiyBV9eqQZFw_kv-44" value="" style="line;strokeWidth=1;fillColor=none;align=left;verticalAlign=middle;spacingTop=-1;spacingLeft=3;spacingRight=3;rotatable=0;labelPosition=right;points=[];portConstraint=eastwest;strokeColor=inherit;" parent="ESq09RiyBV9eqQZFw_kv-42" vertex="1">
          <mxGeometry y="52" width="160" height="8" as="geometry" />
        </mxCell>
        <mxCell id="ESq09RiyBV9eqQZFw_kv-45" value="+ getterss..&lt;br&gt;+ ListaSimpleNotas()" style="text;strokeColor=none;fillColor=none;align=left;verticalAlign=top;spacingLeft=4;spacingRight=4;overflow=hidden;rotatable=0;points=[[0,0.5],[1,0.5]];portConstraint=eastwest;whiteSpace=wrap;html=1;" parent="ESq09RiyBV9eqQZFw_kv-42" vertex="1">
          <mxGeometry y="60" width="160" height="50" as="geometry" />
        </mxCell>
        <mxCell id="ESq09RiyBV9eqQZFw_kv-46" value="" style="endArrow=none;html=1;edgeStyle=orthogonalEdgeStyle;rounded=0;exitX=1;exitY=0.5;exitDx=0;exitDy=0;entryX=-0.025;entryY=0.05;entryDx=0;entryDy=0;entryPerimeter=0;" parent="1" source="ESq09RiyBV9eqQZFw_kv-45" target="ESq09RiyBV9eqQZFw_kv-41" edge="1">
          <mxGeometry relative="1" as="geometry">
            <mxPoint x="160" y="410" as="sourcePoint" />
            <mxPoint x="320" y="410" as="targetPoint" />
          </mxGeometry>
        </mxCell>
        <mxCell id="ESq09RiyBV9eqQZFw_kv-47" value="parent" style="edgeLabel;resizable=0;html=1;align=left;verticalAlign=bottom;" parent="ESq09RiyBV9eqQZFw_kv-46" connectable="0" vertex="1">
          <mxGeometry x="-1" relative="1" as="geometry" />
        </mxCell>
        <mxCell id="ESq09RiyBV9eqQZFw_kv-48" value="child" style="edgeLabel;resizable=0;html=1;align=right;verticalAlign=bottom;" parent="ESq09RiyBV9eqQZFw_kv-46" connectable="0" vertex="1">
          <mxGeometry x="1" relative="1" as="geometry" />
        </mxCell>
        <mxCell id="ESq09RiyBV9eqQZFw_kv-49" value="LS_NormalEstudiantes" style="swimlane;fontStyle=1;align=center;verticalAlign=top;childLayout=stackLayout;horizontal=1;startSize=26;horizontalStack=0;resizeParent=1;resizeParentMax=0;resizeLast=0;collapsible=1;marginBottom=0;whiteSpace=wrap;html=1;" parent="1" vertex="1">
          <mxGeometry x="30" y="250" width="160" height="86" as="geometry" />
        </mxCell>
        <mxCell id="ESq09RiyBV9eqQZFw_kv-50" value="- P" style="text;strokeColor=none;fillColor=none;align=left;verticalAlign=top;spacingLeft=4;spacingRight=4;overflow=hidden;rotatable=0;points=[[0,0.5],[1,0.5]];portConstraint=eastwest;whiteSpace=wrap;html=1;" parent="ESq09RiyBV9eqQZFw_kv-49" vertex="1">
          <mxGeometry y="26" width="160" height="26" as="geometry" />
        </mxCell>
        <mxCell id="ESq09RiyBV9eqQZFw_kv-51" value="" style="line;strokeWidth=1;fillColor=none;align=left;verticalAlign=middle;spacingTop=-1;spacingLeft=3;spacingRight=3;rotatable=0;labelPosition=right;points=[];portConstraint=eastwest;strokeColor=inherit;" parent="ESq09RiyBV9eqQZFw_kv-49" vertex="1">
          <mxGeometry y="52" width="160" height="8" as="geometry" />
        </mxCell>
        <mxCell id="ESq09RiyBV9eqQZFw_kv-52" value="+ method(type): type" style="text;strokeColor=none;fillColor=none;align=left;verticalAlign=top;spacingLeft=4;spacingRight=4;overflow=hidden;rotatable=0;points=[[0,0.5],[1,0.5]];portConstraint=eastwest;whiteSpace=wrap;html=1;" parent="ESq09RiyBV9eqQZFw_kv-49" vertex="1">
          <mxGeometry y="60" width="160" height="26" as="geometry" />
        </mxCell>
        <mxCell id="ESq09RiyBV9eqQZFw_kv-53" value="" style="endArrow=none;html=1;edgeStyle=orthogonalEdgeStyle;rounded=0;exitX=1.013;exitY=0.154;exitDx=0;exitDy=0;exitPerimeter=0;entryX=-0.012;entryY=0.06;entryDx=0;entryDy=0;entryPerimeter=0;" parent="1" source="ESq09RiyBV9eqQZFw_kv-52" target="ESq09RiyBV9eqQZFw_kv-45" edge="1">
          <mxGeometry relative="1" as="geometry">
            <mxPoint x="120" y="430" as="sourcePoint" />
            <mxPoint x="280" y="430" as="targetPoint" />
          </mxGeometry>
        </mxCell>
        <mxCell id="ESq09RiyBV9eqQZFw_kv-54" value="parent" style="edgeLabel;resizable=0;html=1;align=left;verticalAlign=bottom;" parent="ESq09RiyBV9eqQZFw_kv-53" connectable="0" vertex="1">
          <mxGeometry x="-1" relative="1" as="geometry" />
        </mxCell>
        <mxCell id="ESq09RiyBV9eqQZFw_kv-55" value="child" style="edgeLabel;resizable=0;html=1;align=right;verticalAlign=bottom;" parent="ESq09RiyBV9eqQZFw_kv-53" connectable="0" vertex="1">
          <mxGeometry x="1" relative="1" as="geometry" />
        </mxCell>
        <mxCell id="ESq09RiyBV9eqQZFw_kv-57" value="" style="endArrow=none;html=1;edgeStyle=orthogonalEdgeStyle;rounded=0;exitX=0.444;exitY=0;exitDx=0;exitDy=0;exitPerimeter=0;entryX=0.463;entryY=1;entryDx=0;entryDy=0;entryPerimeter=0;" parent="1" source="ESq09RiyBV9eqQZFw_kv-17" target="ESq09RiyBV9eqQZFw_kv-41" edge="1">
          <mxGeometry relative="1" as="geometry">
            <mxPoint x="420" y="370" as="sourcePoint" />
            <mxPoint x="580" y="370" as="targetPoint" />
          </mxGeometry>
        </mxCell>
        <mxCell id="ESq09RiyBV9eqQZFw_kv-58" value="parent" style="edgeLabel;resizable=0;html=1;align=left;verticalAlign=bottom;" parent="ESq09RiyBV9eqQZFw_kv-57" connectable="0" vertex="1">
          <mxGeometry x="-1" relative="1" as="geometry" />
        </mxCell>
        <mxCell id="ESq09RiyBV9eqQZFw_kv-59" value="child" style="edgeLabel;resizable=0;html=1;align=right;verticalAlign=bottom;" parent="ESq09RiyBV9eqQZFw_kv-57" connectable="0" vertex="1">
          <mxGeometry x="1" relative="1" as="geometry" />
        </mxCell>
        <mxCell id="ESq09RiyBV9eqQZFw_kv-60" value="Estudiante" style="swimlane;fontStyle=1;align=center;verticalAlign=top;childLayout=stackLayout;horizontal=1;startSize=26;horizontalStack=0;resizeParent=1;resizeParentMax=0;resizeLast=0;collapsible=1;marginBottom=0;whiteSpace=wrap;html=1;" parent="1" vertex="1">
          <mxGeometry x="670" y="260" width="160" height="130" as="geometry" />
        </mxCell>
        <mxCell id="ESq09RiyBV9eqQZFw_kv-61" value="- paterno&lt;br&gt;- materno&lt;br&gt;- nombres" style="text;strokeColor=none;fillColor=none;align=left;verticalAlign=top;spacingLeft=4;spacingRight=4;overflow=hidden;rotatable=0;points=[[0,0.5],[1,0.5]];portConstraint=eastwest;whiteSpace=wrap;html=1;" parent="ESq09RiyBV9eqQZFw_kv-60" vertex="1">
          <mxGeometry y="26" width="160" height="54" as="geometry" />
        </mxCell>
        <mxCell id="ESq09RiyBV9eqQZFw_kv-62" value="" style="line;strokeWidth=1;fillColor=none;align=left;verticalAlign=middle;spacingTop=-1;spacingLeft=3;spacingRight=3;rotatable=0;labelPosition=right;points=[];portConstraint=eastwest;strokeColor=inherit;" parent="ESq09RiyBV9eqQZFw_kv-60" vertex="1">
          <mxGeometry y="80" width="160" height="28" as="geometry" />
        </mxCell>
        <mxCell id="ESq09RiyBV9eqQZFw_kv-63" value="+ method(type): type" style="text;strokeColor=none;fillColor=none;align=left;verticalAlign=top;spacingLeft=4;spacingRight=4;overflow=hidden;rotatable=0;points=[[0,0.5],[1,0.5]];portConstraint=eastwest;whiteSpace=wrap;html=1;" parent="ESq09RiyBV9eqQZFw_kv-60" vertex="1">
          <mxGeometry y="108" width="160" height="22" as="geometry" />
        </mxCell>
        <mxCell id="ESq09RiyBV9eqQZFw_kv-64" value="" style="endArrow=none;html=1;edgeStyle=orthogonalEdgeStyle;rounded=0;entryX=-0.006;entryY=1.037;entryDx=0;entryDy=0;entryPerimeter=0;" parent="1" source="ESq09RiyBV9eqQZFw_kv-39" target="ESq09RiyBV9eqQZFw_kv-61" edge="1">
          <mxGeometry relative="1" as="geometry">
            <mxPoint x="420" y="370" as="sourcePoint" />
            <mxPoint x="580" y="370" as="targetPoint" />
          </mxGeometry>
        </mxCell>
        <mxCell id="ESq09RiyBV9eqQZFw_kv-65" value="parent" style="edgeLabel;resizable=0;html=1;align=left;verticalAlign=bottom;" parent="ESq09RiyBV9eqQZFw_kv-64" connectable="0" vertex="1">
          <mxGeometry x="-1" relative="1" as="geometry" />
        </mxCell>
        <mxCell id="ESq09RiyBV9eqQZFw_kv-66" value="child" style="edgeLabel;resizable=0;html=1;align=right;verticalAlign=bottom;" parent="ESq09RiyBV9eqQZFw_kv-64" connectable="0" vertex="1">
          <mxGeometry x="1" relative="1" as="geometry" />
        </mxCell>
        <mxCell id="ESq09RiyBV9eqQZFw_kv-67" value="NodoMateria" style="swimlane;fontStyle=1;align=center;verticalAlign=top;childLayout=stackLayout;horizontal=1;startSize=26;horizontalStack=0;resizeParent=1;resizeParentMax=0;resizeLast=0;collapsible=1;marginBottom=0;whiteSpace=wrap;html=1;" parent="1" vertex="1">
          <mxGeometry x="455" y="50" width="160" height="130" as="geometry" />
        </mxCell>
        <mxCell id="ESq09RiyBV9eqQZFw_kv-68" value="- paralelo&lt;br&gt;- LS_NormalEstudiante&lt;br&gt;- Docente" style="text;strokeColor=none;fillColor=none;align=left;verticalAlign=top;spacingLeft=4;spacingRight=4;overflow=hidden;rotatable=0;points=[[0,0.5],[1,0.5]];portConstraint=eastwest;whiteSpace=wrap;html=1;" parent="ESq09RiyBV9eqQZFw_kv-67" vertex="1">
          <mxGeometry y="26" width="160" height="54" as="geometry" />
        </mxCell>
        <mxCell id="ESq09RiyBV9eqQZFw_kv-69" value="" style="line;strokeWidth=1;fillColor=none;align=left;verticalAlign=middle;spacingTop=-1;spacingLeft=3;spacingRight=3;rotatable=0;labelPosition=right;points=[];portConstraint=eastwest;strokeColor=inherit;" parent="ESq09RiyBV9eqQZFw_kv-67" vertex="1">
          <mxGeometry y="80" width="160" height="10" as="geometry" />
        </mxCell>
        <mxCell id="ESq09RiyBV9eqQZFw_kv-70" value="+ getters and seters" style="text;strokeColor=none;fillColor=none;align=left;verticalAlign=top;spacingLeft=4;spacingRight=4;overflow=hidden;rotatable=0;points=[[0,0.5],[1,0.5]];portConstraint=eastwest;whiteSpace=wrap;html=1;" parent="ESq09RiyBV9eqQZFw_kv-67" vertex="1">
          <mxGeometry y="90" width="160" height="40" as="geometry" />
        </mxCell>
        <mxCell id="ESq09RiyBV9eqQZFw_kv-71" value="ListaSimpleMateria" style="swimlane;fontStyle=1;align=center;verticalAlign=top;childLayout=stackLayout;horizontal=1;startSize=26;horizontalStack=0;resizeParent=1;resizeParentMax=0;resizeLast=0;collapsible=1;marginBottom=0;whiteSpace=wrap;html=1;" parent="1" vertex="1">
          <mxGeometry x="245" y="50" width="160" height="110" as="geometry" />
        </mxCell>
        <mxCell id="ESq09RiyBV9eqQZFw_kv-72" value="- P" style="text;strokeColor=none;fillColor=none;align=left;verticalAlign=top;spacingLeft=4;spacingRight=4;overflow=hidden;rotatable=0;points=[[0,0.5],[1,0.5]];portConstraint=eastwest;whiteSpace=wrap;html=1;" parent="ESq09RiyBV9eqQZFw_kv-71" vertex="1">
          <mxGeometry y="26" width="160" height="26" as="geometry" />
        </mxCell>
        <mxCell id="ESq09RiyBV9eqQZFw_kv-73" value="" style="line;strokeWidth=1;fillColor=none;align=left;verticalAlign=middle;spacingTop=-1;spacingLeft=3;spacingRight=3;rotatable=0;labelPosition=right;points=[];portConstraint=eastwest;strokeColor=inherit;" parent="ESq09RiyBV9eqQZFw_kv-71" vertex="1">
          <mxGeometry y="52" width="160" height="8" as="geometry" />
        </mxCell>
        <mxCell id="ESq09RiyBV9eqQZFw_kv-74" value="+ getterss..&lt;br&gt;+ ListaSimpleNotas()" style="text;strokeColor=none;fillColor=none;align=left;verticalAlign=top;spacingLeft=4;spacingRight=4;overflow=hidden;rotatable=0;points=[[0,0.5],[1,0.5]];portConstraint=eastwest;whiteSpace=wrap;html=1;" parent="ESq09RiyBV9eqQZFw_kv-71" vertex="1">
          <mxGeometry y="60" width="160" height="50" as="geometry" />
        </mxCell>
        <mxCell id="ESq09RiyBV9eqQZFw_kv-75" value="" style="endArrow=none;html=1;edgeStyle=orthogonalEdgeStyle;rounded=0;exitX=1;exitY=0.5;exitDx=0;exitDy=0;entryX=-0.025;entryY=0.05;entryDx=0;entryDy=0;entryPerimeter=0;" parent="1" source="ESq09RiyBV9eqQZFw_kv-74" target="ESq09RiyBV9eqQZFw_kv-70" edge="1">
          <mxGeometry relative="1" as="geometry">
            <mxPoint x="155" y="210" as="sourcePoint" />
            <mxPoint x="315" y="210" as="targetPoint" />
          </mxGeometry>
        </mxCell>
        <mxCell id="ESq09RiyBV9eqQZFw_kv-76" value="parent" style="edgeLabel;resizable=0;html=1;align=left;verticalAlign=bottom;" parent="ESq09RiyBV9eqQZFw_kv-75" connectable="0" vertex="1">
          <mxGeometry x="-1" relative="1" as="geometry" />
        </mxCell>
        <mxCell id="ESq09RiyBV9eqQZFw_kv-77" value="child" style="edgeLabel;resizable=0;html=1;align=right;verticalAlign=bottom;" parent="ESq09RiyBV9eqQZFw_kv-75" connectable="0" vertex="1">
          <mxGeometry x="1" relative="1" as="geometry" />
        </mxCell>
        <mxCell id="ESq09RiyBV9eqQZFw_kv-78" value="LS_NormalMaterias" style="swimlane;fontStyle=1;align=center;verticalAlign=top;childLayout=stackLayout;horizontal=1;startSize=26;horizontalStack=0;resizeParent=1;resizeParentMax=0;resizeLast=0;collapsible=1;marginBottom=0;whiteSpace=wrap;html=1;" parent="1" vertex="1">
          <mxGeometry x="25" y="50" width="160" height="86" as="geometry" />
        </mxCell>
        <mxCell id="ESq09RiyBV9eqQZFw_kv-79" value="- P" style="text;strokeColor=none;fillColor=none;align=left;verticalAlign=top;spacingLeft=4;spacingRight=4;overflow=hidden;rotatable=0;points=[[0,0.5],[1,0.5]];portConstraint=eastwest;whiteSpace=wrap;html=1;" parent="ESq09RiyBV9eqQZFw_kv-78" vertex="1">
          <mxGeometry y="26" width="160" height="26" as="geometry" />
        </mxCell>
        <mxCell id="ESq09RiyBV9eqQZFw_kv-80" value="" style="line;strokeWidth=1;fillColor=none;align=left;verticalAlign=middle;spacingTop=-1;spacingLeft=3;spacingRight=3;rotatable=0;labelPosition=right;points=[];portConstraint=eastwest;strokeColor=inherit;" parent="ESq09RiyBV9eqQZFw_kv-78" vertex="1">
          <mxGeometry y="52" width="160" height="8" as="geometry" />
        </mxCell>
        <mxCell id="ESq09RiyBV9eqQZFw_kv-81" value="+ method(type): type" style="text;strokeColor=none;fillColor=none;align=left;verticalAlign=top;spacingLeft=4;spacingRight=4;overflow=hidden;rotatable=0;points=[[0,0.5],[1,0.5]];portConstraint=eastwest;whiteSpace=wrap;html=1;" parent="ESq09RiyBV9eqQZFw_kv-78" vertex="1">
          <mxGeometry y="60" width="160" height="26" as="geometry" />
        </mxCell>
        <mxCell id="ESq09RiyBV9eqQZFw_kv-82" value="" style="endArrow=none;html=1;edgeStyle=orthogonalEdgeStyle;rounded=0;exitX=1.013;exitY=0.154;exitDx=0;exitDy=0;exitPerimeter=0;entryX=-0.012;entryY=0.06;entryDx=0;entryDy=0;entryPerimeter=0;" parent="1" source="ESq09RiyBV9eqQZFw_kv-81" target="ESq09RiyBV9eqQZFw_kv-74" edge="1">
          <mxGeometry relative="1" as="geometry">
            <mxPoint x="115" y="230" as="sourcePoint" />
            <mxPoint x="275" y="230" as="targetPoint" />
          </mxGeometry>
        </mxCell>
        <mxCell id="ESq09RiyBV9eqQZFw_kv-83" value="parent" style="edgeLabel;resizable=0;html=1;align=left;verticalAlign=bottom;" parent="ESq09RiyBV9eqQZFw_kv-82" connectable="0" vertex="1">
          <mxGeometry x="-1" relative="1" as="geometry" />
        </mxCell>
        <mxCell id="ESq09RiyBV9eqQZFw_kv-84" value="child" style="edgeLabel;resizable=0;html=1;align=right;verticalAlign=bottom;" parent="ESq09RiyBV9eqQZFw_kv-82" connectable="0" vertex="1">
          <mxGeometry x="1" relative="1" as="geometry" />
        </mxCell>
        <mxCell id="ESq09RiyBV9eqQZFw_kv-85" value="child" style="edgeLabel;resizable=0;html=1;align=right;verticalAlign=bottom;" parent="1" connectable="0" vertex="1">
          <mxGeometry x="529.0800400079968" y="170.10001999199562" as="geometry" />
        </mxCell>
        <mxCell id="ESq09RiyBV9eqQZFw_kv-86" value="Docente" style="swimlane;fontStyle=1;align=center;verticalAlign=top;childLayout=stackLayout;horizontal=1;startSize=26;horizontalStack=0;resizeParent=1;resizeParentMax=0;resizeLast=0;collapsible=1;marginBottom=0;whiteSpace=wrap;html=1;" parent="1" vertex="1">
          <mxGeometry x="665" y="60" width="160" height="130" as="geometry" />
        </mxCell>
        <mxCell id="ESq09RiyBV9eqQZFw_kv-87" value="- paterno&lt;br&gt;- materno&lt;br&gt;- nombres" style="text;strokeColor=none;fillColor=none;align=left;verticalAlign=top;spacingLeft=4;spacingRight=4;overflow=hidden;rotatable=0;points=[[0,0.5],[1,0.5]];portConstraint=eastwest;whiteSpace=wrap;html=1;" parent="ESq09RiyBV9eqQZFw_kv-86" vertex="1">
          <mxGeometry y="26" width="160" height="54" as="geometry" />
        </mxCell>
        <mxCell id="ESq09RiyBV9eqQZFw_kv-88" value="" style="line;strokeWidth=1;fillColor=none;align=left;verticalAlign=middle;spacingTop=-1;spacingLeft=3;spacingRight=3;rotatable=0;labelPosition=right;points=[];portConstraint=eastwest;strokeColor=inherit;" parent="ESq09RiyBV9eqQZFw_kv-86" vertex="1">
          <mxGeometry y="80" width="160" height="28" as="geometry" />
        </mxCell>
        <mxCell id="ESq09RiyBV9eqQZFw_kv-89" value="+ method(type): type" style="text;strokeColor=none;fillColor=none;align=left;verticalAlign=top;spacingLeft=4;spacingRight=4;overflow=hidden;rotatable=0;points=[[0,0.5],[1,0.5]];portConstraint=eastwest;whiteSpace=wrap;html=1;" parent="ESq09RiyBV9eqQZFw_kv-86" vertex="1">
          <mxGeometry y="108" width="160" height="22" as="geometry" />
        </mxCell>
        <mxCell id="ESq09RiyBV9eqQZFw_kv-90" value="" style="endArrow=none;html=1;edgeStyle=orthogonalEdgeStyle;rounded=0;entryX=-0.006;entryY=1.037;entryDx=0;entryDy=0;entryPerimeter=0;" parent="1" source="ESq09RiyBV9eqQZFw_kv-68" target="ESq09RiyBV9eqQZFw_kv-87" edge="1">
          <mxGeometry relative="1" as="geometry">
            <mxPoint x="415" y="170" as="sourcePoint" />
            <mxPoint x="575" y="170" as="targetPoint" />
          </mxGeometry>
        </mxCell>
        <mxCell id="ESq09RiyBV9eqQZFw_kv-91" value="parent" style="edgeLabel;resizable=0;html=1;align=left;verticalAlign=bottom;" parent="ESq09RiyBV9eqQZFw_kv-90" connectable="0" vertex="1">
          <mxGeometry x="-1" relative="1" as="geometry" />
        </mxCell>
        <mxCell id="ESq09RiyBV9eqQZFw_kv-92" value="child" style="edgeLabel;resizable=0;html=1;align=right;verticalAlign=bottom;" parent="ESq09RiyBV9eqQZFw_kv-90" connectable="0" vertex="1">
          <mxGeometry x="1" relative="1" as="geometry" />
        </mxCell>
        <mxCell id="ESq09RiyBV9eqQZFw_kv-93" value="" style="endArrow=none;html=1;edgeStyle=orthogonalEdgeStyle;rounded=0;exitX=0.613;exitY=-0.012;exitDx=0;exitDy=0;exitPerimeter=0;entryX=0.5;entryY=1;entryDx=0;entryDy=0;" parent="1" source="ESq09RiyBV9eqQZFw_kv-49" target="ESq09RiyBV9eqQZFw_kv-67" edge="1">
          <mxGeometry relative="1" as="geometry">
            <mxPoint x="190" y="200" as="sourcePoint" />
            <mxPoint x="350" y="200" as="targetPoint" />
          </mxGeometry>
        </mxCell>
        <mxCell id="ESq09RiyBV9eqQZFw_kv-94" value="parent" style="edgeLabel;resizable=0;html=1;align=left;verticalAlign=bottom;" parent="ESq09RiyBV9eqQZFw_kv-93" connectable="0" vertex="1">
          <mxGeometry x="-1" relative="1" as="geometry" />
        </mxCell>
        <mxCell id="ESq09RiyBV9eqQZFw_kv-95" value="child" style="edgeLabel;resizable=0;html=1;align=right;verticalAlign=bottom;" parent="ESq09RiyBV9eqQZFw_kv-93" connectable="0" vertex="1">
          <mxGeometry x="1" relative="1" as="geometry" />
        </mxCell>
        <mxCell id="ESq09RiyBV9eqQZFw_kv-96" value="NodoDato" style="swimlane;fontStyle=1;align=center;verticalAlign=top;childLayout=stackLayout;horizontal=1;startSize=26;horizontalStack=0;resizeParent=1;resizeParentMax=0;resizeLast=0;collapsible=1;marginBottom=0;whiteSpace=wrap;html=1;" parent="1" vertex="1">
          <mxGeometry x="590" y="-130" width="160" height="130" as="geometry" />
        </mxCell>
        <mxCell id="ESq09RiyBV9eqQZFw_kv-97" value="- descrip&lt;br&gt;- LS_NormalMaterias&lt;br&gt;- sigla" style="text;strokeColor=none;fillColor=none;align=left;verticalAlign=top;spacingLeft=4;spacingRight=4;overflow=hidden;rotatable=0;points=[[0,0.5],[1,0.5]];portConstraint=eastwest;whiteSpace=wrap;html=1;" parent="ESq09RiyBV9eqQZFw_kv-96" vertex="1">
          <mxGeometry y="26" width="160" height="54" as="geometry" />
        </mxCell>
        <mxCell id="ESq09RiyBV9eqQZFw_kv-98" value="" style="line;strokeWidth=1;fillColor=none;align=left;verticalAlign=middle;spacingTop=-1;spacingLeft=3;spacingRight=3;rotatable=0;labelPosition=right;points=[];portConstraint=eastwest;strokeColor=inherit;" parent="ESq09RiyBV9eqQZFw_kv-96" vertex="1">
          <mxGeometry y="80" width="160" height="10" as="geometry" />
        </mxCell>
        <mxCell id="ESq09RiyBV9eqQZFw_kv-99" value="+ getters and seters" style="text;strokeColor=none;fillColor=none;align=left;verticalAlign=top;spacingLeft=4;spacingRight=4;overflow=hidden;rotatable=0;points=[[0,0.5],[1,0.5]];portConstraint=eastwest;whiteSpace=wrap;html=1;" parent="ESq09RiyBV9eqQZFw_kv-96" vertex="1">
          <mxGeometry y="90" width="160" height="40" as="geometry" />
        </mxCell>
        <mxCell id="ESq09RiyBV9eqQZFw_kv-100" value="ListaSimpleDatos" style="swimlane;fontStyle=1;align=center;verticalAlign=top;childLayout=stackLayout;horizontal=1;startSize=26;horizontalStack=0;resizeParent=1;resizeParentMax=0;resizeLast=0;collapsible=1;marginBottom=0;whiteSpace=wrap;html=1;" parent="1" vertex="1">
          <mxGeometry x="370" y="-130" width="160" height="110" as="geometry" />
        </mxCell>
        <mxCell id="ESq09RiyBV9eqQZFw_kv-101" value="- P" style="text;strokeColor=none;fillColor=none;align=left;verticalAlign=top;spacingLeft=4;spacingRight=4;overflow=hidden;rotatable=0;points=[[0,0.5],[1,0.5]];portConstraint=eastwest;whiteSpace=wrap;html=1;" parent="ESq09RiyBV9eqQZFw_kv-100" vertex="1">
          <mxGeometry y="26" width="160" height="26" as="geometry" />
        </mxCell>
        <mxCell id="ESq09RiyBV9eqQZFw_kv-102" value="" style="line;strokeWidth=1;fillColor=none;align=left;verticalAlign=middle;spacingTop=-1;spacingLeft=3;spacingRight=3;rotatable=0;labelPosition=right;points=[];portConstraint=eastwest;strokeColor=inherit;" parent="ESq09RiyBV9eqQZFw_kv-100" vertex="1">
          <mxGeometry y="52" width="160" height="8" as="geometry" />
        </mxCell>
        <mxCell id="ESq09RiyBV9eqQZFw_kv-103" value="+ getterss..&lt;br&gt;+ ListaSimpleNotas()" style="text;strokeColor=none;fillColor=none;align=left;verticalAlign=top;spacingLeft=4;spacingRight=4;overflow=hidden;rotatable=0;points=[[0,0.5],[1,0.5]];portConstraint=eastwest;whiteSpace=wrap;html=1;" parent="ESq09RiyBV9eqQZFw_kv-100" vertex="1">
          <mxGeometry y="60" width="160" height="50" as="geometry" />
        </mxCell>
        <mxCell id="ESq09RiyBV9eqQZFw_kv-104" value="" style="endArrow=none;html=1;edgeStyle=orthogonalEdgeStyle;rounded=0;exitX=1;exitY=0.5;exitDx=0;exitDy=0;entryX=-0.025;entryY=0.05;entryDx=0;entryDy=0;entryPerimeter=0;" parent="1" source="ESq09RiyBV9eqQZFw_kv-103" target="ESq09RiyBV9eqQZFw_kv-99" edge="1">
          <mxGeometry relative="1" as="geometry">
            <mxPoint x="280" y="30" as="sourcePoint" />
            <mxPoint x="440" y="30" as="targetPoint" />
          </mxGeometry>
        </mxCell>
        <mxCell id="ESq09RiyBV9eqQZFw_kv-105" value="parent" style="edgeLabel;resizable=0;html=1;align=left;verticalAlign=bottom;" parent="ESq09RiyBV9eqQZFw_kv-104" connectable="0" vertex="1">
          <mxGeometry x="-1" relative="1" as="geometry" />
        </mxCell>
        <mxCell id="ESq09RiyBV9eqQZFw_kv-106" value="child" style="edgeLabel;resizable=0;html=1;align=right;verticalAlign=bottom;" parent="ESq09RiyBV9eqQZFw_kv-104" connectable="0" vertex="1">
          <mxGeometry x="1" relative="1" as="geometry" />
        </mxCell>
        <mxCell id="ESq09RiyBV9eqQZFw_kv-107" value="LS_NormalDatos" style="swimlane;fontStyle=1;align=center;verticalAlign=top;childLayout=stackLayout;horizontal=1;startSize=26;horizontalStack=0;resizeParent=1;resizeParentMax=0;resizeLast=0;collapsible=1;marginBottom=0;whiteSpace=wrap;html=1;" parent="1" vertex="1">
          <mxGeometry x="150" y="-130" width="160" height="86" as="geometry" />
        </mxCell>
        <mxCell id="ESq09RiyBV9eqQZFw_kv-108" value="- P" style="text;strokeColor=none;fillColor=none;align=left;verticalAlign=top;spacingLeft=4;spacingRight=4;overflow=hidden;rotatable=0;points=[[0,0.5],[1,0.5]];portConstraint=eastwest;whiteSpace=wrap;html=1;" parent="ESq09RiyBV9eqQZFw_kv-107" vertex="1">
          <mxGeometry y="26" width="160" height="26" as="geometry" />
        </mxCell>
        <mxCell id="ESq09RiyBV9eqQZFw_kv-109" value="" style="line;strokeWidth=1;fillColor=none;align=left;verticalAlign=middle;spacingTop=-1;spacingLeft=3;spacingRight=3;rotatable=0;labelPosition=right;points=[];portConstraint=eastwest;strokeColor=inherit;" parent="ESq09RiyBV9eqQZFw_kv-107" vertex="1">
          <mxGeometry y="52" width="160" height="8" as="geometry" />
        </mxCell>
        <mxCell id="ESq09RiyBV9eqQZFw_kv-110" value="+ method(type): type" style="text;strokeColor=none;fillColor=none;align=left;verticalAlign=top;spacingLeft=4;spacingRight=4;overflow=hidden;rotatable=0;points=[[0,0.5],[1,0.5]];portConstraint=eastwest;whiteSpace=wrap;html=1;" parent="ESq09RiyBV9eqQZFw_kv-107" vertex="1">
          <mxGeometry y="60" width="160" height="26" as="geometry" />
        </mxCell>
        <mxCell id="ESq09RiyBV9eqQZFw_kv-111" value="" style="endArrow=none;html=1;edgeStyle=orthogonalEdgeStyle;rounded=0;exitX=1.013;exitY=0.154;exitDx=0;exitDy=0;exitPerimeter=0;entryX=-0.012;entryY=0.06;entryDx=0;entryDy=0;entryPerimeter=0;" parent="1" source="ESq09RiyBV9eqQZFw_kv-110" target="ESq09RiyBV9eqQZFw_kv-103" edge="1">
          <mxGeometry relative="1" as="geometry">
            <mxPoint x="240" y="50" as="sourcePoint" />
            <mxPoint x="400" y="50" as="targetPoint" />
          </mxGeometry>
        </mxCell>
        <mxCell id="ESq09RiyBV9eqQZFw_kv-112" value="parent" style="edgeLabel;resizable=0;html=1;align=left;verticalAlign=bottom;" parent="ESq09RiyBV9eqQZFw_kv-111" connectable="0" vertex="1">
          <mxGeometry x="-1" relative="1" as="geometry" />
        </mxCell>
        <mxCell id="ESq09RiyBV9eqQZFw_kv-113" value="child" style="edgeLabel;resizable=0;html=1;align=right;verticalAlign=bottom;" parent="ESq09RiyBV9eqQZFw_kv-111" connectable="0" vertex="1">
          <mxGeometry x="1" relative="1" as="geometry" />
        </mxCell>
        <mxCell id="ESq09RiyBV9eqQZFw_kv-114" value="child" style="edgeLabel;resizable=0;html=1;align=right;verticalAlign=bottom;" parent="1" connectable="0" vertex="1">
          <mxGeometry x="654.0800400079968" y="-9.899980008004377" as="geometry" />
        </mxCell>
        <mxCell id="ESq09RiyBV9eqQZFw_kv-122" value="child" style="edgeLabel;resizable=0;html=1;align=right;verticalAlign=bottom;" parent="1" connectable="0" vertex="1">
          <mxGeometry x="660" y="-0.13199411210598555" as="geometry" />
        </mxCell>
        <mxCell id="ESq09RiyBV9eqQZFw_kv-123" value="" style="endArrow=none;html=1;edgeStyle=orthogonalEdgeStyle;rounded=0;exitX=0.556;exitY=0.012;exitDx=0;exitDy=0;exitPerimeter=0;" parent="1" source="ESq09RiyBV9eqQZFw_kv-78" edge="1">
          <mxGeometry relative="1" as="geometry">
            <mxPoint x="410" y="30" as="sourcePoint" />
            <mxPoint x="680" y="10" as="targetPoint" />
          </mxGeometry>
        </mxCell>
        <mxCell id="ESq09RiyBV9eqQZFw_kv-124" value="parent" style="edgeLabel;resizable=0;html=1;align=left;verticalAlign=bottom;" parent="ESq09RiyBV9eqQZFw_kv-123" connectable="0" vertex="1">
          <mxGeometry x="-1" relative="1" as="geometry" />
        </mxCell>
        <mxCell id="ESq09RiyBV9eqQZFw_kv-125" value="child" style="edgeLabel;resizable=0;html=1;align=right;verticalAlign=bottom;" parent="ESq09RiyBV9eqQZFw_kv-123" connectable="0" vertex="1">
          <mxGeometry x="1" relative="1" as="geometry" />
        </mxCell>
      </root>
    </mxGraphModel>
  </diagram>
  <diagram id="wY1t9qEt8W7Q4fxsrKni" name="proyecto-inf121-remas">
    <mxGraphModel dx="911" dy="452" grid="1" gridSize="10" guides="1" tooltips="1" connect="1" arrows="1" fold="1" page="1" pageScale="1" pageWidth="850" pageHeight="1100" math="0" shadow="0">
      <root>
        <mxCell id="0" />
        <mxCell id="1" parent="0" />
        <mxCell id="bDy4KAqwr9O_U1Q-uagQ-1" value="Pasajero" style="swimlane;fontStyle=1;align=center;verticalAlign=top;childLayout=stackLayout;horizontal=1;startSize=26;horizontalStack=0;resizeParent=1;resizeParentMax=0;resizeLast=0;collapsible=1;marginBottom=0;whiteSpace=wrap;html=1;" vertex="1" parent="1">
          <mxGeometry x="660" y="880" width="110" height="140" as="geometry" />
        </mxCell>
        <mxCell id="bDy4KAqwr9O_U1Q-uagQ-2" value="- ci&lt;br&gt;- nombre&lt;br&gt;- edad" style="text;strokeColor=none;fillColor=none;align=left;verticalAlign=top;spacingLeft=4;spacingRight=4;overflow=hidden;rotatable=0;points=[[0,0.5],[1,0.5]];portConstraint=eastwest;whiteSpace=wrap;html=1;" vertex="1" parent="bDy4KAqwr9O_U1Q-uagQ-1">
          <mxGeometry y="26" width="110" height="54" as="geometry" />
        </mxCell>
        <mxCell id="bDy4KAqwr9O_U1Q-uagQ-3" value="" style="line;strokeWidth=1;fillColor=none;align=left;verticalAlign=middle;spacingTop=-1;spacingLeft=3;spacingRight=3;rotatable=0;labelPosition=right;points=[];portConstraint=eastwest;strokeColor=inherit;" vertex="1" parent="bDy4KAqwr9O_U1Q-uagQ-1">
          <mxGeometry y="80" width="110" height="8" as="geometry" />
        </mxCell>
        <mxCell id="bDy4KAqwr9O_U1Q-uagQ-4" value="+ getters()&lt;br&gt;+ setters()&lt;br&gt;+ mostrar()" style="text;strokeColor=none;fillColor=none;align=left;verticalAlign=top;spacingLeft=4;spacingRight=4;overflow=hidden;rotatable=0;points=[[0,0.5],[1,0.5]];portConstraint=eastwest;whiteSpace=wrap;html=1;" vertex="1" parent="bDy4KAqwr9O_U1Q-uagQ-1">
          <mxGeometry y="88" width="110" height="52" as="geometry" />
        </mxCell>
        <mxCell id="bDy4KAqwr9O_U1Q-uagQ-5" value="Reservacion" style="swimlane;fontStyle=1;align=center;verticalAlign=top;childLayout=stackLayout;horizontal=1;startSize=26;horizontalStack=0;resizeParent=1;resizeParentMax=0;resizeLast=0;collapsible=1;marginBottom=0;whiteSpace=wrap;html=1;" vertex="1" parent="1">
          <mxGeometry x="660" y="680" width="110" height="160" as="geometry" />
        </mxCell>
        <mxCell id="bDy4KAqwr9O_U1Q-uagQ-6" value="- nroVuelo&lt;br&gt;- ci&lt;br&gt;- nroAsientos&lt;br&gt;- precioTotal" style="text;strokeColor=none;fillColor=none;align=left;verticalAlign=top;spacingLeft=4;spacingRight=4;overflow=hidden;rotatable=0;points=[[0,0.5],[1,0.5]];portConstraint=eastwest;whiteSpace=wrap;html=1;" vertex="1" parent="bDy4KAqwr9O_U1Q-uagQ-5">
          <mxGeometry y="26" width="110" height="74" as="geometry" />
        </mxCell>
        <mxCell id="bDy4KAqwr9O_U1Q-uagQ-7" value="" style="line;strokeWidth=1;fillColor=none;align=left;verticalAlign=middle;spacingTop=-1;spacingLeft=3;spacingRight=3;rotatable=0;labelPosition=right;points=[];portConstraint=eastwest;strokeColor=inherit;" vertex="1" parent="bDy4KAqwr9O_U1Q-uagQ-5">
          <mxGeometry y="100" width="110" height="8" as="geometry" />
        </mxCell>
        <mxCell id="bDy4KAqwr9O_U1Q-uagQ-8" value="+ getters()&lt;br&gt;+ setters()&lt;br&gt;+ mostrar()" style="text;strokeColor=none;fillColor=none;align=left;verticalAlign=top;spacingLeft=4;spacingRight=4;overflow=hidden;rotatable=0;points=[[0,0.5],[1,0.5]];portConstraint=eastwest;whiteSpace=wrap;html=1;" vertex="1" parent="bDy4KAqwr9O_U1Q-uagQ-5">
          <mxGeometry y="108" width="110" height="52" as="geometry" />
        </mxCell>
        <mxCell id="bDy4KAqwr9O_U1Q-uagQ-9" value="Vuelo" style="swimlane;fontStyle=1;align=center;verticalAlign=top;childLayout=stackLayout;horizontal=1;startSize=26;horizontalStack=0;resizeParent=1;resizeParentMax=0;resizeLast=0;collapsible=1;marginBottom=0;whiteSpace=wrap;html=1;" vertex="1" parent="1">
          <mxGeometry x="660" y="385" width="110" height="200" as="geometry" />
        </mxCell>
        <mxCell id="bDy4KAqwr9O_U1Q-uagQ-10" value="- nroVuelo&lt;br&gt;- origen&lt;br&gt;- destion&lt;br&gt;- precio&lt;br&gt;- fecha&lt;br&gt;- nroAsientos&lt;br&gt;- precio" style="text;strokeColor=none;fillColor=none;align=left;verticalAlign=top;spacingLeft=4;spacingRight=4;overflow=hidden;rotatable=0;points=[[0,0.5],[1,0.5]];portConstraint=eastwest;whiteSpace=wrap;html=1;" vertex="1" parent="bDy4KAqwr9O_U1Q-uagQ-9">
          <mxGeometry y="26" width="110" height="114" as="geometry" />
        </mxCell>
        <mxCell id="bDy4KAqwr9O_U1Q-uagQ-11" value="" style="line;strokeWidth=1;fillColor=none;align=left;verticalAlign=middle;spacingTop=-1;spacingLeft=3;spacingRight=3;rotatable=0;labelPosition=right;points=[];portConstraint=eastwest;strokeColor=inherit;" vertex="1" parent="bDy4KAqwr9O_U1Q-uagQ-9">
          <mxGeometry y="140" width="110" height="8" as="geometry" />
        </mxCell>
        <mxCell id="bDy4KAqwr9O_U1Q-uagQ-12" value="+ getters()&lt;br&gt;+ setters()&lt;br&gt;+ mostrar()" style="text;strokeColor=none;fillColor=none;align=left;verticalAlign=top;spacingLeft=4;spacingRight=4;overflow=hidden;rotatable=0;points=[[0,0.5],[1,0.5]];portConstraint=eastwest;whiteSpace=wrap;html=1;" vertex="1" parent="bDy4KAqwr9O_U1Q-uagQ-9">
          <mxGeometry y="148" width="110" height="52" as="geometry" />
        </mxCell>
        <mxCell id="bDy4KAqwr9O_U1Q-uagQ-14" value="VectorP" style="swimlane;fontStyle=1;align=center;verticalAlign=top;childLayout=stackLayout;horizontal=1;startSize=26;horizontalStack=0;resizeParent=1;resizeParentMax=0;resizeLast=0;collapsible=1;marginBottom=0;whiteSpace=wrap;html=1;" vertex="1" parent="1">
          <mxGeometry x="340" y="880" width="110" height="78" as="geometry" />
        </mxCell>
        <mxCell id="bDy4KAqwr9O_U1Q-uagQ-15" value="# max&lt;br&gt;# v[max]" style="text;strokeColor=none;fillColor=none;align=left;verticalAlign=top;spacingLeft=4;spacingRight=4;overflow=hidden;rotatable=0;points=[[0,0.5],[1,0.5]];portConstraint=eastwest;whiteSpace=wrap;html=1;" vertex="1" parent="bDy4KAqwr9O_U1Q-uagQ-14">
          <mxGeometry y="26" width="110" height="44" as="geometry" />
        </mxCell>
        <mxCell id="bDy4KAqwr9O_U1Q-uagQ-16" value="" style="line;strokeWidth=1;fillColor=none;align=left;verticalAlign=middle;spacingTop=-1;spacingLeft=3;spacingRight=3;rotatable=0;labelPosition=right;points=[];portConstraint=eastwest;strokeColor=inherit;" vertex="1" parent="bDy4KAqwr9O_U1Q-uagQ-14">
          <mxGeometry y="70" width="110" height="8" as="geometry" />
        </mxCell>
        <mxCell id="bDy4KAqwr9O_U1Q-uagQ-21" value="PilaP" style="swimlane;fontStyle=1;align=center;verticalAlign=top;childLayout=stackLayout;horizontal=1;startSize=26;horizontalStack=0;resizeParent=1;resizeParentMax=0;resizeLast=0;collapsible=1;marginBottom=0;whiteSpace=wrap;html=1;" vertex="1" parent="1">
          <mxGeometry x="60" y="885" width="160" height="120" as="geometry" />
        </mxCell>
        <mxCell id="bDy4KAqwr9O_U1Q-uagQ-22" value="- tope" style="text;strokeColor=none;fillColor=none;align=left;verticalAlign=top;spacingLeft=4;spacingRight=4;overflow=hidden;rotatable=0;points=[[0,0.5],[1,0.5]];portConstraint=eastwest;whiteSpace=wrap;html=1;" vertex="1" parent="bDy4KAqwr9O_U1Q-uagQ-21">
          <mxGeometry y="26" width="160" height="26" as="geometry" />
        </mxCell>
        <mxCell id="bDy4KAqwr9O_U1Q-uagQ-23" value="" style="line;strokeWidth=1;fillColor=none;align=left;verticalAlign=middle;spacingTop=-1;spacingLeft=3;spacingRight=3;rotatable=0;labelPosition=right;points=[];portConstraint=eastwest;strokeColor=inherit;" vertex="1" parent="bDy4KAqwr9O_U1Q-uagQ-21">
          <mxGeometry y="52" width="160" height="8" as="geometry" />
        </mxCell>
        <mxCell id="bDy4KAqwr9O_U1Q-uagQ-24" value="+ mostrar()&lt;br&gt;+ esVacia()&lt;br&gt;..." style="text;strokeColor=none;fillColor=none;align=left;verticalAlign=top;spacingLeft=4;spacingRight=4;overflow=hidden;rotatable=0;points=[[0,0.5],[1,0.5]];portConstraint=eastwest;whiteSpace=wrap;html=1;" vertex="1" parent="bDy4KAqwr9O_U1Q-uagQ-21">
          <mxGeometry y="60" width="160" height="60" as="geometry" />
        </mxCell>
        <mxCell id="bDy4KAqwr9O_U1Q-uagQ-25" value="" style="endArrow=diamondThin;endFill=1;endSize=24;html=1;rounded=0;" edge="1" parent="1" source="bDy4KAqwr9O_U1Q-uagQ-2" target="bDy4KAqwr9O_U1Q-uagQ-15">
          <mxGeometry width="160" relative="1" as="geometry">
            <mxPoint x="710" y="940" as="sourcePoint" />
            <mxPoint x="640" y="940" as="targetPoint" />
          </mxGeometry>
        </mxCell>
        <mxCell id="bDy4KAqwr9O_U1Q-uagQ-26" value="" style="endArrow=block;endSize=16;endFill=0;html=1;rounded=0;entryX=0;entryY=0.5;entryDx=0;entryDy=0;exitX=1.009;exitY=0.735;exitDx=0;exitDy=0;exitPerimeter=0;" edge="1" parent="1" source="bDy4KAqwr9O_U1Q-uagQ-22" target="bDy4KAqwr9O_U1Q-uagQ-15">
          <mxGeometry width="160" relative="1" as="geometry">
            <mxPoint x="500" y="870" as="sourcePoint" />
            <mxPoint x="580" y="880" as="targetPoint" />
          </mxGeometry>
        </mxCell>
        <mxCell id="bDy4KAqwr9O_U1Q-uagQ-27" value="VectorR" style="swimlane;fontStyle=1;align=center;verticalAlign=top;childLayout=stackLayout;horizontal=1;startSize=26;horizontalStack=0;resizeParent=1;resizeParentMax=0;resizeLast=0;collapsible=1;marginBottom=0;whiteSpace=wrap;html=1;" vertex="1" parent="1">
          <mxGeometry x="440" y="710" width="110" height="78" as="geometry" />
        </mxCell>
        <mxCell id="bDy4KAqwr9O_U1Q-uagQ-28" value="# max&lt;br&gt;# v[max]" style="text;strokeColor=none;fillColor=none;align=left;verticalAlign=top;spacingLeft=4;spacingRight=4;overflow=hidden;rotatable=0;points=[[0,0.5],[1,0.5]];portConstraint=eastwest;whiteSpace=wrap;html=1;" vertex="1" parent="bDy4KAqwr9O_U1Q-uagQ-27">
          <mxGeometry y="26" width="110" height="44" as="geometry" />
        </mxCell>
        <mxCell id="bDy4KAqwr9O_U1Q-uagQ-29" value="" style="line;strokeWidth=1;fillColor=none;align=left;verticalAlign=middle;spacingTop=-1;spacingLeft=3;spacingRight=3;rotatable=0;labelPosition=right;points=[];portConstraint=eastwest;strokeColor=inherit;" vertex="1" parent="bDy4KAqwr9O_U1Q-uagQ-27">
          <mxGeometry y="70" width="110" height="8" as="geometry" />
        </mxCell>
        <mxCell id="bDy4KAqwr9O_U1Q-uagQ-31" value="" style="endArrow=diamondThin;endFill=1;endSize=24;html=1;rounded=0;entryX=1;entryY=0.5;entryDx=0;entryDy=0;exitX=-0.022;exitY=0.691;exitDx=0;exitDy=0;exitPerimeter=0;" edge="1" parent="1" source="bDy4KAqwr9O_U1Q-uagQ-6" target="bDy4KAqwr9O_U1Q-uagQ-28">
          <mxGeometry width="160" relative="1" as="geometry">
            <mxPoint x="680" y="700" as="sourcePoint" />
            <mxPoint x="550" y="700" as="targetPoint" />
          </mxGeometry>
        </mxCell>
        <mxCell id="bDy4KAqwr9O_U1Q-uagQ-32" value="ColaR" style="swimlane;fontStyle=1;align=center;verticalAlign=top;childLayout=stackLayout;horizontal=1;startSize=26;horizontalStack=0;resizeParent=1;resizeParentMax=0;resizeLast=0;collapsible=1;marginBottom=0;whiteSpace=wrap;html=1;" vertex="1" parent="1">
          <mxGeometry x="290" y="706" width="110" height="78" as="geometry" />
        </mxCell>
        <mxCell id="bDy4KAqwr9O_U1Q-uagQ-33" value="- fr&lt;br&gt;- fi" style="text;strokeColor=none;fillColor=none;align=left;verticalAlign=top;spacingLeft=4;spacingRight=4;overflow=hidden;rotatable=0;points=[[0,0.5],[1,0.5]];portConstraint=eastwest;whiteSpace=wrap;html=1;" vertex="1" parent="bDy4KAqwr9O_U1Q-uagQ-32">
          <mxGeometry y="26" width="110" height="44" as="geometry" />
        </mxCell>
        <mxCell id="bDy4KAqwr9O_U1Q-uagQ-34" value="" style="line;strokeWidth=1;fillColor=none;align=left;verticalAlign=middle;spacingTop=-1;spacingLeft=3;spacingRight=3;rotatable=0;labelPosition=right;points=[];portConstraint=eastwest;strokeColor=inherit;" vertex="1" parent="bDy4KAqwr9O_U1Q-uagQ-32">
          <mxGeometry y="70" width="110" height="8" as="geometry" />
        </mxCell>
        <mxCell id="bDy4KAqwr9O_U1Q-uagQ-37" value="" style="endArrow=block;endSize=16;endFill=0;html=1;rounded=0;entryX=0;entryY=0.318;entryDx=0;entryDy=0;entryPerimeter=0;" edge="1" parent="1" source="bDy4KAqwr9O_U1Q-uagQ-33" target="bDy4KAqwr9O_U1Q-uagQ-28">
          <mxGeometry width="160" relative="1" as="geometry">
            <mxPoint x="325" y="744" as="sourcePoint" />
            <mxPoint x="425" y="734" as="targetPoint" />
          </mxGeometry>
        </mxCell>
        <mxCell id="bDy4KAqwr9O_U1Q-uagQ-45" value="ColaSimpleR" style="swimlane;fontStyle=1;align=center;verticalAlign=top;childLayout=stackLayout;horizontal=1;startSize=26;horizontalStack=0;resizeParent=1;resizeParentMax=0;resizeLast=0;collapsible=1;marginBottom=0;whiteSpace=wrap;html=1;" vertex="1" parent="1">
          <mxGeometry x="60" y="710" width="160" height="90" as="geometry" />
        </mxCell>
        <mxCell id="bDy4KAqwr9O_U1Q-uagQ-47" value="" style="line;strokeWidth=1;fillColor=none;align=left;verticalAlign=middle;spacingTop=-1;spacingLeft=3;spacingRight=3;rotatable=0;labelPosition=right;points=[];portConstraint=eastwest;strokeColor=inherit;" vertex="1" parent="bDy4KAqwr9O_U1Q-uagQ-45">
          <mxGeometry y="26" width="160" height="8" as="geometry" />
        </mxCell>
        <mxCell id="bDy4KAqwr9O_U1Q-uagQ-48" value="+ esVacia()&lt;br&gt;+esLlena()&lt;br&gt;..." style="text;strokeColor=none;fillColor=none;align=left;verticalAlign=top;spacingLeft=4;spacingRight=4;overflow=hidden;rotatable=0;points=[[0,0.5],[1,0.5]];portConstraint=eastwest;whiteSpace=wrap;html=1;" vertex="1" parent="bDy4KAqwr9O_U1Q-uagQ-45">
          <mxGeometry y="34" width="160" height="56" as="geometry" />
        </mxCell>
        <mxCell id="bDy4KAqwr9O_U1Q-uagQ-51" value="" style="endArrow=block;endSize=16;endFill=0;html=1;rounded=0;exitX=1;exitY=0.5;exitDx=0;exitDy=0;entryX=-0.016;entryY=0.683;entryDx=0;entryDy=0;entryPerimeter=0;" edge="1" parent="1" source="bDy4KAqwr9O_U1Q-uagQ-48" target="bDy4KAqwr9O_U1Q-uagQ-33">
          <mxGeometry width="160" relative="1" as="geometry">
            <mxPoint x="210" y="760" as="sourcePoint" />
            <mxPoint x="280" y="760" as="targetPoint" />
          </mxGeometry>
        </mxCell>
        <mxCell id="bDy4KAqwr9O_U1Q-uagQ-52" value="NodoV" style="swimlane;fontStyle=1;align=center;verticalAlign=top;childLayout=stackLayout;horizontal=1;startSize=26;horizontalStack=0;resizeParent=1;resizeParentMax=0;resizeLast=0;collapsible=1;marginBottom=0;whiteSpace=wrap;html=1;" vertex="1" parent="1">
          <mxGeometry x="480" y="410" width="120" height="150" as="geometry" />
        </mxCell>
        <mxCell id="bDy4KAqwr9O_U1Q-uagQ-53" value="- q: Vuelo&lt;br&gt;- sig: NodoV" style="text;strokeColor=none;fillColor=none;align=left;verticalAlign=top;spacingLeft=4;spacingRight=4;overflow=hidden;rotatable=0;points=[[0,0.5],[1,0.5]];portConstraint=eastwest;whiteSpace=wrap;html=1;" vertex="1" parent="bDy4KAqwr9O_U1Q-uagQ-52">
          <mxGeometry y="26" width="120" height="44" as="geometry" />
        </mxCell>
        <mxCell id="bDy4KAqwr9O_U1Q-uagQ-54" value="" style="line;strokeWidth=1;fillColor=none;align=left;verticalAlign=middle;spacingTop=-1;spacingLeft=3;spacingRight=3;rotatable=0;labelPosition=right;points=[];portConstraint=eastwest;strokeColor=inherit;" vertex="1" parent="bDy4KAqwr9O_U1Q-uagQ-52">
          <mxGeometry y="70" width="120" height="8" as="geometry" />
        </mxCell>
        <mxCell id="bDy4KAqwr9O_U1Q-uagQ-55" value="+ getSig()&lt;br&gt;+ setSig()&lt;br&gt;+ getQ()&lt;br&gt;+ setQ()" style="text;strokeColor=none;fillColor=none;align=left;verticalAlign=top;spacingLeft=4;spacingRight=4;overflow=hidden;rotatable=0;points=[[0,0.5],[1,0.5]];portConstraint=eastwest;whiteSpace=wrap;html=1;" vertex="1" parent="bDy4KAqwr9O_U1Q-uagQ-52">
          <mxGeometry y="78" width="120" height="72" as="geometry" />
        </mxCell>
        <mxCell id="bDy4KAqwr9O_U1Q-uagQ-58" value="" style="endArrow=diamondThin;endFill=1;endSize=24;html=1;rounded=0;exitX=-0.032;exitY=0.644;exitDx=0;exitDy=0;exitPerimeter=0;entryX=1.018;entryY=1.007;entryDx=0;entryDy=0;entryPerimeter=0;" edge="1" parent="1" source="bDy4KAqwr9O_U1Q-uagQ-10" target="bDy4KAqwr9O_U1Q-uagQ-53">
          <mxGeometry width="160" relative="1" as="geometry">
            <mxPoint x="680" y="479.57" as="sourcePoint" />
            <mxPoint x="610" y="479.57" as="targetPoint" />
          </mxGeometry>
        </mxCell>
        <mxCell id="bDy4KAqwr9O_U1Q-uagQ-60" value="ListaSimpleV" style="swimlane;fontStyle=1;align=center;verticalAlign=top;childLayout=stackLayout;horizontal=1;startSize=26;horizontalStack=0;resizeParent=1;resizeParentMax=0;resizeLast=0;collapsible=1;marginBottom=0;whiteSpace=wrap;html=1;" vertex="1" parent="1">
          <mxGeometry x="300" y="425" width="120" height="110" as="geometry" />
        </mxCell>
        <mxCell id="bDy4KAqwr9O_U1Q-uagQ-61" value="# P: NodoV" style="text;strokeColor=none;fillColor=none;align=left;verticalAlign=top;spacingLeft=4;spacingRight=4;overflow=hidden;rotatable=0;points=[[0,0.5],[1,0.5]];portConstraint=eastwest;whiteSpace=wrap;html=1;" vertex="1" parent="bDy4KAqwr9O_U1Q-uagQ-60">
          <mxGeometry y="26" width="120" height="26" as="geometry" />
        </mxCell>
        <mxCell id="bDy4KAqwr9O_U1Q-uagQ-62" value="" style="line;strokeWidth=1;fillColor=none;align=left;verticalAlign=middle;spacingTop=-1;spacingLeft=3;spacingRight=3;rotatable=0;labelPosition=right;points=[];portConstraint=eastwest;strokeColor=inherit;" vertex="1" parent="bDy4KAqwr9O_U1Q-uagQ-60">
          <mxGeometry y="52" width="120" height="8" as="geometry" />
        </mxCell>
        <mxCell id="bDy4KAqwr9O_U1Q-uagQ-63" value="+ ListaSimpleV()&lt;br&gt;+ setP()&lt;br&gt;+ getP()" style="text;strokeColor=none;fillColor=none;align=left;verticalAlign=top;spacingLeft=4;spacingRight=4;overflow=hidden;rotatable=0;points=[[0,0.5],[1,0.5]];portConstraint=eastwest;whiteSpace=wrap;html=1;" vertex="1" parent="bDy4KAqwr9O_U1Q-uagQ-60">
          <mxGeometry y="60" width="120" height="50" as="geometry" />
        </mxCell>
        <mxCell id="bDy4KAqwr9O_U1Q-uagQ-70" value="" style="endArrow=none;html=1;edgeStyle=orthogonalEdgeStyle;rounded=0;exitX=1.025;exitY=0.896;exitDx=0;exitDy=0;exitPerimeter=0;entryX=-0.002;entryY=0.87;entryDx=0;entryDy=0;entryPerimeter=0;" edge="1" parent="1" source="bDy4KAqwr9O_U1Q-uagQ-61" target="bDy4KAqwr9O_U1Q-uagQ-53">
          <mxGeometry relative="1" as="geometry">
            <mxPoint x="350" y="484.57" as="sourcePoint" />
            <mxPoint x="470" y="484.93" as="targetPoint" />
          </mxGeometry>
        </mxCell>
        <mxCell id="bDy4KAqwr9O_U1Q-uagQ-74" value="LS_NormalV" style="swimlane;fontStyle=1;align=center;verticalAlign=top;childLayout=stackLayout;horizontal=1;startSize=26;horizontalStack=0;resizeParent=1;resizeParentMax=0;resizeLast=0;collapsible=1;marginBottom=0;whiteSpace=wrap;html=1;" vertex="1" parent="1">
          <mxGeometry x="80" y="425" width="120" height="140" as="geometry" />
        </mxCell>
        <mxCell id="bDy4KAqwr9O_U1Q-uagQ-75" value="# P: NodoV" style="text;strokeColor=none;fillColor=none;align=left;verticalAlign=top;spacingLeft=4;spacingRight=4;overflow=hidden;rotatable=0;points=[[0,0.5],[1,0.5]];portConstraint=eastwest;whiteSpace=wrap;html=1;" vertex="1" parent="bDy4KAqwr9O_U1Q-uagQ-74">
          <mxGeometry y="26" width="120" height="26" as="geometry" />
        </mxCell>
        <mxCell id="bDy4KAqwr9O_U1Q-uagQ-76" value="" style="line;strokeWidth=1;fillColor=none;align=left;verticalAlign=middle;spacingTop=-1;spacingLeft=3;spacingRight=3;rotatable=0;labelPosition=right;points=[];portConstraint=eastwest;strokeColor=inherit;" vertex="1" parent="bDy4KAqwr9O_U1Q-uagQ-74">
          <mxGeometry y="52" width="120" height="8" as="geometry" />
        </mxCell>
        <mxCell id="bDy4KAqwr9O_U1Q-uagQ-77" value="+ LS_NormalV()&lt;br&gt;+ nroNodo()&lt;br&gt;+ adiFinal()&lt;br&gt;..." style="text;strokeColor=none;fillColor=none;align=left;verticalAlign=top;spacingLeft=4;spacingRight=4;overflow=hidden;rotatable=0;points=[[0,0.5],[1,0.5]];portConstraint=eastwest;whiteSpace=wrap;html=1;" vertex="1" parent="bDy4KAqwr9O_U1Q-uagQ-74">
          <mxGeometry y="60" width="120" height="80" as="geometry" />
        </mxCell>
        <mxCell id="bDy4KAqwr9O_U1Q-uagQ-78" value="" style="endArrow=block;endSize=16;endFill=0;html=1;rounded=0;entryX=0.027;entryY=1.115;entryDx=0;entryDy=0;entryPerimeter=0;exitX=1;exitY=0;exitDx=0;exitDy=0;exitPerimeter=0;" edge="1" parent="1" source="bDy4KAqwr9O_U1Q-uagQ-77" target="bDy4KAqwr9O_U1Q-uagQ-61">
          <mxGeometry width="160" relative="1" as="geometry">
            <mxPoint x="220" y="480" as="sourcePoint" />
            <mxPoint x="290" y="479.64" as="targetPoint" />
          </mxGeometry>
        </mxCell>
        <mxCell id="bDy4KAqwr9O_U1Q-uagQ-79" value="" style="endArrow=block;startArrow=block;endFill=1;startFill=1;html=1;rounded=0;exitX=0.984;exitY=0.325;exitDx=0;exitDy=0;exitPerimeter=0;entryX=1.036;entryY=0.421;entryDx=0;entryDy=0;entryPerimeter=0;" edge="1" parent="1" source="bDy4KAqwr9O_U1Q-uagQ-2" target="bDy4KAqwr9O_U1Q-uagQ-6">
          <mxGeometry width="160" relative="1" as="geometry">
            <mxPoint x="780" y="949.64" as="sourcePoint" />
            <mxPoint x="810" y="730" as="targetPoint" />
            <Array as="points">
              <mxPoint x="810" y="924" />
              <mxPoint x="810" y="737" />
            </Array>
          </mxGeometry>
        </mxCell>
        <mxCell id="bDy4KAqwr9O_U1Q-uagQ-80" value="" style="endArrow=block;startArrow=block;endFill=1;startFill=1;html=1;rounded=0;exitX=1.023;exitY=0.104;exitDx=0;exitDy=0;exitPerimeter=0;entryX=1.023;entryY=0.141;entryDx=0;entryDy=0;entryPerimeter=0;" edge="1" parent="1" source="bDy4KAqwr9O_U1Q-uagQ-10" target="bDy4KAqwr9O_U1Q-uagQ-6">
          <mxGeometry width="160" relative="1" as="geometry">
            <mxPoint x="800" y="425" as="sourcePoint" />
            <mxPoint x="960" y="425" as="targetPoint" />
            <Array as="points">
              <mxPoint x="810" y="423" />
              <mxPoint x="810" y="716" />
            </Array>
          </mxGeometry>
        </mxCell>
        <mxCell id="bDy4KAqwr9O_U1Q-uagQ-81" value="NodoSV" style="swimlane;fontStyle=1;align=center;verticalAlign=top;childLayout=stackLayout;horizontal=1;startSize=26;horizontalStack=0;resizeParent=1;resizeParentMax=0;resizeLast=0;collapsible=1;marginBottom=0;whiteSpace=wrap;html=1;" vertex="1" parent="1">
          <mxGeometry x="100" y="196" width="120" height="150" as="geometry" />
        </mxCell>
        <mxCell id="bDy4KAqwr9O_U1Q-uagQ-82" value="- q: T&lt;br&gt;- sig: NodoSV" style="text;strokeColor=none;fillColor=none;align=left;verticalAlign=top;spacingLeft=4;spacingRight=4;overflow=hidden;rotatable=0;points=[[0,0.5],[1,0.5]];portConstraint=eastwest;whiteSpace=wrap;html=1;" vertex="1" parent="bDy4KAqwr9O_U1Q-uagQ-81">
          <mxGeometry y="26" width="120" height="44" as="geometry" />
        </mxCell>
        <mxCell id="bDy4KAqwr9O_U1Q-uagQ-83" value="" style="line;strokeWidth=1;fillColor=none;align=left;verticalAlign=middle;spacingTop=-1;spacingLeft=3;spacingRight=3;rotatable=0;labelPosition=right;points=[];portConstraint=eastwest;strokeColor=inherit;" vertex="1" parent="bDy4KAqwr9O_U1Q-uagQ-81">
          <mxGeometry y="70" width="120" height="8" as="geometry" />
        </mxCell>
        <mxCell id="bDy4KAqwr9O_U1Q-uagQ-84" value="+ getSig()&lt;br&gt;+ setSig()&lt;br&gt;+ getQ()&lt;br&gt;+ setQ()" style="text;strokeColor=none;fillColor=none;align=left;verticalAlign=top;spacingLeft=4;spacingRight=4;overflow=hidden;rotatable=0;points=[[0,0.5],[1,0.5]];portConstraint=eastwest;whiteSpace=wrap;html=1;" vertex="1" parent="bDy4KAqwr9O_U1Q-uagQ-81">
          <mxGeometry y="78" width="120" height="72" as="geometry" />
        </mxCell>
        <mxCell id="bDy4KAqwr9O_U1Q-uagQ-85" value="ListaSimpleSV" style="swimlane;fontStyle=1;align=center;verticalAlign=top;childLayout=stackLayout;horizontal=1;startSize=26;horizontalStack=0;resizeParent=1;resizeParentMax=0;resizeLast=0;collapsible=1;marginBottom=0;whiteSpace=wrap;html=1;" vertex="1" parent="1">
          <mxGeometry x="340" y="196" width="170" height="118" as="geometry" />
        </mxCell>
        <mxCell id="bDy4KAqwr9O_U1Q-uagQ-86" value="# P: NodoSV" style="text;strokeColor=none;fillColor=none;align=left;verticalAlign=top;spacingLeft=4;spacingRight=4;overflow=hidden;rotatable=0;points=[[0,0.5],[1,0.5]];portConstraint=eastwest;whiteSpace=wrap;html=1;" vertex="1" parent="bDy4KAqwr9O_U1Q-uagQ-85">
          <mxGeometry y="26" width="170" height="34" as="geometry" />
        </mxCell>
        <mxCell id="bDy4KAqwr9O_U1Q-uagQ-87" value="" style="line;strokeWidth=1;fillColor=none;align=left;verticalAlign=middle;spacingTop=-1;spacingLeft=3;spacingRight=3;rotatable=0;labelPosition=right;points=[];portConstraint=eastwest;strokeColor=inherit;" vertex="1" parent="bDy4KAqwr9O_U1Q-uagQ-85">
          <mxGeometry y="60" width="170" height="8" as="geometry" />
        </mxCell>
        <mxCell id="bDy4KAqwr9O_U1Q-uagQ-88" value="+ ListaSimpleSV()&lt;br&gt;+ setP()&lt;br&gt;+ getP()" style="text;strokeColor=none;fillColor=none;align=left;verticalAlign=top;spacingLeft=4;spacingRight=4;overflow=hidden;rotatable=0;points=[[0,0.5],[1,0.5]];portConstraint=eastwest;whiteSpace=wrap;html=1;" vertex="1" parent="bDy4KAqwr9O_U1Q-uagQ-85">
          <mxGeometry y="68" width="170" height="50" as="geometry" />
        </mxCell>
        <mxCell id="bDy4KAqwr9O_U1Q-uagQ-93" value="LS_NormalSV" style="swimlane;fontStyle=1;align=center;verticalAlign=top;childLayout=stackLayout;horizontal=1;startSize=26;horizontalStack=0;resizeParent=1;resizeParentMax=0;resizeLast=0;collapsible=1;marginBottom=0;whiteSpace=wrap;html=1;" vertex="1" parent="1">
          <mxGeometry x="660" y="174" width="120" height="140" as="geometry" />
        </mxCell>
        <mxCell id="bDy4KAqwr9O_U1Q-uagQ-94" value="# P: NodoSV" style="text;strokeColor=none;fillColor=none;align=left;verticalAlign=top;spacingLeft=4;spacingRight=4;overflow=hidden;rotatable=0;points=[[0,0.5],[1,0.5]];portConstraint=eastwest;whiteSpace=wrap;html=1;" vertex="1" parent="bDy4KAqwr9O_U1Q-uagQ-93">
          <mxGeometry y="26" width="120" height="26" as="geometry" />
        </mxCell>
        <mxCell id="bDy4KAqwr9O_U1Q-uagQ-95" value="" style="line;strokeWidth=1;fillColor=none;align=left;verticalAlign=middle;spacingTop=-1;spacingLeft=3;spacingRight=3;rotatable=0;labelPosition=right;points=[];portConstraint=eastwest;strokeColor=inherit;" vertex="1" parent="bDy4KAqwr9O_U1Q-uagQ-93">
          <mxGeometry y="52" width="120" height="8" as="geometry" />
        </mxCell>
        <mxCell id="bDy4KAqwr9O_U1Q-uagQ-96" value="+ LS_NormalSV()&lt;br&gt;+ nroNodos()&lt;br&gt;+ adiFinal()&lt;br&gt;..." style="text;strokeColor=none;fillColor=none;align=left;verticalAlign=top;spacingLeft=4;spacingRight=4;overflow=hidden;rotatable=0;points=[[0,0.5],[1,0.5]];portConstraint=eastwest;whiteSpace=wrap;html=1;" vertex="1" parent="bDy4KAqwr9O_U1Q-uagQ-93">
          <mxGeometry y="60" width="120" height="80" as="geometry" />
        </mxCell>
        <mxCell id="bDy4KAqwr9O_U1Q-uagQ-98" value="" style="endArrow=block;endSize=16;endFill=0;html=1;rounded=0;entryX=1.03;entryY=1.062;entryDx=0;entryDy=0;entryPerimeter=0;exitX=0.015;exitY=0.287;exitDx=0;exitDy=0;exitPerimeter=0;" edge="1" parent="1" source="bDy4KAqwr9O_U1Q-uagQ-96" target="bDy4KAqwr9O_U1Q-uagQ-86">
          <mxGeometry width="160" relative="1" as="geometry">
            <mxPoint x="490" y="350" as="sourcePoint" />
            <mxPoint x="650" y="350" as="targetPoint" />
          </mxGeometry>
        </mxCell>
        <mxCell id="bDy4KAqwr9O_U1Q-uagQ-104" value="" style="endArrow=none;html=1;edgeStyle=orthogonalEdgeStyle;rounded=0;exitX=1.028;exitY=0.737;exitDx=0;exitDy=0;exitPerimeter=0;entryX=-0.025;entryY=0.938;entryDx=0;entryDy=0;entryPerimeter=0;" edge="1" parent="1" source="bDy4KAqwr9O_U1Q-uagQ-82" target="bDy4KAqwr9O_U1Q-uagQ-86">
          <mxGeometry relative="1" as="geometry">
            <mxPoint x="250" y="260" as="sourcePoint" />
            <mxPoint x="380" y="260" as="targetPoint" />
          </mxGeometry>
        </mxCell>
        <mxCell id="bDy4KAqwr9O_U1Q-uagQ-107" value="" style="endArrow=diamondThin;endFill=1;endSize=24;html=1;rounded=0;entryX=-0.031;entryY=0.288;entryDx=0;entryDy=0;entryPerimeter=0;exitX=0.014;exitY=1.115;exitDx=0;exitDy=0;exitPerimeter=0;" edge="1" parent="1" source="bDy4KAqwr9O_U1Q-uagQ-75" target="bDy4KAqwr9O_U1Q-uagQ-82">
          <mxGeometry width="160" relative="1" as="geometry">
            <mxPoint x="10" y="479.33" as="sourcePoint" />
            <mxPoint x="-150" y="479.33" as="targetPoint" />
            <Array as="points">
              <mxPoint x="50" y="480" />
              <mxPoint x="50" y="235" />
            </Array>
          </mxGeometry>
        </mxCell>
        <mxCell id="bDy4KAqwr9O_U1Q-uagQ-108" value="" style="endArrow=diamondThin;endFill=1;endSize=24;html=1;rounded=0;entryX=0;entryY=0.5;entryDx=0;entryDy=0;exitX=0.01;exitY=0.19;exitDx=0;exitDy=0;exitPerimeter=0;" edge="1" parent="1" source="bDy4KAqwr9O_U1Q-uagQ-48" target="bDy4KAqwr9O_U1Q-uagQ-82">
          <mxGeometry width="160" relative="1" as="geometry">
            <mxPoint x="50" y="759.33" as="sourcePoint" />
            <mxPoint x="-110" y="759.33" as="targetPoint" />
            <Array as="points">
              <mxPoint x="40" y="755" />
              <mxPoint x="40" y="244" />
            </Array>
          </mxGeometry>
        </mxCell>
        <mxCell id="bDy4KAqwr9O_U1Q-uagQ-109" value="" style="endArrow=diamondThin;endFill=1;endSize=24;html=1;rounded=0;entryX=0;entryY=0.864;entryDx=0;entryDy=0;entryPerimeter=0;exitX=-0.015;exitY=1.013;exitDx=0;exitDy=0;exitPerimeter=0;" edge="1" parent="1" source="bDy4KAqwr9O_U1Q-uagQ-22" target="bDy4KAqwr9O_U1Q-uagQ-82">
          <mxGeometry width="160" relative="1" as="geometry">
            <mxPoint x="50" y="949.3299999999999" as="sourcePoint" />
            <mxPoint x="100" y="260" as="targetPoint" />
            <Array as="points">
              <mxPoint x="30" y="937" />
              <mxPoint x="30" y="260" />
            </Array>
          </mxGeometry>
        </mxCell>
      </root>
    </mxGraphModel>
  </diagram>
  <diagram id="KCcsLliy4OG6hln3ju4X" name="Page-7">
    <mxGraphModel dx="1966" dy="466" grid="1" gridSize="10" guides="1" tooltips="1" connect="1" arrows="1" fold="1" page="1" pageScale="1" pageWidth="850" pageHeight="1100" math="0" shadow="0">
      <root>
        <mxCell id="0" />
        <mxCell id="1" parent="0" />
        <mxCell id="HfZKcyAalVPZbGPRz8N0-1" value="Persona" style="swimlane;fontStyle=1;align=center;verticalAlign=top;childLayout=stackLayout;horizontal=1;startSize=26;horizontalStack=0;resizeParent=1;resizeParentMax=0;resizeLast=0;collapsible=1;marginBottom=0;whiteSpace=wrap;html=1;" parent="1" vertex="1">
          <mxGeometry x="10" y="610" width="160" height="130" as="geometry" />
        </mxCell>
        <mxCell id="HfZKcyAalVPZbGPRz8N0-2" value="&lt;div&gt;# ci: int&lt;/div&gt;&lt;div&gt;# nombreCompleto: String &lt;br&gt;&lt;/div&gt;&lt;div&gt;# numeroContacto: int&lt;br&gt;&lt;/div&gt;" style="text;strokeColor=none;fillColor=none;align=left;verticalAlign=top;spacingLeft=4;spacingRight=4;overflow=hidden;rotatable=0;points=[[0,0.5],[1,0.5]];portConstraint=eastwest;whiteSpace=wrap;html=1;" parent="HfZKcyAalVPZbGPRz8N0-1" vertex="1">
          <mxGeometry y="26" width="160" height="54" as="geometry" />
        </mxCell>
        <mxCell id="HfZKcyAalVPZbGPRz8N0-3" value="" style="line;strokeWidth=1;fillColor=none;align=left;verticalAlign=middle;spacingTop=-1;spacingLeft=3;spacingRight=3;rotatable=0;labelPosition=right;points=[];portConstraint=eastwest;strokeColor=inherit;" parent="HfZKcyAalVPZbGPRz8N0-1" vertex="1">
          <mxGeometry y="80" width="160" height="8" as="geometry" />
        </mxCell>
        <mxCell id="HfZKcyAalVPZbGPRz8N0-4" value="&lt;div&gt;+ getters()&lt;br&gt;+ setters()&lt;/div&gt;&lt;div&gt;&lt;br&gt;&lt;/div&gt;&lt;div&gt;&lt;br&gt;&lt;/div&gt;" style="text;strokeColor=none;fillColor=none;align=left;verticalAlign=top;spacingLeft=4;spacingRight=4;overflow=hidden;rotatable=0;points=[[0,0.5],[1,0.5]];portConstraint=eastwest;whiteSpace=wrap;html=1;" parent="HfZKcyAalVPZbGPRz8N0-1" vertex="1">
          <mxGeometry y="88" width="160" height="42" as="geometry" />
        </mxCell>
        <mxCell id="HfZKcyAalVPZbGPRz8N0-5" value="Empleado" style="swimlane;fontStyle=1;align=center;verticalAlign=top;childLayout=stackLayout;horizontal=1;startSize=26;horizontalStack=0;resizeParent=1;resizeParentMax=0;resizeLast=0;collapsible=1;marginBottom=0;whiteSpace=wrap;html=1;" parent="1" vertex="1">
          <mxGeometry x="-90" y="810" width="160" height="120" as="geometry" />
        </mxCell>
        <mxCell id="HfZKcyAalVPZbGPRz8N0-6" value="&lt;div&gt;- puestoDeTrabado: String&lt;/div&gt;&lt;div&gt;- turno: String&lt;br&gt;&lt;/div&gt;" style="text;strokeColor=none;fillColor=none;align=left;verticalAlign=top;spacingLeft=4;spacingRight=4;overflow=hidden;rotatable=0;points=[[0,0.5],[1,0.5]];portConstraint=eastwest;whiteSpace=wrap;html=1;" parent="HfZKcyAalVPZbGPRz8N0-5" vertex="1">
          <mxGeometry y="26" width="160" height="44" as="geometry" />
        </mxCell>
        <mxCell id="HfZKcyAalVPZbGPRz8N0-7" value="" style="line;strokeWidth=1;fillColor=none;align=left;verticalAlign=middle;spacingTop=-1;spacingLeft=3;spacingRight=3;rotatable=0;labelPosition=right;points=[];portConstraint=eastwest;strokeColor=inherit;" parent="HfZKcyAalVPZbGPRz8N0-5" vertex="1">
          <mxGeometry y="70" width="160" height="8" as="geometry" />
        </mxCell>
        <mxCell id="HfZKcyAalVPZbGPRz8N0-8" value="&lt;div&gt;+ getters()&lt;br&gt;+ setters()&lt;/div&gt;&lt;div&gt;&lt;br&gt;&lt;/div&gt;" style="text;strokeColor=none;fillColor=none;align=left;verticalAlign=top;spacingLeft=4;spacingRight=4;overflow=hidden;rotatable=0;points=[[0,0.5],[1,0.5]];portConstraint=eastwest;whiteSpace=wrap;html=1;" parent="HfZKcyAalVPZbGPRz8N0-5" vertex="1">
          <mxGeometry y="78" width="160" height="42" as="geometry" />
        </mxCell>
        <mxCell id="HfZKcyAalVPZbGPRz8N0-12" value="Cliente" style="swimlane;fontStyle=1;align=center;verticalAlign=top;childLayout=stackLayout;horizontal=1;startSize=26;horizontalStack=0;resizeParent=1;resizeParentMax=0;resizeLast=0;collapsible=1;marginBottom=0;whiteSpace=wrap;html=1;" parent="1" vertex="1">
          <mxGeometry x="100" y="810" width="140" height="100" as="geometry" />
        </mxCell>
        <mxCell id="HfZKcyAalVPZbGPRz8N0-13" value="&lt;div&gt;- metodoPago: String&lt;/div&gt;&lt;div&gt;&lt;br&gt;&lt;/div&gt;" style="text;strokeColor=none;fillColor=none;align=left;verticalAlign=top;spacingLeft=4;spacingRight=4;overflow=hidden;rotatable=0;points=[[0,0.5],[1,0.5]];portConstraint=eastwest;whiteSpace=wrap;html=1;" parent="HfZKcyAalVPZbGPRz8N0-12" vertex="1">
          <mxGeometry y="26" width="140" height="24" as="geometry" />
        </mxCell>
        <mxCell id="HfZKcyAalVPZbGPRz8N0-14" value="" style="line;strokeWidth=1;fillColor=none;align=left;verticalAlign=middle;spacingTop=-1;spacingLeft=3;spacingRight=3;rotatable=0;labelPosition=right;points=[];portConstraint=eastwest;strokeColor=inherit;" parent="HfZKcyAalVPZbGPRz8N0-12" vertex="1">
          <mxGeometry y="50" width="140" height="8" as="geometry" />
        </mxCell>
        <mxCell id="HfZKcyAalVPZbGPRz8N0-15" value="&lt;div&gt;+ getters()&lt;br&gt;+ setters()&lt;/div&gt;&lt;div&gt;&lt;br&gt;&lt;/div&gt;" style="text;strokeColor=none;fillColor=none;align=left;verticalAlign=top;spacingLeft=4;spacingRight=4;overflow=hidden;rotatable=0;points=[[0,0.5],[1,0.5]];portConstraint=eastwest;whiteSpace=wrap;html=1;" parent="HfZKcyAalVPZbGPRz8N0-12" vertex="1">
          <mxGeometry y="58" width="140" height="42" as="geometry" />
        </mxCell>
        <mxCell id="HfZKcyAalVPZbGPRz8N0-17" value="Personal" style="swimlane;fontStyle=1;align=center;verticalAlign=top;childLayout=stackLayout;horizontal=1;startSize=26;horizontalStack=0;resizeParent=1;resizeParentMax=0;resizeLast=0;collapsible=1;marginBottom=0;whiteSpace=wrap;html=1;" parent="1" vertex="1">
          <mxGeometry x="-520" y="810" width="305" height="210" as="geometry" />
        </mxCell>
        <mxCell id="HfZKcyAalVPZbGPRz8N0-18" value="&lt;div&gt;- listaEmpleados: Empleado[]&lt;br&gt;&lt;/div&gt;&lt;div&gt;- n: int&lt;br&gt;&lt;/div&gt;&lt;div&gt;&lt;br&gt;&lt;/div&gt;" style="text;strokeColor=none;fillColor=none;align=left;verticalAlign=top;spacingLeft=4;spacingRight=4;overflow=hidden;rotatable=0;points=[[0,0.5],[1,0.5]];portConstraint=eastwest;whiteSpace=wrap;html=1;" parent="HfZKcyAalVPZbGPRz8N0-17" vertex="1">
          <mxGeometry y="26" width="305" height="34" as="geometry" />
        </mxCell>
        <mxCell id="HfZKcyAalVPZbGPRz8N0-19" value="" style="line;strokeWidth=1;fillColor=none;align=left;verticalAlign=middle;spacingTop=-1;spacingLeft=3;spacingRight=3;rotatable=0;labelPosition=right;points=[];portConstraint=eastwest;strokeColor=inherit;" parent="HfZKcyAalVPZbGPRz8N0-17" vertex="1">
          <mxGeometry y="60" width="305" height="8" as="geometry" />
        </mxCell>
        <mxCell id="HfZKcyAalVPZbGPRz8N0-20" value="+ Contratar(a: Empleado): void&lt;br/&gt;+ Despedir(x: int): void&lt;br/&gt;+ mostrar(): void&lt;br/&gt;+ editar(x: int, a: Empleado): void&lt;br/&gt;+ getListaEmpleados(): Empleado[]&lt;br/&gt;+ setListaEmpleados(listaEmpleados: Empleado[]): void&lt;br/&gt;+ getN(): int&lt;br/&gt;+ setN(n: int): void&lt;div&gt;&lt;br/&gt;&lt;/div&gt;" style="text;strokeColor=none;fillColor=none;align=left;verticalAlign=top;spacingLeft=4;spacingRight=4;overflow=hidden;rotatable=0;points=[[0,0.5],[1,0.5]];portConstraint=eastwest;whiteSpace=wrap;html=1;" parent="HfZKcyAalVPZbGPRz8N0-17" vertex="1">
          <mxGeometry y="68" width="305" height="142" as="geometry" />
        </mxCell>
        <mxCell id="HfZKcyAalVPZbGPRz8N0-29" value="Factura" style="swimlane;fontStyle=1;align=center;verticalAlign=top;childLayout=stackLayout;horizontal=1;startSize=26;horizontalStack=0;resizeParent=1;resizeParentMax=0;resizeLast=0;collapsible=1;marginBottom=0;whiteSpace=wrap;html=1;" parent="1" vertex="1">
          <mxGeometry x="410" y="830" width="320" height="410" as="geometry" />
        </mxCell>
        <mxCell id="HfZKcyAalVPZbGPRz8N0-30" value="- id: int&lt;br/&gt;- fecha: String&lt;br/&gt;- cliente: Cliente&lt;br/&gt;- total: double&lt;br/&gt;- autopartes: Autoparte[]   &lt;div&gt;&lt;br/&gt;&lt;/div&gt;" style="text;strokeColor=none;fillColor=none;align=left;verticalAlign=top;spacingLeft=4;spacingRight=4;overflow=hidden;rotatable=0;points=[[0,0.5],[1,0.5]];portConstraint=eastwest;whiteSpace=wrap;html=1;" parent="HfZKcyAalVPZbGPRz8N0-29" vertex="1">
          <mxGeometry y="26" width="320" height="84" as="geometry" />
        </mxCell>
        <mxCell id="HfZKcyAalVPZbGPRz8N0-31" value="" style="line;strokeWidth=1;fillColor=none;align=left;verticalAlign=middle;spacingTop=-1;spacingLeft=3;spacingRight=3;rotatable=0;labelPosition=right;points=[];portConstraint=eastwest;strokeColor=inherit;" parent="HfZKcyAalVPZbGPRz8N0-29" vertex="1">
          <mxGeometry y="110" width="320" height="8" as="geometry" />
        </mxCell>
        <mxCell id="HfZKcyAalVPZbGPRz8N0-32" value="+ Factura(id: int, fecha: String,&lt;br&gt;   &lt;span style=&quot;white-space: pre;&quot;&gt;&#x9;&lt;/span&gt;horaCompra: String, total: double,&lt;br&gt;   &lt;span style=&quot;white-space: pre;&quot;&gt;&#x9;&lt;/span&gt;cliente: Cliente, autopartes: Autoparte[])&lt;br&gt;+ Factura(id: int, fecha: String,&lt;br&gt;   &lt;span style=&quot;white-space: pre;&quot;&gt;&#x9;&lt;/span&gt;horaCompra: String, cliente: Cliente,&lt;br&gt;   &lt;span style=&quot;white-space: pre;&quot;&gt;&#x9;&lt;/span&gt;autopartes: Autoparte[])&lt;br&gt;+ mostrar(): void&lt;br&gt;+ getId(): int&lt;br&gt;+ getFecha(): String&lt;br&gt;+ getTotal(): double&lt;br&gt;+ getCliente(): Cliente&lt;br&gt;+ getAutopartes(): Autoparte[]&lt;br&gt;+ setId(id: int): void&lt;br&gt;+ setFecha(fecha: String): void&lt;br&gt;+ setTotal(total: double): void&lt;br&gt;+ setCliente(cliente: Cliente): void&lt;br&gt;+ setAutopartes(autopartes: Autoparte[]): void&lt;br&gt;- calcularCostoTotal(): double&lt;br&gt;- agregarAutopartes(nuevosAutopartes: Autoparte[]): void&lt;div&gt;&lt;br&gt;&lt;/div&gt;" style="text;strokeColor=none;fillColor=none;align=left;verticalAlign=top;spacingLeft=4;spacingRight=4;overflow=hidden;rotatable=0;points=[[0,0.5],[1,0.5]];portConstraint=eastwest;whiteSpace=wrap;html=1;" parent="HfZKcyAalVPZbGPRz8N0-29" vertex="1">
          <mxGeometry y="118" width="320" height="292" as="geometry" />
        </mxCell>
        <mxCell id="HfZKcyAalVPZbGPRz8N0-33" value="Autoparte" style="swimlane;fontStyle=1;align=center;verticalAlign=top;childLayout=stackLayout;horizontal=1;startSize=26;horizontalStack=0;resizeParent=1;resizeParentMax=0;resizeLast=0;collapsible=1;marginBottom=0;whiteSpace=wrap;html=1;" parent="1" vertex="1">
          <mxGeometry x="100" y="990" width="170" height="150" as="geometry" />
        </mxCell>
        <mxCell id="HfZKcyAalVPZbGPRz8N0-34" value="&lt;div&gt;- id: int&lt;br&gt;- tipo: String&lt;/div&gt;&lt;div&gt;- precio: double&lt;/div&gt;&lt;div&gt;- marca: String&lt;br&gt;&lt;/div&gt;&lt;div&gt;- proveedor: String&lt;br&gt;&lt;/div&gt;&lt;div&gt;&lt;br&gt;&lt;/div&gt;" style="text;strokeColor=none;fillColor=none;align=left;verticalAlign=top;spacingLeft=4;spacingRight=4;overflow=hidden;rotatable=0;points=[[0,0.5],[1,0.5]];portConstraint=eastwest;whiteSpace=wrap;html=1;" parent="HfZKcyAalVPZbGPRz8N0-33" vertex="1">
          <mxGeometry y="26" width="170" height="74" as="geometry" />
        </mxCell>
        <mxCell id="HfZKcyAalVPZbGPRz8N0-35" value="" style="line;strokeWidth=1;fillColor=none;align=left;verticalAlign=middle;spacingTop=-1;spacingLeft=3;spacingRight=3;rotatable=0;labelPosition=right;points=[];portConstraint=eastwest;strokeColor=inherit;" parent="HfZKcyAalVPZbGPRz8N0-33" vertex="1">
          <mxGeometry y="100" width="170" height="8" as="geometry" />
        </mxCell>
        <mxCell id="HfZKcyAalVPZbGPRz8N0-36" value="&lt;div&gt;+ getters()&lt;br&gt;+ setters()&lt;/div&gt;&lt;div&gt;&lt;br&gt;&lt;/div&gt;" style="text;strokeColor=none;fillColor=none;align=left;verticalAlign=top;spacingLeft=4;spacingRight=4;overflow=hidden;rotatable=0;points=[[0,0.5],[1,0.5]];portConstraint=eastwest;whiteSpace=wrap;html=1;" parent="HfZKcyAalVPZbGPRz8N0-33" vertex="1">
          <mxGeometry y="108" width="170" height="42" as="geometry" />
        </mxCell>
        <mxCell id="HfZKcyAalVPZbGPRz8N0-41" value="Almacen" style="swimlane;fontStyle=1;align=center;verticalAlign=top;childLayout=stackLayout;horizontal=1;startSize=26;horizontalStack=0;resizeParent=1;resizeParentMax=0;resizeLast=0;collapsible=1;marginBottom=0;whiteSpace=wrap;html=1;" parent="1" vertex="1">
          <mxGeometry x="30" y="1310" width="370" height="240" as="geometry" />
        </mxCell>
        <mxCell id="HfZKcyAalVPZbGPRz8N0-42" value="- autopartes: Autoparte[]&lt;br&gt;- n: &lt;span class=&quot;hljs-keyword&quot;&gt;int&lt;/span&gt; " style="text;strokeColor=none;fillColor=none;align=left;verticalAlign=top;spacingLeft=4;spacingRight=4;overflow=hidden;rotatable=0;points=[[0,0.5],[1,0.5]];portConstraint=eastwest;whiteSpace=wrap;html=1;" parent="HfZKcyAalVPZbGPRz8N0-41" vertex="1">
          <mxGeometry y="26" width="370" height="44" as="geometry" />
        </mxCell>
        <mxCell id="HfZKcyAalVPZbGPRz8N0-43" value="" style="line;strokeWidth=1;fillColor=none;align=left;verticalAlign=middle;spacingTop=-1;spacingLeft=3;spacingRight=3;rotatable=0;labelPosition=right;points=[];portConstraint=eastwest;strokeColor=inherit;" parent="HfZKcyAalVPZbGPRz8N0-41" vertex="1">
          <mxGeometry y="70" width="370" height="8" as="geometry" />
        </mxCell>
        <mxCell id="HfZKcyAalVPZbGPRz8N0-44" value="+ aumentarStock(id: int, c: int): void&lt;br/&gt;+ reducirStock(id: int): void&lt;br/&gt;+ mostrar(): void&lt;br/&gt;+ getN(): int&lt;br/&gt;+ setN(n: int): void&lt;br/&gt;+ anadir(x: Autoparte): void&lt;br/&gt;+ editar(id: int, a: Autoparte): void&lt;br/&gt;+ eliminar(id: int): void&lt;br/&gt;+ getAutopartes(): Autoparte[]&lt;br/&gt;+ setAutopartes(autopartes: Autoparte[]): void&lt;div&gt;&lt;br/&gt;&lt;/div&gt;" style="text;strokeColor=none;fillColor=none;align=left;verticalAlign=top;spacingLeft=4;spacingRight=4;overflow=hidden;rotatable=0;points=[[0,0.5],[1,0.5]];portConstraint=eastwest;whiteSpace=wrap;html=1;" parent="HfZKcyAalVPZbGPRz8N0-41" vertex="1">
          <mxGeometry y="78" width="370" height="162" as="geometry" />
        </mxCell>
        <mxCell id="VIS7IkRf9EXSqeyhbcrE-7" value="" style="endArrow=close;html=1;endSize=12;startArrow=diamondThin;startSize=14;startFill=0;edgeStyle=orthogonalEdgeStyle;rounded=0;entryX=1;entryY=0.5;entryDx=0;entryDy=0;exitX=-0.001;exitY=0.362;exitDx=0;exitDy=0;exitPerimeter=0;" parent="1" source="HfZKcyAalVPZbGPRz8N0-32" target="HfZKcyAalVPZbGPRz8N0-34" edge="1">
          <mxGeometry relative="1" as="geometry">
            <mxPoint x="390" y="1050" as="sourcePoint" />
            <mxPoint x="440" y="1120" as="targetPoint" />
            <Array as="points">
              <mxPoint x="390" y="1054" />
              <mxPoint x="350" y="1053" />
            </Array>
          </mxGeometry>
        </mxCell>
        <mxCell id="VIS7IkRf9EXSqeyhbcrE-9" value="n..n" style="edgeLabel;resizable=0;html=1;align=right;verticalAlign=top;" parent="VIS7IkRf9EXSqeyhbcrE-7" connectable="0" vertex="1">
          <mxGeometry x="1" relative="1" as="geometry">
            <mxPoint x="30" as="offset" />
          </mxGeometry>
        </mxCell>
        <mxCell id="VIS7IkRf9EXSqeyhbcrE-10" value="" style="endArrow=close;html=1;endSize=12;startArrow=diamondThin;startSize=14;startFill=0;edgeStyle=orthogonalEdgeStyle;rounded=0;exitX=-0.013;exitY=0.139;exitDx=0;exitDy=0;exitPerimeter=0;entryX=1.012;entryY=-0.032;entryDx=0;entryDy=0;entryPerimeter=0;" parent="1" source="HfZKcyAalVPZbGPRz8N0-30" target="HfZKcyAalVPZbGPRz8N0-15" edge="1">
          <mxGeometry relative="1" as="geometry">
            <mxPoint x="340" y="869.66" as="sourcePoint" />
            <mxPoint x="260" y="867" as="targetPoint" />
            <Array as="points">
              <mxPoint x="296" y="868" />
              <mxPoint x="296" y="867" />
            </Array>
          </mxGeometry>
        </mxCell>
        <mxCell id="VIS7IkRf9EXSqeyhbcrE-11" value="1..n" style="edgeLabel;resizable=0;html=1;align=right;verticalAlign=top;" parent="VIS7IkRf9EXSqeyhbcrE-10" connectable="0" vertex="1">
          <mxGeometry x="1" relative="1" as="geometry">
            <mxPoint x="30" as="offset" />
          </mxGeometry>
        </mxCell>
        <mxCell id="VIS7IkRf9EXSqeyhbcrE-14" value="" style="endArrow=close;html=1;endSize=12;startArrow=diamondThin;startSize=14;startFill=0;edgeStyle=orthogonalEdgeStyle;rounded=0;entryX=0;entryY=0.773;entryDx=0;entryDy=0;entryPerimeter=0;exitX=1.014;exitY=0.873;exitDx=0;exitDy=0;exitPerimeter=0;" parent="1" source="HfZKcyAalVPZbGPRz8N0-18" target="HfZKcyAalVPZbGPRz8N0-6" edge="1">
          <mxGeometry relative="1" as="geometry">
            <mxPoint x="-180" y="870" as="sourcePoint" />
            <mxPoint x="-200" y="870" as="targetPoint" />
            <Array as="points">
              <mxPoint x="-90" y="866" />
            </Array>
          </mxGeometry>
        </mxCell>
        <mxCell id="VIS7IkRf9EXSqeyhbcrE-15" value="n..1" style="edgeLabel;resizable=0;html=1;align=right;verticalAlign=top;" parent="VIS7IkRf9EXSqeyhbcrE-14" connectable="0" vertex="1">
          <mxGeometry x="1" relative="1" as="geometry">
            <mxPoint x="-10" as="offset" />
          </mxGeometry>
        </mxCell>
        <mxCell id="VIS7IkRf9EXSqeyhbcrE-16" value="" style="endArrow=close;html=1;endSize=12;startArrow=diamondThin;startSize=14;startFill=0;edgeStyle=orthogonalEdgeStyle;rounded=0;exitX=0.421;exitY=0;exitDx=0;exitDy=0;exitPerimeter=0;" parent="1" source="HfZKcyAalVPZbGPRz8N0-41" edge="1">
          <mxGeometry relative="1" as="geometry">
            <mxPoint x="170" y="1240" as="sourcePoint" />
            <mxPoint x="180" y="1140" as="targetPoint" />
            <Array as="points" />
          </mxGeometry>
        </mxCell>
        <mxCell id="VIS7IkRf9EXSqeyhbcrE-17" value="n..1" style="edgeLabel;resizable=0;html=1;align=right;verticalAlign=top;" parent="VIS7IkRf9EXSqeyhbcrE-16" connectable="0" vertex="1">
          <mxGeometry x="1" relative="1" as="geometry">
            <mxPoint x="30" as="offset" />
          </mxGeometry>
        </mxCell>
        <mxCell id="VIS7IkRf9EXSqeyhbcrE-19" value="Ventas" style="swimlane;fontStyle=1;align=center;verticalAlign=top;childLayout=stackLayout;horizontal=1;startSize=26;horizontalStack=0;resizeParent=1;resizeParentMax=0;resizeLast=0;collapsible=1;marginBottom=0;whiteSpace=wrap;html=1;" parent="1" vertex="1">
          <mxGeometry x="365" y="530" width="270" height="220" as="geometry" />
        </mxCell>
        <mxCell id="VIS7IkRf9EXSqeyhbcrE-20" value="&lt;div&gt;- listaDeVentas: Factura[]&lt;br&gt;&lt;/div&gt;&lt;div&gt;- almacen: Almacen&lt;br&gt;&lt;/div&gt;&lt;div&gt;&lt;br&gt;&lt;/div&gt;" style="text;strokeColor=none;fillColor=none;align=left;verticalAlign=top;spacingLeft=4;spacingRight=4;overflow=hidden;rotatable=0;points=[[0,0.5],[1,0.5]];portConstraint=eastwest;whiteSpace=wrap;html=1;" parent="VIS7IkRf9EXSqeyhbcrE-19" vertex="1">
          <mxGeometry y="26" width="270" height="34" as="geometry" />
        </mxCell>
        <mxCell id="VIS7IkRf9EXSqeyhbcrE-21" value="" style="line;strokeWidth=1;fillColor=none;align=left;verticalAlign=middle;spacingTop=-1;spacingLeft=3;spacingRight=3;rotatable=0;labelPosition=right;points=[];portConstraint=eastwest;strokeColor=inherit;" parent="VIS7IkRf9EXSqeyhbcrE-19" vertex="1">
          <mxGeometry y="60" width="270" height="8" as="geometry" />
        </mxCell>
        <mxCell id="VIS7IkRf9EXSqeyhbcrE-22" value="&lt;div&gt;+ getters()&lt;br&gt;+ setters()&lt;/div&gt;&lt;div&gt;+ vender(&lt;/div&gt;&lt;div&gt;&lt;span style=&quot;white-space: pre;&quot;&gt;&#x9;&lt;/span&gt;fecha: String, hora: String,&lt;br&gt;&lt;/div&gt;&lt;div&gt;&lt;span style=&quot;white-space: pre;&quot;&gt;&#x9;&lt;/span&gt;a: Autoparte[], c: Cliente&lt;/div&gt;&lt;div&gt;&lt;span style=&quot;white-space: pre;&quot;&gt;&#x9;&lt;/span&gt;): Factura&lt;/div&gt;&lt;div&gt;+ traerCompras(ci: int): Factura[]&lt;br&gt;+ traerComprasFecha(fecha: String): Autoparte[]&lt;br&gt;&lt;/div&gt;+ traerTodasLasVentas(): Factura[]&lt;br&gt;+ leerDatosGuardados()" style="text;strokeColor=none;fillColor=none;align=left;verticalAlign=top;spacingLeft=4;spacingRight=4;overflow=hidden;rotatable=0;points=[[0,0.5],[1,0.5]];portConstraint=eastwest;whiteSpace=wrap;html=1;" parent="VIS7IkRf9EXSqeyhbcrE-19" vertex="1">
          <mxGeometry y="68" width="270" height="152" as="geometry" />
        </mxCell>
        <mxCell id="VIS7IkRf9EXSqeyhbcrE-23" value="" style="endArrow=close;html=1;endSize=12;startArrow=diamondThin;startSize=14;startFill=0;edgeStyle=orthogonalEdgeStyle;rounded=0;exitX=0.5;exitY=1;exitDx=0;exitDy=0;exitPerimeter=0;entryX=0.331;entryY=-0.01;entryDx=0;entryDy=0;entryPerimeter=0;" parent="1" source="VIS7IkRf9EXSqeyhbcrE-22" target="HfZKcyAalVPZbGPRz8N0-29" edge="1">
          <mxGeometry relative="1" as="geometry">
            <mxPoint x="449.6999999999998" y="680.0040000000001" as="sourcePoint" />
            <mxPoint x="450" y="780" as="targetPoint" />
            <Array as="points">
              <mxPoint x="500" y="790" />
              <mxPoint x="516" y="790" />
            </Array>
          </mxGeometry>
        </mxCell>
        <mxCell id="VIS7IkRf9EXSqeyhbcrE-24" value="n..n" style="edgeLabel;resizable=0;html=1;align=right;verticalAlign=top;" parent="VIS7IkRf9EXSqeyhbcrE-23" connectable="0" vertex="1">
          <mxGeometry x="1" relative="1" as="geometry">
            <mxPoint x="25" y="-30" as="offset" />
          </mxGeometry>
        </mxCell>
        <mxCell id="VIS7IkRf9EXSqeyhbcrE-34" value="es una" style="endArrow=block;endSize=16;endFill=0;html=1;rounded=0;entryX=0.286;entryY=1.071;entryDx=0;entryDy=0;entryPerimeter=0;exitX=0.448;exitY=-0.01;exitDx=0;exitDy=0;exitPerimeter=0;" parent="1" source="HfZKcyAalVPZbGPRz8N0-5" target="HfZKcyAalVPZbGPRz8N0-4" edge="1">
          <mxGeometry width="160" relative="1" as="geometry">
            <mxPoint x="-175" y="740" as="sourcePoint" />
            <mxPoint x="-15" y="740" as="targetPoint" />
          </mxGeometry>
        </mxCell>
        <mxCell id="VIS7IkRf9EXSqeyhbcrE-35" value="es una" style="endArrow=block;endSize=16;endFill=0;html=1;rounded=0;entryX=0.563;entryY=1.012;entryDx=0;entryDy=0;entryPerimeter=0;exitX=0.5;exitY=0;exitDx=0;exitDy=0;" parent="1" source="HfZKcyAalVPZbGPRz8N0-12" target="HfZKcyAalVPZbGPRz8N0-4" edge="1">
          <mxGeometry width="160" relative="1" as="geometry">
            <mxPoint x="20" y="806" as="sourcePoint" />
            <mxPoint x="104" y="750" as="targetPoint" />
          </mxGeometry>
        </mxCell>
        <mxCell id="0hhvpNClcyMSBjoHs_y3-1" value="Sistema" style="swimlane;fontStyle=1;align=center;verticalAlign=top;childLayout=stackLayout;horizontal=1;startSize=26;horizontalStack=0;resizeParent=1;resizeParentMax=0;resizeLast=0;collapsible=1;marginBottom=0;whiteSpace=wrap;html=1;" parent="1" vertex="1">
          <mxGeometry x="-600" y="1130" width="500" height="560" as="geometry" />
        </mxCell>
        <mxCell id="0hhvpNClcyMSBjoHs_y3-2" value="&lt;div&gt;- almacen: Almacens&lt;/div&gt;&lt;div&gt;- ventas: Ventass&amp;nbsp;&lt;/div&gt;&lt;div&gt;- personal: Personal&amp;nbsp;&lt;/div&gt;&lt;div&gt;- clientes: ListaClientes&lt;br/&gt;&lt;/div&gt;" style="text;strokeColor=none;fillColor=none;align=left;verticalAlign=top;spacingLeft=4;spacingRight=4;overflow=hidden;rotatable=0;points=[[0,0.5],[1,0.5]];portConstraint=eastwest;whiteSpace=wrap;html=1;" parent="0hhvpNClcyMSBjoHs_y3-1" vertex="1">
          <mxGeometry y="26" width="500" height="74" as="geometry" />
        </mxCell>
        <mxCell id="0hhvpNClcyMSBjoHs_y3-3" value="" style="line;strokeWidth=1;fillColor=none;align=left;verticalAlign=middle;spacingTop=-1;spacingLeft=3;spacingRight=3;rotatable=0;labelPosition=right;points=[];portConstraint=eastwest;strokeColor=inherit;" parent="0hhvpNClcyMSBjoHs_y3-1" vertex="1">
          <mxGeometry y="100" width="500" height="8" as="geometry" />
        </mxCell>
        <mxCell id="0hhvpNClcyMSBjoHs_y3-4" value="+ vender(idv: int, fecha: String,&lt;br&gt;    &lt;span style=&quot;white-space: pre;&quot;&gt;&#x9;&lt;/span&gt;hora: String, idci: int,&lt;br&gt;    &lt;span style=&quot;white-space: pre;&quot;&gt;&#x9;&lt;/span&gt;idauton: int[], nro: int): void&lt;br&gt;+ mostrarVentasMayorX(x: double): void&lt;br&gt;+ mostrarVentasFecha(x: String): void&lt;br&gt;+ mostrarEmpleadoPuesto(rol: String): void&lt;br&gt;+ mostrarEmpleadoTurno(horario: String): void&lt;br&gt;+ mostrarAutoPmarca(m: String): void&lt;br&gt;+ mostrarAutoPagotada(): void&lt;br&gt;+ mostrarEmpNro(nro: int): void&lt;br&gt;+ buscarAutopartes(id: int[], nro: int): Autoparte[]&lt;br&gt;+ buscarCliente(ci: int): Cliente&lt;br&gt;+ anadirautoparte(a: Autoparte): void&lt;br&gt;+ editarautoparte(a: Autoparte, id: int): void&lt;br&gt;+ eliminarautoparte(id: int): void&lt;br&gt;+ anadirVenta(a: Factura): void&lt;br&gt;+ eliminarVenta(id: int): void&lt;br&gt;+ anadirPersonal(a: Empleado): void&lt;br&gt;+ editarPersonal(a: Empleado, id: int): void&lt;br&gt;+ eliminarPersonal(id: int): void&lt;br&gt;+ anadirCliente(a: Cliente): void&lt;br&gt;+ editarCliente(a: Cliente, id: int): void&lt;br&gt;+ eliminarCliente(id: int): void&lt;br&gt;+ getClientes(): ListaClientes&lt;br&gt;+ setClientes(clientes: ListaClientes): void&lt;br&gt;+ getAlmacen(): Almacens&lt;br&gt;+ getVentas(): Ventass&lt;br&gt;+ setVentas(ventas: Ventass): void&lt;br&gt;+ getPersonal(): Personal&lt;br&gt;+ setPersonal(personal: Personal): void&lt;br&gt;&lt;div&gt;&lt;br&gt;&lt;/div&gt;" style="text;strokeColor=none;fillColor=none;align=left;verticalAlign=top;spacingLeft=4;spacingRight=4;overflow=hidden;rotatable=0;points=[[0,0.5],[1,0.5]];portConstraint=eastwest;whiteSpace=wrap;html=1;" parent="0hhvpNClcyMSBjoHs_y3-1" vertex="1">
          <mxGeometry y="108" width="500" height="452" as="geometry" />
        </mxCell>
        <mxCell id="0hhvpNClcyMSBjoHs_y3-8" value="" style="endArrow=none;html=1;edgeStyle=orthogonalEdgeStyle;rounded=0;exitX=0.511;exitY=1.033;exitDx=0;exitDy=0;exitPerimeter=0;entryX=0.472;entryY=-0.004;entryDx=0;entryDy=0;entryPerimeter=0;" parent="1" source="HfZKcyAalVPZbGPRz8N0-20" target="0hhvpNClcyMSBjoHs_y3-1" edge="1">
          <mxGeometry relative="1" as="geometry">
            <mxPoint x="-360" y="1120" as="sourcePoint" />
            <mxPoint x="-430" y="1070" as="targetPoint" />
            <Array as="points">
              <mxPoint x="-364" y="1040" />
              <mxPoint x="-364" y="1040" />
            </Array>
          </mxGeometry>
        </mxCell>
        <mxCell id="0hhvpNClcyMSBjoHs_y3-9" value="" style="endArrow=none;html=1;edgeStyle=orthogonalEdgeStyle;rounded=0;entryX=-0.004;entryY=0.814;entryDx=0;entryDy=0;entryPerimeter=0;exitX=0.16;exitY=0;exitDx=0;exitDy=0;exitPerimeter=0;" parent="1" source="0hhvpNClcyMSBjoHs_y3-1" target="VIS7IkRf9EXSqeyhbcrE-20" edge="1">
          <mxGeometry relative="1" as="geometry">
            <mxPoint x="-600" y="584" as="sourcePoint" />
            <mxPoint x="-340" y="560" as="targetPoint" />
            <Array as="points">
              <mxPoint x="-520" y="1050" />
              <mxPoint x="-560" y="1050" />
              <mxPoint x="-560" y="580" />
              <mxPoint x="-67" y="580" />
              <mxPoint x="-67" y="584" />
            </Array>
          </mxGeometry>
        </mxCell>
        <mxCell id="0hhvpNClcyMSBjoHs_y3-5" value="" style="endArrow=none;html=1;edgeStyle=orthogonalEdgeStyle;rounded=0;exitX=1.008;exitY=0.336;exitDx=0;exitDy=0;exitPerimeter=0;entryX=-0.002;entryY=0.018;entryDx=0;entryDy=0;entryPerimeter=0;" parent="1" source="0hhvpNClcyMSBjoHs_y3-4" target="HfZKcyAalVPZbGPRz8N0-44" edge="1">
          <mxGeometry relative="1" as="geometry">
            <mxPoint x="-60" y="1328" as="sourcePoint" />
            <mxPoint x="-20" y="1330" as="targetPoint" />
          </mxGeometry>
        </mxCell>
        <mxCell id="B91eAULFRjKSWZ0FUc7T-1" value="PersistenciaSistema" style="swimlane;fontStyle=1;align=center;verticalAlign=top;childLayout=stackLayout;horizontal=1;startSize=26;horizontalStack=0;resizeParent=1;resizeParentMax=0;resizeLast=0;collapsible=1;marginBottom=0;whiteSpace=wrap;html=1;" vertex="1" parent="1">
          <mxGeometry x="110" y="1580" width="240" height="120" as="geometry" />
        </mxCell>
        <mxCell id="B91eAULFRjKSWZ0FUc7T-2" value="- nombreArchivo: String    " style="text;strokeColor=none;fillColor=none;align=left;verticalAlign=top;spacingLeft=4;spacingRight=4;overflow=hidden;rotatable=0;points=[[0,0.5],[1,0.5]];portConstraint=eastwest;whiteSpace=wrap;html=1;" vertex="1" parent="B91eAULFRjKSWZ0FUc7T-1">
          <mxGeometry y="26" width="240" height="34" as="geometry" />
        </mxCell>
        <mxCell id="B91eAULFRjKSWZ0FUc7T-3" value="" style="line;strokeWidth=1;fillColor=none;align=left;verticalAlign=middle;spacingTop=-1;spacingLeft=3;spacingRight=3;rotatable=0;labelPosition=right;points=[];portConstraint=eastwest;strokeColor=inherit;" vertex="1" parent="B91eAULFRjKSWZ0FUc7T-1">
          <mxGeometry y="60" width="240" height="8" as="geometry" />
        </mxCell>
        <mxCell id="B91eAULFRjKSWZ0FUc7T-4" value="+ &lt;span class=&quot;hljs-title function_ invoke__&quot;&gt;guardarSistema&lt;/span&gt;(&lt;span class=&quot;hljs-attr&quot;&gt;sistema&lt;/span&gt;: Sistema): &lt;span class=&quot;hljs-keyword&quot;&gt;void&lt;/span&gt;&lt;br&gt;+ &lt;span class=&quot;hljs-title function_ invoke__&quot;&gt;cargarSistema&lt;/span&gt;(): Sistem    " style="text;strokeColor=none;fillColor=none;align=left;verticalAlign=top;spacingLeft=4;spacingRight=4;overflow=hidden;rotatable=0;points=[[0,0.5],[1,0.5]];portConstraint=eastwest;whiteSpace=wrap;html=1;" vertex="1" parent="B91eAULFRjKSWZ0FUc7T-1">
          <mxGeometry y="68" width="240" height="52" as="geometry" />
        </mxCell>
        <mxCell id="B91eAULFRjKSWZ0FUc7T-5" value="" style="endArrow=diamondThin;endFill=1;endSize=24;html=1;rounded=0;entryX=-0.011;entryY=1.049;entryDx=0;entryDy=0;entryPerimeter=0;exitX=1.004;exitY=0.899;exitDx=0;exitDy=0;exitPerimeter=0;" edge="1" parent="1" source="0hhvpNClcyMSBjoHs_y3-4" target="B91eAULFRjKSWZ0FUc7T-2">
          <mxGeometry width="160" relative="1" as="geometry">
            <mxPoint x="-80" y="1640" as="sourcePoint" />
            <mxPoint x="20" y="1570" as="targetPoint" />
          </mxGeometry>
        </mxCell>
      </root>
    </mxGraphModel>
  </diagram>
</mxfile>
